<svg width="1198" height="392" xmlns="http://www.w3.org/2000/svg" xmlns:xlink="http://www.w3.org/1999/xlink" xml:space="preserve" overflow="hidden"><defs><clipPath id="clip0"><rect x="1601" y="1032" width="1198" height="392"/></clipPath></defs><g clip-path="url(#clip0)" transform="translate(-1601 -1032)"><path d="M199.999 192.002C199.999 169.676 186.392 150.554 167.192 142.71 164.098 141.372 160.872 140.296 157.517 139.573 166.272 129.716 171.214 116.871 171.214 103.094 171.214 72.9612 147.161 48.4516 117.593 48.4516 114.046 48.4516 110.516 48.819 107.024 49.5497 104.495 21.8011 81.5165 0 53.6298 0 25.0627 0 0 27.206 0 58.2198L0 337.357C0 367.491 24.0527 392 53.6298 392 83.198 392 107.251 367.491 107.251 337.357 107.251 336.943 107.246 336.537 107.238 336.161 110.631 336.836 114.089 337.178 117.593 337.178 147.161 337.178 171.214 312.668 171.214 282.548 171.214 268.982 166.366 256.244 157.799 246.412 181.895 241.062 199.992 219.163 199.992 193.033 199.992 192.747 199.962 192.469 199.953 192.183 199.962 192.119 200 192.063 200 192.004ZM53.6367 337.128C46.8416 337.128 41.3042 331.607 41.3042 324.822 41.3042 318.036 46.8328 312.507 53.6367 312.507 60.4319 312.507 65.9605 318.028 65.9605 324.822 65.9605 331.612 60.4276 337.128 53.6367 337.128ZM117.84 291.476C111.045 291.476 105.507 285.955 105.507 279.17 105.507 272.384 111.036 266.855 117.84 266.855 124.635 266.855 130.163 272.375 130.163 279.17 130.172 285.951 124.639 291.476 117.84 291.476ZM146.377 235.406C145.273 235.406 144.186 235.324 143.099 235.239 140.284 234.961 137.669 236.705 136.762 239.38 135.855 242.054 136.899 245.003 139.282 246.511 151.593 254.313 158.945 267.79 158.945 282.549 158.945 303.683 143.75 321.207 123.971 324.368L123.971 302.854C134.558 300.115 142.432 290.577 142.432 279.165 142.432 265.619 131.401 254.599 117.84 254.599 104.275 254.599 93.2398 265.619 93.2398 279.165 93.2398 290.578 101.118 300.115 111.703 302.854L111.703 324.441C108.195 323.928 104.758 323.009 101.459 321.582 99.2684 320.646 96.7224 321.043 94.9466 322.629 93.1622 324.214 92.4604 326.688 93.1537 328.97 93.4917 330.089 93.7912 330.978 94.048 331.764 94.784 333.952 94.9808 334.546 94.9808 337.349 94.9808 358.582 79.6577 376.169 59.7644 379.22L59.7644 348.506C70.3509 345.767 78.2281 336.234 78.2281 324.817 78.2281 311.271 67.197 300.251 53.6365 300.251 40.0716 300.251 29.0361 311.271 29.0361 324.817 29.0361 336.23 36.9139 345.767 47.4965 348.506L47.4965 379.22C27.5945 376.169 12.2713 358.582 12.2713 337.349L12.2756 211.388 29.9058 211.388C32.6487 221.96 42.2043 229.826 53.6418 229.826 67.2067 229.826 78.2335 218.81 78.2335 205.269 78.2335 191.724 67.2024 180.704 53.6418 180.704 42.212 180.704 32.6619 188.562 29.9145 199.138L12.2756 199.138 12.2756 115.763 87.8954 115.763C90.6425 126.335 100.189 134.197 111.623 134.197 125.188 134.197 136.214 123.182 136.214 109.641 136.214 96.095 125.183 85.0753 111.623 85.0753 100.188 85.0753 90.6383 92.9418 87.8954 103.513L67.8312 103.513 67.8312 79.118C78.4177 76.379 86.2949 66.8457 86.2949 55.4288 86.2949 41.8832 75.2637 30.8634 61.7032 30.8634 48.1383 30.8634 37.1028 41.8832 37.1028 55.4288 37.1028 66.8424 44.9806 76.3789 55.5632 79.118L55.5632 103.513 12.28 103.513 12.28 58.2149C12.28 33.7305 31.6048 12.2466 53.6375 12.2466 76.4402 12.2466 94.9905 31.2616 94.9905 54.639 94.9905 55.3312 94.935 56.0235 94.8493 57.2925 94.7123 59.3734 95.6452 61.3861 97.3269 62.621 99.0087 63.8601 101.2 64.1636 103.155 63.4157 107.879 61.6169 112.736 60.7067 117.597 60.7067 140.4 60.7067 158.95 79.7216 158.95 103.099 158.95 118.169 151.368 131.788 138.659 139.518 138.531 139.603 138.446 139.727 138.317 139.817 114.11 144.398 95.7142 166.041 95.7142 192.007 95.7142 195.396 98.4613 198.135 101.85 198.135 105.235 198.135 107.987 195.396 107.987 192.007 107.987 169.471 125.873 151.136 147.859 151.136 153.118 151.136 158.12 152.209 162.724 154.106 177.414 160.618 187.735 175.612 187.735 193.029 187.731 216.397 169.181 235.408 146.378 235.408ZM41.3086 205.268C41.3086 198.482 46.8371 192.953 53.6411 192.953 60.4363 192.953 65.9648 198.474 65.9648 205.268 65.9648 212.049 60.4363 217.574 53.6411 217.574 46.8331 217.566 41.3086 212.049 41.3086 205.268ZM61.6982 67.7337C54.903 67.7337 49.3656 62.213 49.3656 55.4275 49.3656 48.6421 54.8943 43.1125 61.6982 43.1125 68.4933 43.1125 74.0218 48.6332 74.0218 55.4275 74.0218 62.2172 68.489 67.7337 61.6982 67.7337ZM99.2982 109.643C99.2982 102.857 104.827 97.3277 111.631 97.3277 118.426 97.3277 123.955 102.848 123.955 109.643 123.955 116.424 118.426 121.949 111.631 121.949 104.823 121.949 99.2982 116.428 99.2982 109.643Z" fill="#002060" fill-rule="evenodd" transform="matrix(-1 0 0 1 1801 1032)"/><path d="M2395.77 1165.45 2396.38 1165.45C2399.73 1165.45 2402.62 1166.66 2405.03 1169.07 2407.45 1171.49 2408.66 1174.44 2408.66 1177.92L2408.66 1195.62C2408.66 1212.11 2414.49 1226.26 2426.17 1238.06 2437.98 1249.85 2452.21 1255.75 2468.85 1255.75 2485.35 1255.75 2499.51 1249.85 2511.32 1238.06 2523 1226.26 2528.84 1212.11 2528.84 1195.62L2528.84 1177.92C2528.84 1174.44 2530.04 1171.49 2532.46 1169.07 2534.88 1166.66 2537.83 1165.45 2541.32 1165.45L2541.72 1165.45C2545.08 1165.45 2547.96 1166.66 2550.38 1169.07 2552.79 1171.49 2554 1174.37 2554 1177.72L2554 1195.62C2554 1223.78 2540.71 1247.98 2514.14 1268.22 2540.71 1288.6 2554 1312.8 2554 1340.82L2554 1360.73C2554 1364.08 2552.79 1366.97 2550.38 1369.38 2547.96 1371.79 2545.08 1373 2541.72 1373L2541.32 1373C2537.83 1373 2534.88 1371.79 2532.46 1369.38 2530.04 1366.97 2528.84 1364.08 2528.84 1360.73L2528.84 1340.82C2528.84 1324.33 2523 1310.19 2511.32 1298.39 2499.51 1286.72 2485.35 1280.89 2468.85 1280.89 2452.21 1280.89 2437.98 1286.72 2426.17 1298.39 2414.49 1310.19 2408.66 1324.33 2408.66 1340.82L2408.66 1360.73C2408.66 1364.08 2407.45 1366.97 2405.03 1369.38 2402.62 1371.79 2399.73 1373 2396.38 1373L2395.77 1373C2392.42 1373 2389.53 1371.79 2387.12 1369.38 2384.7 1366.97 2383.49 1364.08 2383.49 1360.73L2383.49 1340.82C2383.49 1312.8 2396.78 1288.6 2423.35 1268.22 2396.78 1247.98 2383.49 1223.78 2383.49 1195.62L2383.49 1177.92C2383.49 1174.44 2384.7 1171.49 2387.12 1169.07 2389.53 1166.66 2392.42 1165.45 2395.77 1165.45ZM1948 1107.94C1929.61 1107.94 1913.84 1114.51 1900.69 1127.65 1887.67 1140.79 1881.16 1156.54 1881.16 1174.91L1881.16 1234.03 2015.03 1234.03 2015.03 1174.91C2015.03 1156.54 2008.52 1140.79 1995.51 1127.65 1982.35 1114.51 1966.52 1107.94 1948 1107.94ZM2257.53 1083 2329.39 1083C2332.75 1083 2335.64 1084.21 2338.05 1086.62 2340.47 1089.03 2341.67 1091.92 2341.67 1095.27L2341.67 1095.67C2341.67 1099.16 2340.47 1102.11 2338.05 1104.52 2335.64 1106.93 2332.75 1108.14 2329.39 1108.14L2257.53 1108.14C2247.6 1108.14 2239.07 1111.69 2231.96 1118.8 2224.85 1125.9 2221.29 1134.42 2221.29 1144.34L2221.29 1215.53 2329.39 1215.53C2332.75 1215.53 2335.64 1216.67 2338.05 1218.95 2340.47 1221.36 2341.67 1224.31 2341.67 1227.8L2341.67 1228.2C2341.67 1231.69 2340.47 1234.64 2338.05 1237.05 2335.64 1239.33 2332.75 1240.47 2329.39 1240.47L2221.29 1240.47 2221.29 1311.66C2221.29 1321.58 2224.85 1330.1 2231.96 1337.2 2239.07 1344.31 2247.6 1347.86 2257.53 1347.86L2329.39 1347.86C2332.75 1347.86 2335.64 1349.07 2338.05 1351.48 2340.47 1353.89 2341.67 1356.84 2341.67 1360.33L2341.67 1360.73C2341.67 1364.08 2340.47 1366.97 2338.05 1369.38 2335.64 1371.79 2332.75 1373 2329.39 1373L2257.53 1373C2240.48 1373 2225.99 1367.03 2214.05 1355.1 2202.1 1343.17 2196.13 1328.69 2196.13 1311.66L2196.13 1144.34C2196.13 1127.31 2202.1 1112.83 2214.05 1100.9 2225.99 1088.97 2240.48 1083 2257.53 1083ZM2118.25 1083 2118.85 1083C2122.21 1083 2125.09 1084.14 2127.51 1086.42 2129.93 1088.83 2131.13 1091.78 2131.13 1095.27L2131.13 1360.73C2131.13 1364.08 2129.93 1366.97 2127.51 1369.38 2125.09 1371.79 2122.21 1373 2118.85 1373L2118.25 1373C2114.89 1373 2112.01 1371.79 2109.59 1369.38 2107.18 1366.97 2105.97 1364.08 2105.97 1360.73L2105.97 1095.27C2105.97 1091.78 2107.18 1088.83 2109.59 1086.42 2112.01 1084.14 2114.89 1083 2118.25 1083ZM1948 1083C1973.5 1083 1995.24 1091.92 2013.22 1109.75 2031.2 1127.71 2040.2 1149.43 2040.2 1174.91L2040.2 1360.73C2040.2 1364.08 2038.99 1366.97 2036.57 1369.38 2034.16 1371.79 2031.27 1373 2027.92 1373L2027.31 1373C2023.96 1373 2021.07 1371.79 2018.66 1369.38 2016.24 1366.97 2015.03 1364.08 2015.03 1360.73L2015.03 1258.97 1881.16 1258.97 1881.16 1360.73C1881.16 1364.08 1879.96 1366.97 1877.54 1369.38 1875.12 1371.79 1872.24 1373 1868.88 1373L1868.28 1373C1864.92 1373 1862.04 1371.79 1859.62 1369.38 1857.21 1366.97 1856 1364.08 1856 1360.73L1856 1174.91C1856 1149.43 1864.99 1127.71 1882.98 1109.75 1900.96 1091.92 1922.63 1083 1948 1083Z" fill="#002060" fill-rule="evenodd"/><path d="M2746.88 1338.33C2739.78 1338.33 2734.03 1344.07 2734.03 1351.15 2734.03 1358.23 2739.78 1363.97 2746.88 1363.97 2753.98 1363.97 2759.73 1358.23 2759.73 1351.15 2759.73 1344.07 2753.98 1338.33 2746.88 1338.33ZM2608.26 1175.12C2637.83 1175.12 2661.8 1199.02 2661.8 1228.52 2661.8 1258.01 2637.83 1281.91 2608.26 1281.91L2608 1281.89 2608 1281.81 2608 1281.81 2608 1261.17 2608 1261.17 2608 1195.83 2608 1195.83 2608 1175.19 2608 1175.19 2608 1175.14ZM2608 1108.47C2649.54 1108.47 2686.17 1129.46 2707.79 1161.39L2709.19 1163.96 2712.09 1163.37C2721.08 1163.37 2728.37 1170.64 2728.37 1179.61 2728.37 1184.1 2726.55 1188.15 2723.6 1191.09L2722.1 1192.1 2725.9 1204.31C2727.51 1212.12 2728.35 1220.21 2728.35 1228.5 2728.35 1294.79 2674.47 1348.53 2608 1348.53L2608 1337.93C2668.6 1337.93 2717.72 1288.94 2717.72 1228.5 2717.72 1220.95 2716.95 1213.57 2715.49 1206.45L2712.19 1195.83 2712.09 1195.85C2703.1 1195.85 2695.81 1188.58 2695.81 1179.61 2695.81 1177.37 2696.27 1175.23 2697.09 1173.29L2699.94 1169.08 2698.98 1167.32C2679.26 1138.21 2645.87 1119.07 2608 1119.07ZM2608 1038C2713.49 1038 2799 1123.29 2799 1228.5 2799 1267.95 2786.97 1304.61 2766.38 1335.01L2764.73 1337.21 2768.11 1342.2C2769.28 1344.95 2769.92 1347.98 2769.92 1351.15 2769.92 1363.84 2759.6 1374.13 2746.88 1374.13 2743.7 1374.13 2740.66 1373.49 2737.91 1372.33L2735.09 1370.43 2729.49 1375.5C2696.48 1402.68 2654.15 1419 2608 1419L2608 1407.65C2645.2 1407.65 2679.76 1396.37 2708.43 1377.06L2726.86 1361.89 2725.64 1360.1C2724.48 1357.35 2723.83 1354.32 2723.83 1351.15 2723.83 1338.46 2734.15 1328.17 2746.88 1328.17 2750.06 1328.17 2753.09 1328.81 2755.85 1329.97L2755.86 1329.98 2756.95 1328.67C2776.31 1300.07 2787.62 1265.6 2787.62 1228.5 2787.62 1129.56 2707.2 1049.35 2608 1049.35Z" fill="#002060" fill-rule="evenodd"/></g></svg>