<svg width="1666" height="728" xmlns="http://www.w3.org/2000/svg" xmlns:xlink="http://www.w3.org/1999/xlink" xml:space="preserve" overflow="hidden"><defs><clipPath id="clip0"><rect x="1367" y="866" width="1666" height="728"/></clipPath></defs><g clip-path="url(#clip0)" transform="translate(-1367 -866)"><path d="M2263.76 1137.43C2239.53 1137.43 2218.81 1146.01 2201.62 1163.17 2184.57 1180.33 2176.04 1201 2176.04 1225.17 2176.04 1229.5 2176.79 1236.74 2178.28 1246.88L2336.44 1175.48C2315.2 1150.11 2290.98 1137.43 2263.76 1137.43ZM2426.67 1109 2427.35 1109C2431.08 1109 2434.3 1110.34 2436.99 1113.03 2439.68 1115.72 2441.03 1119 2441.03 1122.88L2441.03 1142.58C2441.03 1160.93 2447.54 1176.67 2460.55 1189.81 2473.71 1202.94 2489.56 1209.5 2508.11 1209.5 2526.5 1209.5 2542.28 1202.94 2555.44 1189.81 2568.45 1176.67 2574.96 1160.93 2574.96 1142.58L2574.96 1122.88C2574.96 1119 2576.3 1115.72 2579 1113.03 2581.69 1110.34 2584.98 1109 2588.87 1109L2589.32 1109C2593.05 1109 2596.27 1110.34 2598.96 1113.03 2601.65 1115.72 2603 1118.92 2603 1122.65L2603 1142.58C2603 1173.91 2588.19 1200.85 2558.58 1223.38 2588.19 1246.06 2603 1273 2603 1304.19L2603 1326.35C2603 1330.08 2601.65 1333.28 2598.96 1335.97 2596.27 1338.66 2593.05 1340 2589.32 1340L2588.87 1340C2584.98 1340 2581.69 1338.66 2579 1335.97 2576.3 1333.28 2574.96 1330.08 2574.96 1326.35L2574.96 1304.19C2574.96 1285.83 2568.45 1270.09 2555.44 1256.96 2542.28 1243.97 2526.5 1237.48 2508.11 1237.48 2489.56 1237.48 2473.71 1243.97 2460.55 1256.96 2447.54 1270.09 2441.03 1285.83 2441.03 1304.19L2441.03 1326.35C2441.03 1330.08 2439.68 1333.28 2436.99 1335.97 2434.3 1338.66 2431.08 1340 2427.35 1340L2426.67 1340C2422.93 1340 2419.72 1338.66 2417.03 1335.97 2414.33 1333.28 2412.99 1330.08 2412.99 1326.35L2412.99 1304.19C2412.99 1273 2427.79 1246.06 2457.41 1223.38 2427.79 1200.85 2412.99 1173.91 2412.99 1142.58L2412.99 1122.88C2412.99 1119 2414.33 1115.72 2417.03 1113.03 2419.72 1110.34 2422.93 1109 2426.67 1109ZM2263.76 1109C2286.79 1109 2307.88 1115.27 2327.02 1127.8 2345.71 1140.04 2359.7 1156.3 2368.97 1176.6 2370.61 1180.03 2370.76 1183.54 2369.42 1187.12 2368.07 1190.55 2365.68 1193.09 2362.24 1194.73 2341.3 1204.13 2313.78 1216.52 2279.68 1231.89 2237.36 1250.99 2207.3 1264.49 2189.5 1272.4 2210.44 1299.26 2235.19 1312.69 2263.76 1312.69 2282.75 1312.69 2299.95 1307.1 2315.35 1295.9 2330.16 1285.16 2340.55 1271.13 2346.54 1253.82 2348.78 1247.56 2353.27 1244.42 2360 1244.42 2364.78 1244.42 2368.6 1246.36 2371.44 1250.24 2374.13 1254.12 2374.65 1258.3 2373.01 1262.78 2365.08 1285.61 2351.25 1304.11 2331.51 1318.29 2311.17 1332.76 2288.58 1340 2263.76 1340 2231.75 1340 2204.46 1328.73 2181.87 1306.2 2159.29 1283.67 2148 1256.43 2148 1224.5 2148 1192.57 2159.29 1165.33 2181.87 1142.8 2204.46 1120.27 2231.75 1109 2263.76 1109Z" fill="#6400AC" fill-rule="evenodd"/><path d="M2936.67 1434.31C2923.55 1434.31 2912.92 1444.96 2912.92 1458.1 2912.92 1471.23 2923.55 1481.88 2936.67 1481.88 2949.79 1481.88 2960.42 1471.23 2960.42 1458.1 2960.42 1444.96 2949.79 1434.31 2936.67 1434.31ZM2680.48 1131.44C2735.13 1131.44 2779.43 1175.8 2779.43 1230.53 2779.43 1285.25 2735.13 1329.62 2680.48 1329.62L2680.01 1329.57 2680.01 1329.43 2680 1329.43 2680 1291.12 2680.01 1291.11 2680.01 1169.88 2680 1169.88 2680 1131.57 2680.01 1131.57 2680.01 1131.49ZM2680 1007.76C2756.78 1007.76 2824.47 1046.72 2864.44 1105.97L2867.02 1110.73 2872.38 1109.65C2889 1109.65 2902.47 1123.14 2902.47 1139.78 2902.47 1148.1 2899.1 1155.63 2893.66 1161.09L2890.88 1162.96 2897.9 1185.61C2900.87 1200.11 2902.42 1215.12 2902.42 1230.5 2902.42 1353.51 2802.84 1453.24 2680 1453.24L2680 1433.57C2791.99 1433.57 2882.78 1342.65 2882.78 1230.5 2882.78 1216.48 2881.36 1202.79 2878.66 1189.57L2872.55 1169.88 2872.38 1169.91C2855.76 1169.91 2842.29 1156.42 2842.29 1139.78 2842.29 1135.62 2843.14 1131.66 2844.66 1128.05L2849.92 1120.23 2848.15 1116.96C2811.71 1062.95 2750 1027.43 2680 1027.43ZM2680 877C2874.96 877 3033 1035.27 3033 1230.5 3033 1303.71 3010.78 1371.73 2972.71 1428.15L2969.67 1432.22 2975.91 1441.5C2978.07 1446.6 2979.26 1452.21 2979.26 1458.1 2979.26 1481.65 2960.19 1500.75 2936.67 1500.75 2930.79 1500.75 2925.19 1499.55 2920.09 1497.39L2914.87 1493.87 2904.54 1503.28C2843.52 1553.71 2765.29 1584 2680 1584L2680 1562.95C2748.75 1562.95 2812.63 1542.01 2865.61 1506.17L2899.67 1478.03 2897.43 1474.7C2895.27 1469.6 2894.08 1463.99 2894.08 1458.1 2894.08 1434.54 2913.15 1415.45 2936.67 1415.45 2942.55 1415.45 2948.15 1416.64 2953.25 1418.8L2953.27 1418.81 2955.28 1416.37C2991.07 1363.31 3011.97 1299.35 3011.97 1230.5 3011.97 1046.9 2863.34 898.055 2680 898.055Z" fill="#6400AC" fill-rule="evenodd"/><path d="M369.998 356.576C369.998 315.113 344.824 279.6 309.305 265.032 303.581 262.548 297.612 260.549 291.406 259.208 307.603 240.9 316.746 217.046 316.746 191.461 316.746 135.499 272.249 89.9815 217.547 89.9815 210.985 89.9815 204.454 90.6639 197.994 92.0208 193.316 40.4878 150.806 0 99.215 0 46.366 0 0 50.5255 0 108.122L0 626.521C0 682.482 44.4975 728 99.215 728 153.916 728 198.414 682.482 198.414 626.521 198.414 625.751 198.406 624.997 198.39 624.299 204.668 625.553 211.064 626.187 217.547 626.187 272.249 626.187 316.746 580.67 316.746 524.732 316.746 499.538 307.777 475.881 291.929 457.622 336.505 447.686 369.984 407.017 369.984 358.491 369.984 357.959 369.929 357.443 369.913 356.911 369.929 356.792 370 356.689 370 356.578ZM99.2278 626.095C86.6569 626.095 76.4127 615.842 76.4127 603.24 76.4127 590.639 86.6406 580.37 99.2278 580.37 111.799 580.37 122.027 590.623 122.027 603.24 122.027 615.85 111.791 626.095 99.2278 626.095ZM218.003 541.312C205.432 541.312 195.188 531.059 195.188 518.458 195.188 505.856 205.416 495.587 218.003 495.587 230.574 495.587 240.802 505.84 240.802 518.458 240.818 531.052 230.582 541.312 218.003 541.312ZM270.797 437.181C268.755 437.181 266.744 437.031 264.734 436.872 259.525 436.356 254.688 439.594 253.01 444.562 251.331 449.529 253.263 455.005 257.672 457.806 280.447 472.296 294.047 497.325 294.047 524.734 294.047 563.982 265.937 596.527 229.347 602.398L229.347 562.443C248.932 557.356 263.499 539.643 263.499 518.448 263.499 493.292 243.091 472.827 218.004 472.827 192.909 472.827 172.493 493.292 172.493 518.448 172.493 539.645 187.067 557.356 206.651 562.443L206.651 602.532C200.16 601.58 193.803 599.874 187.7 597.223 183.646 595.485 178.936 596.223 175.651 599.167 172.35 602.112 171.052 606.706 172.334 610.944 172.96 613.023 173.514 614.673 173.989 616.134 175.35 620.197 175.714 621.3 175.714 626.506 175.714 665.937 147.367 698.599 110.564 704.265L110.564 647.225C130.149 642.138 144.722 624.433 144.722 603.231 144.722 578.075 124.314 557.609 99.2274 557.609 74.1324 557.609 53.7167 578.075 53.7167 603.231 53.7167 624.427 68.2906 642.138 87.8685 647.225L87.8685 704.265C51.0498 698.599 22.702 665.937 22.702 626.506L22.7098 392.578 55.3257 392.578C60.4 412.211 78.0779 426.819 99.2373 426.819 124.332 426.819 144.732 406.362 144.732 381.214 144.732 356.058 124.324 335.593 99.2373 335.593 78.0922 335.593 60.4244 350.186 55.3418 369.827L22.7098 369.827 22.7098 214.989 162.606 214.989C167.688 234.621 185.35 249.224 206.502 249.224 231.597 249.224 251.996 228.766 251.996 203.618 251.996 178.462 231.589 157.997 206.502 157.997 185.349 157.997 167.681 172.606 162.606 192.238L125.488 192.238 125.488 146.933C145.073 141.847 159.645 124.142 159.645 102.939 159.645 77.7831 139.238 57.3177 114.151 57.3177 89.0558 57.3177 68.6402 77.7831 68.6402 102.939 68.6402 124.136 83.2141 141.846 102.792 146.933L102.792 192.238 22.7179 192.238 22.7179 108.113C22.7179 62.6424 58.4688 22.7437 99.2293 22.7437 141.414 22.7437 175.732 58.0573 175.732 101.472 175.732 102.758 175.63 104.044 175.471 106.4 175.218 110.265 176.944 114.003 180.055 116.296 183.166 118.597 187.219 119.161 190.837 117.772 199.576 114.431 208.561 112.741 217.555 112.741 259.74 112.741 294.058 148.054 294.058 191.47 294.058 219.457 280.03 244.75 256.52 259.104 256.282 259.263 256.124 259.493 255.887 259.66 211.104 268.167 177.071 308.361 177.071 356.585 177.071 362.878 182.153 367.964 188.423 367.964 194.685 367.964 199.775 362.878 199.775 356.585 199.775 314.732 232.865 280.682 273.538 280.682 283.268 280.682 292.522 282.674 301.039 286.197 328.215 298.291 347.31 326.136 347.31 358.482 347.302 401.881 312.984 437.186 270.799 437.186ZM76.4208 381.212C76.4208 368.61 86.6487 358.341 99.2359 358.341 111.807 358.341 122.035 368.594 122.035 381.212 122.035 393.805 111.807 404.066 99.2359 404.066 86.6412 404.05 76.4208 393.805 76.4208 381.212ZM114.142 125.791C101.57 125.791 91.3262 115.538 91.3262 102.937 91.3262 90.3352 101.554 80.0661 114.142 80.0661 126.712 80.0661 136.94 90.3188 136.94 102.937 136.94 115.546 126.705 125.791 114.142 125.791ZM183.702 203.622C183.702 191.02 193.929 180.751 206.517 180.751 219.088 180.751 229.316 191.004 229.316 203.622 229.316 216.216 219.088 226.476 206.517 226.476 193.922 226.476 183.702 216.224 183.702 203.622Z" fill="#00BBFF" fill-rule="evenodd" transform="matrix(-1 0 0 1 1737 866)"/><path d="M1915.52 1049.86C1895.03 1049.86 1877.46 1057.2 1862.8 1071.88 1848.29 1086.56 1841.04 1104.16 1841.04 1124.68L1841.04 1190.74 1990.22 1190.74 1990.22 1124.68C1990.22 1104.16 1982.96 1086.56 1968.46 1071.88 1953.8 1057.2 1936.15 1049.86 1915.52 1049.86ZM2088.64 1022 2089.32 1022C2093.05 1022 2096.27 1023.27 2098.96 1025.82 2101.65 1028.52 2103 1031.81 2103 1035.71L2103 1332.29C2103 1336.04 2101.65 1339.26 2098.96 1341.96 2096.27 1344.65 2093.05 1346 2089.32 1346L2088.64 1346C2084.9 1346 2081.69 1344.65 2079 1341.96 2076.31 1339.26 2074.96 1336.04 2074.96 1332.29L2074.96 1035.71C2074.96 1031.81 2076.31 1028.52 2079 1025.82 2081.69 1023.27 2084.9 1022 2088.64 1022ZM1915.52 1022C1943.93 1022 1968.16 1031.96 1988.2 1051.88 2008.24 1071.96 2018.26 1096.22 2018.26 1124.68L2018.26 1332.29C2018.26 1336.04 2016.91 1339.26 2014.22 1341.96 2011.53 1344.65 2008.31 1346 2004.57 1346L2003.9 1346C2000.16 1346 1996.95 1344.65 1994.25 1341.96 1991.56 1339.26 1990.22 1336.04 1990.22 1332.29L1990.22 1218.6 1841.04 1218.6 1841.04 1332.29C1841.04 1336.04 1839.69 1339.26 1837 1341.96 1834.31 1344.65 1831.1 1346 1827.36 1346L1826.68 1346C1822.95 1346 1819.73 1344.65 1817.04 1341.96 1814.35 1339.26 1813 1336.04 1813 1332.29L1813 1124.68C1813 1096.22 1823.02 1071.96 1843.06 1051.88 1863.1 1031.96 1887.25 1022 1915.52 1022Z" fill="#00BBFF" fill-rule="evenodd"/></g></svg>