<svg width="4304" height="953" xmlns="http://www.w3.org/2000/svg" xmlns:xlink="http://www.w3.org/1999/xlink" xml:space="preserve" overflow="hidden"><defs><clipPath id="clip0"><rect x="62" y="761" width="4304" height="953"/></clipPath><linearGradient x1="564.5" y1="869" x2="564.5" y2="1606" gradientUnits="userSpaceOnUse" spreadMethod="reflect" id="fill1"><stop offset="0" stop-color="#AE43FF"/><stop offset="0.00819672" stop-color="#AD44FF"/><stop offset="0.0163934" stop-color="#AD45FF"/><stop offset="0.0245902" stop-color="#AD46FF"/><stop offset="0.0327869" stop-color="#AD48FF"/><stop offset="0.0409836" stop-color="#AD49FF"/><stop offset="0.0491803" stop-color="#AD4AFF"/><stop offset="0.057377" stop-color="#AD4CFF"/><stop offset="0.0655738" stop-color="#AD4DFF"/><stop offset="0.0737705" stop-color="#AD4EFF"/><stop offset="0.0819672" stop-color="#AC4FFF"/><stop offset="0.0901639" stop-color="#AC50FF"/><stop offset="0.0983607" stop-color="#AC52FF"/><stop offset="0.106557" stop-color="#AC53FF"/><stop offset="0.114754" stop-color="#AB54FF"/><stop offset="0.122951" stop-color="#AB55FF"/><stop offset="0.131148" stop-color="#AB56FF"/><stop offset="0.139344" stop-color="#AA58FF"/><stop offset="0.147541" stop-color="#AA59FF"/><stop offset="0.155738" stop-color="#AA5AFF"/><stop offset="0.163934" stop-color="#A95BFF"/><stop offset="0.172131" stop-color="#A95CFF"/><stop offset="0.180328" stop-color="#A95DFF"/><stop offset="0.188525" stop-color="#A85EFF"/><stop offset="0.196721" stop-color="#A85FFF"/><stop offset="0.204918" stop-color="#A761FF"/><stop offset="0.213115" stop-color="#A762FF"/><stop offset="0.221311" stop-color="#A663FF"/><stop offset="0.229508" stop-color="#A664FF"/><stop offset="0.237705" stop-color="#A565FF"/><stop offset="0.245902" stop-color="#A566FF"/><stop offset="0.254098" stop-color="#A467FF"/><stop offset="0.262295" stop-color="#A368FF"/><stop offset="0.270492" stop-color="#A369FF"/><stop offset="0.278689" stop-color="#A26AFF"/><stop offset="0.286885" stop-color="#A26BFF"/><stop offset="0.295082" stop-color="#A16CFF"/><stop offset="0.303279" stop-color="#A06DFF"/><stop offset="0.311475" stop-color="#A06EFF"/><stop offset="0.319672" stop-color="#9F6FFF"/><stop offset="0.327869" stop-color="#9E70FF"/><stop offset="0.336066" stop-color="#9E71FF"/><stop offset="0.344262" stop-color="#9D72FF"/><stop offset="0.352459" stop-color="#9C72FF"/><stop offset="0.360656" stop-color="#9B73FF"/><stop offset="0.368852" stop-color="#9B74FF"/><stop offset="0.377049" stop-color="#9A75FF"/><stop offset="0.385246" stop-color="#9976FF"/><stop offset="0.393443" stop-color="#9877FF"/><stop offset="0.401639" stop-color="#9778FF"/><stop offset="0.409836" stop-color="#9679FF"/><stop offset="0.418033" stop-color="#9679FF"/><stop offset="0.42623" stop-color="#957AFF"/><stop offset="0.434426" stop-color="#947BFF"/><stop offset="0.442623" stop-color="#937CFF"/><stop offset="0.45082" stop-color="#927DFF"/><stop offset="0.459016" stop-color="#917DFF"/><stop offset="0.467213" stop-color="#907EFF"/><stop offset="0.47541" stop-color="#8F7FFF"/><stop offset="0.483607" stop-color="#8E80FF"/><stop offset="0.491803" stop-color="#8D80FF"/><stop offset="0.5" stop-color="#8C81FF"/><stop offset="0.508197" stop-color="#8B82FF"/><stop offset="0.516393" stop-color="#8A82FF"/><stop offset="0.52459" stop-color="#8983FF"/><stop offset="0.532787" stop-color="#8884FF"/><stop offset="0.540984" stop-color="#8785FF"/><stop offset="0.54918" stop-color="#8685FF"/><stop offset="0.557377" stop-color="#8486FF"/><stop offset="0.565574" stop-color="#8386FF"/><stop offset="0.57377" stop-color="#8287FF"/><stop offset="0.581967" stop-color="#8188FF"/><stop offset="0.590164" stop-color="#8088FF"/><stop offset="0.598361" stop-color="#7F89FF"/><stop offset="0.606557" stop-color="#7D8AFF"/><stop offset="0.614754" stop-color="#7C8AFF"/><stop offset="0.622951" stop-color="#7B8BFF"/><stop offset="0.631148" stop-color="#7A8BFF"/><stop offset="0.639344" stop-color="#788CFF"/><stop offset="0.647541" stop-color="#778CFF"/><stop offset="0.655738" stop-color="#768DFF"/><stop offset="0.663934" stop-color="#748DFF"/><stop offset="0.672131" stop-color="#738EFF"/><stop offset="0.680328" stop-color="#728EFF"/><stop offset="0.688525" stop-color="#708FFF"/><stop offset="0.696721" stop-color="#6F8FFF"/><stop offset="0.704918" stop-color="#6E90FF"/><stop offset="0.713115" stop-color="#6C90FF"/><stop offset="0.721311" stop-color="#6B91FF"/><stop offset="0.729508" stop-color="#6991FF"/><stop offset="0.737705" stop-color="#6892FF"/><stop offset="0.745902" stop-color="#6792FF"/><stop offset="0.754098" stop-color="#6592FF"/><stop offset="0.762295" stop-color="#6493FF"/><stop offset="0.770492" stop-color="#6293FF"/><stop offset="0.778689" stop-color="#6193FF"/><stop offset="0.786885" stop-color="#5F94FF"/><stop offset="0.795082" stop-color="#5D94FF"/><stop offset="0.803279" stop-color="#5C94FF"/><stop offset="0.811475" stop-color="#5A95FF"/><stop offset="0.819672" stop-color="#5995FF"/><stop offset="0.827869" stop-color="#5795FF"/><stop offset="0.836066" stop-color="#5696FF"/><stop offset="0.844262" stop-color="#5496FF"/><stop offset="0.852459" stop-color="#5296FF"/><stop offset="0.860656" stop-color="#5196FF"/><stop offset="0.868852" stop-color="#4F97FF"/><stop offset="0.877049" stop-color="#4D97FF"/><stop offset="0.885246" stop-color="#4C97FF"/><stop offset="0.893443" stop-color="#4A97FF"/><stop offset="0.901639" stop-color="#4897FF"/><stop offset="0.909836" stop-color="#4698FF"/><stop offset="0.918033" stop-color="#4598FF"/><stop offset="0.92623" stop-color="#4398FF"/><stop offset="0.934426" stop-color="#4198FF"/><stop offset="0.942623" stop-color="#3F98FF"/><stop offset="0.95082" stop-color="#3E98FF"/><stop offset="0.959016" stop-color="#3C98FF"/><stop offset="0.967213" stop-color="#3A98FF"/><stop offset="0.97541" stop-color="#3898FF"/><stop offset="0.983607" stop-color="#3698FF"/><stop offset="0.991803" stop-color="#3498FF"/><stop offset="1" stop-color="#3399FF"/></linearGradient><linearGradient x1="564.5" y1="869" x2="564.5" y2="1606" gradientUnits="userSpaceOnUse" spreadMethod="reflect" id="fill2"><stop offset="0" stop-color="#AE43FF"/><stop offset="0.00819672" stop-color="#AD44FF"/><stop offset="0.0163934" stop-color="#AD45FF"/><stop offset="0.0245902" stop-color="#AD46FF"/><stop offset="0.0327869" stop-color="#AD48FF"/><stop offset="0.0409836" stop-color="#AD49FF"/><stop offset="0.0491803" stop-color="#AD4AFF"/><stop offset="0.057377" stop-color="#AD4CFF"/><stop offset="0.0655738" stop-color="#AD4DFF"/><stop offset="0.0737705" stop-color="#AD4EFF"/><stop offset="0.0819672" stop-color="#AC4FFF"/><stop offset="0.0901639" stop-color="#AC50FF"/><stop offset="0.0983607" stop-color="#AC52FF"/><stop offset="0.106557" stop-color="#AC53FF"/><stop offset="0.114754" stop-color="#AB54FF"/><stop offset="0.122951" stop-color="#AB55FF"/><stop offset="0.131148" stop-color="#AB56FF"/><stop offset="0.139344" stop-color="#AA58FF"/><stop offset="0.147541" stop-color="#AA59FF"/><stop offset="0.155738" stop-color="#AA5AFF"/><stop offset="0.163934" stop-color="#A95BFF"/><stop offset="0.172131" stop-color="#A95CFF"/><stop offset="0.180328" stop-color="#A95DFF"/><stop offset="0.188525" stop-color="#A85EFF"/><stop offset="0.196721" stop-color="#A85FFF"/><stop offset="0.204918" stop-color="#A761FF"/><stop offset="0.213115" stop-color="#A762FF"/><stop offset="0.221311" stop-color="#A663FF"/><stop offset="0.229508" stop-color="#A664FF"/><stop offset="0.237705" stop-color="#A565FF"/><stop offset="0.245902" stop-color="#A566FF"/><stop offset="0.254098" stop-color="#A467FF"/><stop offset="0.262295" stop-color="#A368FF"/><stop offset="0.270492" stop-color="#A369FF"/><stop offset="0.278689" stop-color="#A26AFF"/><stop offset="0.286885" stop-color="#A26BFF"/><stop offset="0.295082" stop-color="#A16CFF"/><stop offset="0.303279" stop-color="#A06DFF"/><stop offset="0.311475" stop-color="#A06EFF"/><stop offset="0.319672" stop-color="#9F6FFF"/><stop offset="0.327869" stop-color="#9E70FF"/><stop offset="0.336066" stop-color="#9E71FF"/><stop offset="0.344262" stop-color="#9D72FF"/><stop offset="0.352459" stop-color="#9C72FF"/><stop offset="0.360656" stop-color="#9B73FF"/><stop offset="0.368852" stop-color="#9B74FF"/><stop offset="0.377049" stop-color="#9A75FF"/><stop offset="0.385246" stop-color="#9976FF"/><stop offset="0.393443" stop-color="#9877FF"/><stop offset="0.401639" stop-color="#9778FF"/><stop offset="0.409836" stop-color="#9679FF"/><stop offset="0.418033" stop-color="#9679FF"/><stop offset="0.42623" stop-color="#957AFF"/><stop offset="0.434426" stop-color="#947BFF"/><stop offset="0.442623" stop-color="#937CFF"/><stop offset="0.45082" stop-color="#927DFF"/><stop offset="0.459016" stop-color="#917DFF"/><stop offset="0.467213" stop-color="#907EFF"/><stop offset="0.47541" stop-color="#8F7FFF"/><stop offset="0.483607" stop-color="#8E80FF"/><stop offset="0.491803" stop-color="#8D80FF"/><stop offset="0.5" stop-color="#8C81FF"/><stop offset="0.508197" stop-color="#8B82FF"/><stop offset="0.516393" stop-color="#8A82FF"/><stop offset="0.52459" stop-color="#8983FF"/><stop offset="0.532787" stop-color="#8884FF"/><stop offset="0.540984" stop-color="#8785FF"/><stop offset="0.54918" stop-color="#8685FF"/><stop offset="0.557377" stop-color="#8486FF"/><stop offset="0.565574" stop-color="#8386FF"/><stop offset="0.57377" stop-color="#8287FF"/><stop offset="0.581967" stop-color="#8188FF"/><stop offset="0.590164" stop-color="#8088FF"/><stop offset="0.598361" stop-color="#7F89FF"/><stop offset="0.606557" stop-color="#7D8AFF"/><stop offset="0.614754" stop-color="#7C8AFF"/><stop offset="0.622951" stop-color="#7B8BFF"/><stop offset="0.631148" stop-color="#7A8BFF"/><stop offset="0.639344" stop-color="#788CFF"/><stop offset="0.647541" stop-color="#778CFF"/><stop offset="0.655738" stop-color="#768DFF"/><stop offset="0.663934" stop-color="#748DFF"/><stop offset="0.672131" stop-color="#738EFF"/><stop offset="0.680328" stop-color="#728EFF"/><stop offset="0.688525" stop-color="#708FFF"/><stop offset="0.696721" stop-color="#6F8FFF"/><stop offset="0.704918" stop-color="#6E90FF"/><stop offset="0.713115" stop-color="#6C90FF"/><stop offset="0.721311" stop-color="#6B91FF"/><stop offset="0.729508" stop-color="#6991FF"/><stop offset="0.737705" stop-color="#6892FF"/><stop offset="0.745902" stop-color="#6792FF"/><stop offset="0.754098" stop-color="#6592FF"/><stop offset="0.762295" stop-color="#6493FF"/><stop offset="0.770492" stop-color="#6293FF"/><stop offset="0.778689" stop-color="#6193FF"/><stop offset="0.786885" stop-color="#5F94FF"/><stop offset="0.795082" stop-color="#5D94FF"/><stop offset="0.803279" stop-color="#5C94FF"/><stop offset="0.811475" stop-color="#5A95FF"/><stop offset="0.819672" stop-color="#5995FF"/><stop offset="0.827869" stop-color="#5795FF"/><stop offset="0.836066" stop-color="#5696FF"/><stop offset="0.844262" stop-color="#5496FF"/><stop offset="0.852459" stop-color="#5296FF"/><stop offset="0.860656" stop-color="#5196FF"/><stop offset="0.868852" stop-color="#4F97FF"/><stop offset="0.877049" stop-color="#4D97FF"/><stop offset="0.885246" stop-color="#4C97FF"/><stop offset="0.893443" stop-color="#4A97FF"/><stop offset="0.901639" stop-color="#4897FF"/><stop offset="0.909836" stop-color="#4698FF"/><stop offset="0.918033" stop-color="#4598FF"/><stop offset="0.92623" stop-color="#4398FF"/><stop offset="0.934426" stop-color="#4198FF"/><stop offset="0.942623" stop-color="#3F98FF"/><stop offset="0.95082" stop-color="#3E98FF"/><stop offset="0.959016" stop-color="#3C98FF"/><stop offset="0.967213" stop-color="#3A98FF"/><stop offset="0.97541" stop-color="#3898FF"/><stop offset="0.983607" stop-color="#3698FF"/><stop offset="0.991803" stop-color="#3498FF"/><stop offset="1" stop-color="#3399FF"/></linearGradient></defs><g clip-path="url(#clip0)" transform="translate(-62 -761)"><path d="M228.443 761 527.706 761 3429.54 761 3900.29 761C4157.5 761 4366 974.336 4366 1237.5L4366 1237.5C4366 1500.66 4157.5 1714 3900.29 1714L527.706 1714 228.443 1714C136.519 1714 61.9999 1637.75 61.9999 1543.7L61.9999 1237.5 61.9999 1237.5 61.9999 931.301C61.9999 837.247 136.519 761 228.443 761Z" fill="#002060" fill-rule="evenodd"/><path d="M4191.3 1449.96C4177.59 1449.96 4166.47 1461.06 4166.47 1474.75 4166.47 1488.45 4177.59 1499.55 4191.3 1499.55 4205.02 1499.55 4216.13 1488.45 4216.13 1474.75 4216.13 1461.06 4205.02 1449.96 4191.3 1449.96ZM3923.5 1134.24C3980.63 1134.24 4026.94 1180.48 4026.94 1237.53 4026.94 1294.58 3980.63 1340.82 3923.5 1340.82L3923.01 1340.78 3923.01 1340.63 3923 1340.63 3923 1300.69 3923.01 1300.69 3923.01 1174.31 3923 1174.31 3923 1134.37 3923.01 1134.37 3923.01 1134.29ZM3923 1005.31C4003.26 1005.31 4074.01 1045.92 4115.8 1107.68L4118.5 1112.65 4124.1 1111.52C4141.47 1111.52 4155.55 1125.58 4155.55 1142.93 4155.55 1151.6 4152.03 1159.46 4146.34 1165.14L4143.44 1167.09 4150.78 1190.71C4153.88 1205.82 4155.5 1221.47 4155.5 1237.5 4155.5 1365.73 4051.41 1469.69 3923 1469.69L3923 1449.19C4040.07 1449.19 4134.97 1354.41 4134.97 1237.5 4134.97 1222.89 4133.49 1208.62 4130.67 1194.84L4124.28 1174.3 4124.1 1174.34C4106.73 1174.34 4092.65 1160.28 4092.65 1142.93 4092.65 1138.59 4093.53 1134.46 4095.12 1130.7L4100.62 1122.55 4098.77 1119.15C4060.68 1062.84 3996.17 1025.81 3923 1025.81ZM3923 869C4126.79 869 4292 1033.98 4292 1237.5 4292 1313.82 4268.77 1384.72 4228.98 1443.53L4225.8 1447.78 4232.32 1457.45C4234.58 1462.77 4235.82 1468.62 4235.82 1474.75 4235.82 1499.31 4215.89 1519.21 4191.3 1519.21 4185.16 1519.21 4179.3 1517.97 4173.97 1515.72L4168.52 1512.05 4157.72 1521.85C4093.93 1574.42 4012.16 1606 3923 1606L3923 1584.05C3994.87 1584.05 4061.64 1562.23 4117.02 1524.87L4152.63 1495.53 4150.28 1492.06C4148.03 1486.74 4146.78 1480.89 4146.78 1474.75 4146.78 1450.2 4166.71 1430.3 4191.3 1430.3 4197.45 1430.3 4203.3 1431.54 4208.63 1433.79L4208.65 1433.8 4210.76 1431.26C4248.17 1375.95 4270.02 1309.27 4270.02 1237.5 4270.02 1046.1 4114.65 890.948 3923 890.948Z" fill="#FFFFFF" fill-rule="evenodd"/><path d="M3424.84 1061.96C3376.32 1061.96 3334.83 1079.18 3300.4 1113.62 3265.7 1148.07 3248.35 1189.55 3248.35 1238.09 3248.35 1246.7 3248.87 1255.18 3249.92 1263.53 3251.48 1275.27 3254.48 1286.88 3258.92 1298.36 3294.4 1282.18 3348.01 1257.92 3419.75 1225.56 3490.45 1193.73 3544.07 1169.59 3580.59 1153.15 3573.81 1142.19 3566.76 1132.67 3559.46 1124.58 3523.98 1082.83 3479.1 1061.96 3424.84 1061.96ZM2743.96 1061.96C2695.43 1061.96 2653.95 1079.18 2619.52 1113.62 2584.82 1148.07 2567.47 1189.55 2567.47 1238.09 2567.47 1286.62 2584.82 1328.11 2619.52 1362.55 2653.95 1396.99 2695.43 1414.22 2743.96 1414.22 2792.48 1414.22 2833.97 1396.99 2868.4 1362.55 2903.1 1328.11 2920.45 1286.62 2920.45 1238.09 2920.45 1189.55 2903.1 1148.07 2868.4 1113.62 2833.97 1079.18 2792.48 1061.96 2743.96 1061.96ZM1304.4 1061.96C1255.88 1061.96 1214.4 1079.18 1179.96 1113.62 1145.26 1148.07 1127.91 1189.55 1127.91 1238.09 1127.91 1246.7 1128.44 1255.18 1129.48 1263.53 1131.04 1275.27 1134.04 1286.88 1138.48 1298.36 1173.96 1282.18 1227.57 1257.92 1299.32 1225.56 1370.02 1193.73 1423.63 1169.59 1460.15 1153.15 1453.37 1142.19 1446.33 1132.67 1439.02 1124.58 1403.54 1082.83 1358.67 1061.96 1304.4 1061.96ZM2161.72 1060.39C2113.19 1060.39 2071.71 1077.61 2037.27 1112.06 2002.57 1146.5 1985.23 1187.99 1985.23 1236.52 1985.23 1285.32 2002.57 1326.93 2037.27 1361.38 2071.71 1395.82 2113.19 1413.04 2161.72 1413.04 2210.24 1413.04 2251.72 1395.82 2286.16 1361.38 2320.59 1326.93 2337.81 1285.32 2337.81 1236.52 2337.81 1187.99 2320.59 1146.5 2286.16 1112.06 2251.72 1077.61 2210.24 1060.39 2161.72 1060.39ZM2161.72 1039.26C2216.5 1039.26 2263.2 1058.57 2301.81 1097.18 2340.68 1136.06 2360.12 1182.9 2360.12 1237.7 2360.12 1292.23 2340.68 1338.94 2301.81 1377.82 2263.2 1416.69 2216.5 1436.13 2161.72 1436.13 2111.36 1436.13 2067.54 1419.56 2030.23 1386.43 2015.1 1372.86 2000.1 1353.55 1985.23 1328.5L1985.23 1595.04C1985.23 1602.35 1981.7 1606 1974.66 1606L1973.88 1606C1966.83 1606 1963.31 1602.35 1963.31 1595.04L1963.31 1237.7C1963.57 1182.64 1983.01 1135.8 2021.62 1097.18 2060.49 1058.57 2107.19 1039.26 2161.72 1039.26ZM3826.56 1038.47 3850.43 1038.47C3857.48 1038.47 3861 1042.13 3861 1049.43 3861 1057.26 3857.48 1061.18 3850.43 1061.18L3826.56 1061.18C3793.17 1061.18 3764.86 1072.66 3741.64 1095.62 3718.43 1118.84 3706.56 1147.41 3706.03 1181.33L3706.03 1424.78C3706.03 1431.83 3702.51 1435.35 3695.47 1435.35L3694.29 1435.35C3687.51 1435.35 3684.12 1431.83 3684.12 1424.78L3684.12 1181.33C3684.38 1141.41 3698.34 1107.62 3725.99 1079.96 3753.38 1052.3 3786.91 1038.47 3826.56 1038.47ZM3424.84 1038.47C3463.45 1038.47 3499.06 1049.04 3531.67 1070.18 3564.28 1091.05 3588.68 1119.1 3604.85 1154.33 3606.16 1157.2 3606.42 1159.81 3605.63 1162.16 3604.59 1165.29 3602.9 1167.37 3600.55 1168.42 3564.54 1184.34 3513.67 1207.17 3447.93 1236.91 3381.14 1267.18 3330.53 1290.01 3296.09 1305.41 3292.44 1306.97 3287.75 1309.19 3282.01 1312.06 3276.01 1314.67 3271.18 1316.76 3267.53 1318.32 3272.22 1328.76 3278.35 1338.28 3285.92 1346.9 3321.4 1391.78 3367.71 1414.22 3424.84 1414.22 3462.15 1414.22 3496.06 1403.26 3526.59 1381.34 3557.11 1359.68 3578.63 1331.24 3591.16 1296.01 3592.72 1291.06 3596.37 1288.58 3602.11 1288.58 3605.76 1288.58 3608.5 1290.01 3610.33 1292.88 3612.68 1296.01 3613.2 1299.41 3611.9 1303.06 3598.07 1342.46 3573.94 1374.42 3539.5 1398.95 3505.06 1423.22 3466.84 1435.35 3424.84 1435.35 3370.05 1435.35 3323.36 1415.91 3284.74 1377.03 3245.87 1338.42 3226.44 1291.71 3226.44 1236.91 3226.44 1182.12 3245.87 1135.41 3284.74 1096.79 3323.36 1057.91 3370.05 1038.47 3424.84 1038.47ZM3151.78 1038.47 3175.65 1038.47C3182.69 1038.47 3186.22 1042.13 3186.22 1049.43 3186.22 1057.26 3182.69 1061.18 3175.65 1061.18L3151.78 1061.18C3118.39 1061.18 3090.08 1072.66 3066.86 1095.62 3043.64 1118.84 3031.77 1147.41 3031.25 1181.33L3031.25 1424.78C3031.25 1431.83 3027.73 1435.35 3020.68 1435.35L3019.51 1435.35C3012.73 1435.35 3009.34 1431.83 3009.34 1424.78L3009.34 1181.33C3009.6 1141.41 3023.55 1107.62 3051.21 1079.96 3078.6 1052.3 3112.12 1038.47 3151.78 1038.47ZM2743.96 1038.47C2798.75 1038.47 2845.44 1057.91 2884.06 1096.79 2922.93 1135.41 2942.36 1182.12 2942.36 1236.91 2942.36 1291.71 2922.93 1338.42 2884.06 1377.03 2845.44 1415.91 2798.75 1435.35 2743.96 1435.35 2689.17 1435.35 2642.48 1415.91 2603.86 1377.03 2564.99 1338.42 2545.56 1291.71 2545.56 1236.91 2545.56 1182.12 2564.99 1135.41 2603.86 1096.79 2642.48 1057.91 2689.17 1038.47 2743.96 1038.47ZM1574.64 1038.47C1581.94 1038.47 1585.6 1042.13 1585.6 1049.43L1585.6 1085.83C1585.6 1123.93 1599.16 1156.42 1626.3 1183.29 1653.17 1210.17 1685.65 1223.61 1723.74 1223.61 1761.83 1223.61 1794.44 1210.17 1821.57 1183.29 1848.7 1156.42 1862.27 1123.93 1862.27 1085.83L1862.27 1049.43C1862.27 1042.13 1865.66 1038.47 1872.44 1038.47 1880.27 1038.47 1884.18 1042.13 1884.18 1049.43L1884.18 1085.83C1884.18 1138.54 1863.05 1181.07 1820.79 1213.43 1810.87 1221.26 1795.74 1228.43 1775.39 1234.96 1796 1242 1811.13 1249.18 1820.79 1256.48 1863.05 1288.84 1884.18 1331.5 1884.18 1384.47L1884.18 1424.78C1884.18 1431.83 1880.66 1435.35 1873.61 1435.35L1872.44 1435.35C1865.66 1435.35 1862.27 1431.83 1862.27 1424.78L1862.27 1384.47C1862.27 1346.11 1848.7 1313.5 1821.57 1286.62 1794.44 1259.48 1761.83 1245.92 1723.74 1245.92 1685.65 1245.92 1653.17 1259.48 1626.3 1286.62 1599.16 1313.5 1585.6 1346.11 1585.6 1384.47L1585.6 1424.78C1585.6 1431.83 1582.2 1435.35 1575.42 1435.35 1567.6 1435.35 1563.68 1431.83 1563.68 1424.78L1563.68 1384.47C1563.68 1331.24 1584.81 1288.58 1627.08 1256.48 1639.08 1247.35 1654.47 1240.17 1673.25 1234.96 1651.86 1227.65 1636.47 1220.47 1627.08 1213.43 1584.81 1181.33 1563.68 1138.8 1563.68 1085.83L1563.68 1049.43C1563.68 1042.13 1567.33 1038.47 1574.64 1038.47ZM1304.4 1038.47C1343.01 1038.47 1378.63 1049.04 1411.24 1070.18 1443.85 1091.05 1468.24 1119.1 1484.42 1154.33 1485.72 1157.2 1485.98 1159.81 1485.2 1162.16 1484.15 1165.29 1482.46 1167.37 1480.11 1168.42 1444.11 1184.34 1393.24 1207.17 1327.49 1236.91 1260.71 1267.18 1210.09 1290.01 1175.66 1305.41 1172 1306.97 1167.31 1309.19 1161.57 1312.06 1155.57 1314.67 1150.74 1316.76 1147.09 1318.32 1151.79 1328.76 1157.92 1338.28 1165.48 1346.9 1200.96 1391.78 1247.27 1414.22 1304.4 1414.22 1341.71 1414.22 1375.63 1403.26 1406.15 1381.34 1436.67 1359.68 1458.2 1331.24 1470.72 1296.01 1472.28 1291.06 1475.94 1288.58 1481.68 1288.58 1485.33 1288.58 1488.07 1290.01 1489.89 1292.88 1492.24 1296.01 1492.76 1299.41 1491.46 1303.06 1477.63 1342.46 1453.5 1374.42 1419.06 1398.95 1384.63 1423.22 1346.41 1435.35 1304.4 1435.35 1249.62 1435.35 1202.92 1415.91 1164.31 1377.03 1125.44 1338.42 1106 1291.71 1106 1236.91 1106 1182.12 1125.44 1135.41 1164.31 1096.79 1202.92 1057.91 1249.62 1038.47 1304.4 1038.47ZM2452.88 869C2460.19 869 2463.84 872.522 2463.84 879.568L2463.84 1424.78C2463.84 1431.83 2460.45 1435.35 2453.66 1435.35 2445.84 1435.35 2441.92 1431.83 2441.92 1424.78L2441.92 879.568C2441.92 872.522 2445.58 869 2452.88 869Z" fill="#FFFFFF" fill-rule="evenodd"/><path d="M383.022 1482.28C370.24 1482.28 359.827 1492.67 359.827 1505.44 359.843 1518.24 370.24 1528.62 383.022 1528.62 395.812 1528.62 406.234 1518.23 406.234 1505.44 406.234 1492.67 395.828 1482.28 383.022 1482.28ZM297.154 1294.82C284.36 1294.82 273.951 1305.21 273.951 1318.01 273.951 1330.77 284.36 1341.18 297.154 1341.18 309.972 1341.18 320.374 1330.78 320.374 1318.01 320.374 1305.23 309.965 1294.82 297.154 1294.82ZM391.168 1192.74C378.374 1192.74 367.965 1203.14 367.965 1215.93 367.965 1228.71 378.382 1239.1 391.168 1239.1 403.962 1239.1 414.388 1228.7 414.388 1215.93 414.388 1203.15 403.978 1192.74 391.168 1192.74ZM251.882 1036.36C239.068 1036.37 228.67 1046.76 228.67 1059.52 228.67 1072.29 239.075 1082.7 251.882 1082.7 264.671 1082.7 275.077 1072.31 275.077 1059.52 275.077 1046.76 264.671 1036.36 251.882 1036.36ZM383.022 942.473C370.24 942.473 359.843 952.856 359.827 965.652 359.827 978.424 370.24 988.814 383.022 988.814 395.828 988.814 406.234 978.424 406.234 965.652 406.234 952.864 395.812 942.473 383.022 942.473ZM371.486 893.203 367.516 893.615C332.12 901.061 305.418 933.25 305.418 971.694 305.418 972.995 305.523 974.296 305.603 975.574 305.708 977.108 305.434 978.683 304.96 980.193 310.335 1017.2 341.452 1045.7 379.03 1045.7 385.402 1045.7 390.567 1050.85 390.567 1057.22 390.567 1063.59 385.394 1068.74 379.03 1068.74 330.743 1068.74 290.583 1032.95 282.546 986.075 276.061 984.3 269.505 983.103 262.916 983.103 225.404 983.103 194.013 1010.49 186.751 1046.77L186.629 1048 207.208 1048C212.37 1028.1 230.355 1013.3 251.883 1013.3 277.414 1013.3 298.169 1034.03 298.169 1059.52 298.169 1085.01 277.406 1105.75 251.883 1105.75 230.37 1105.75 212.395 1090.96 207.224 1071.06L185.688 1071.06 185.828 1073.28C188.885 1097.36 202.417 1118.54 223.317 1131.27 223.567 1131.44 223.72 1131.66 223.961 1131.84 269.472 1140.46 304.058 1181.15 304.058 1229.96 304.058 1236.33 298.885 1241.48 292.521 1241.48 286.15 1241.48 280.985 1236.33 280.985 1229.96 280.985 1187.59 247.357 1153.12 206.022 1153.12 196.135 1153.12 186.723 1155.13 178.074 1158.72 150.448 1170.96 131.051 1199.14 131.051 1231.9 131.051 1275.82 165.927 1311.57 208.798 1311.57 210.882 1311.57 212.933 1311.44 214.961 1311.26 220.279 1310.67 225.17 1314.02 226.876 1319.04 228.581 1324.06 226.626 1329.62 222.137 1332.45 199.619 1346.73 186.031 1371.13 185.315 1398 185.556 1398.93 185.894 1399.83 185.894 1400.83 185.894 1443.22 219.522 1477.7 260.857 1477.7 302.191 1477.7 335.819 1443.22 335.819 1400.83 335.819 1394.46 340.992 1389.31 347.356 1389.31 353.728 1389.31 358.892 1394.46 358.892 1400.83 358.892 1438.21 338.627 1470.8 308.747 1487.93 308.168 1489.8 307.645 1491.4 307.186 1492.75 305.803 1496.86 305.433 1497.98 305.433 1503.25 305.433 1541.71 332.128 1573.89 367.528 1581.33L371.486 1581.74 371.486 1550.05C351.56 1544.9 336.734 1526.94 336.734 1505.44 336.734 1479.95 357.497 1459.22 383.02 1459.22 408.551 1459.22 429.322 1479.95 429.322 1505.44 429.322 1526.92 414.51 1544.87 394.576 1550.04L394.576 1581.77 398.832 1581.33C434.233 1573.89 460.935 1541.7 460.935 1503.25L460.928 1503.26 460.926 1329.53 341.844 1329.53C336.671 1349.43 318.696 1364.24 297.169 1364.24 271.629 1364.24 250.868 1343.5 250.868 1318 250.868 1292.5 271.637 1271.75 297.169 1271.75 318.698 1271.75 336.679 1286.56 341.844 1306.46L379.621 1306.46 379.621 1260.53C359.688 1255.38 344.857 1237.43 344.857 1215.93 344.857 1190.43 365.626 1169.68 391.158 1169.68 416.699 1169.68 437.476 1190.43 437.476 1215.93 437.476 1237.42 422.644 1255.38 402.719 1260.53L402.719 1306.46 460.926 1306.46 460.921 978.417C460.921 938.14 433.097 902.179 398.397 893.818L394.576 893.36 394.576 921.058C414.51 926.222 429.322 944.171 429.322 965.653 429.322 991.141 408.551 1011.87 383.02 1011.87 357.497 1011.87 336.734 991.148 336.734 965.653 336.734 944.157 351.56 926.197 371.486 921.042ZM379.045 869C379.326 869 379.576 869.153 379.849 869.161 380.967 869.128 382.053 869 383.18 869L383.18 869.006C436.888 869.006 484 920.156 483.992 978.465L483.997 1306.46 483.999 1306.46 483.999 1329.53 483.997 1329.53 484 1503.27C484 1559.92 438.763 1606 383.172 1606 327.581 1606 282.36 1559.92 282.36 1503.27 282.36 1502.48 282.376 1501.73 282.384 1501.02 276.005 1502.29 269.504 1502.93 262.915 1502.93 207.325 1502.93 162.104 1456.85 162.104 1400.22 162.104 1374.72 171.226 1350.77 187.325 1332.28 142.023 1322.23 108 1281.06 108 1231.93 108 1231.39 108.072 1230.86 108.072 1230.33 108.072 1230.22 108 1230.12 108 1229.99 108 1188.01 133.583 1152.06 169.681 1137.32 175.497 1134.8 181.563 1132.78 187.87 1131.42 171.426 1112.88 162.118 1088.74 162.118 1062.83 162.118 1006.18 207.339 960.102 262.93 960.102 269.1 960.102 275.247 960.745 281.345 961.933 284.885 910.091 327.291 869 379.045 869Z" fill="url(#fill1)" fill-rule="evenodd"/><path d="M729.688 890.904C687.648 890.904 651.744 905.768 621.977 935.496 591.948 965.485 576.934 1001.47 576.934 1043.45L576.934 1178.79 881.659 1178.79 881.659 1043.45C881.659 1001.47 866.775 965.485 837.008 935.496 807.24 905.768 771.467 890.904 729.688 890.904ZM1010.03 869C1017.34 869 1021 872.52 1021 879.561L1021 1424.44C1021 1431.48 1017.61 1435 1010.82 1435 1002.98 1435 999.066 1431.48 999.066 1424.44L999.066 879.561C999.066 872.52 1002.72 869 1010.03 869ZM729.688 869C777.734 869 818.729 885.95 852.675 919.85 886.881 954.011 903.984 995.212 903.984 1043.45L903.984 1424.44C903.984 1431.48 900.198 1435 892.626 1435 885.314 1435 881.659 1431.48 881.659 1424.44L881.659 1201.09 576.934 1201.09 576.934 1424.44C576.934 1431.48 573.54 1435 566.75 1435 558.917 1435 555 1431.48 555 1424.44L555 1043.45C555 995.212 572.103 954.011 606.31 919.85 640.516 885.95 681.643 869 729.688 869Z" fill="url(#fill2)" fill-rule="evenodd"/></g></svg>