<svg width="3950" height="527" xmlns="http://www.w3.org/2000/svg" xmlns:xlink="http://www.w3.org/1999/xlink" xml:space="preserve" overflow="hidden"><defs><clipPath id="clip0"><rect x="225" y="974" width="3950" height="527"/></clipPath><linearGradient x1="551" y1="975" x2="551" y2="1501" gradientUnits="userSpaceOnUse" spreadMethod="reflect" id="fill1"><stop offset="0" stop-color="#AE43FF"/><stop offset="0.00819672" stop-color="#AD44FF"/><stop offset="0.0163934" stop-color="#AD45FF"/><stop offset="0.0245902" stop-color="#AD46FF"/><stop offset="0.0327869" stop-color="#AD48FF"/><stop offset="0.0409836" stop-color="#AD49FF"/><stop offset="0.0491803" stop-color="#AD4AFF"/><stop offset="0.057377" stop-color="#AD4CFF"/><stop offset="0.0655738" stop-color="#AD4DFF"/><stop offset="0.0737705" stop-color="#AD4EFF"/><stop offset="0.0819672" stop-color="#AC4FFF"/><stop offset="0.0901639" stop-color="#AC50FF"/><stop offset="0.0983607" stop-color="#AC52FF"/><stop offset="0.106557" stop-color="#AC53FF"/><stop offset="0.114754" stop-color="#AB54FF"/><stop offset="0.122951" stop-color="#AB55FF"/><stop offset="0.131148" stop-color="#AB56FF"/><stop offset="0.139344" stop-color="#AA58FF"/><stop offset="0.147541" stop-color="#AA59FF"/><stop offset="0.155738" stop-color="#AA5AFF"/><stop offset="0.163934" stop-color="#A95BFF"/><stop offset="0.172131" stop-color="#A95CFF"/><stop offset="0.180328" stop-color="#A95DFF"/><stop offset="0.188525" stop-color="#A85EFF"/><stop offset="0.196721" stop-color="#A85FFF"/><stop offset="0.204918" stop-color="#A761FF"/><stop offset="0.213115" stop-color="#A762FF"/><stop offset="0.221311" stop-color="#A663FF"/><stop offset="0.229508" stop-color="#A664FF"/><stop offset="0.237705" stop-color="#A565FF"/><stop offset="0.245902" stop-color="#A566FF"/><stop offset="0.254098" stop-color="#A467FF"/><stop offset="0.262295" stop-color="#A368FF"/><stop offset="0.270492" stop-color="#A369FF"/><stop offset="0.278689" stop-color="#A26AFF"/><stop offset="0.286885" stop-color="#A26BFF"/><stop offset="0.295082" stop-color="#A16CFF"/><stop offset="0.303279" stop-color="#A06DFF"/><stop offset="0.311475" stop-color="#A06EFF"/><stop offset="0.319672" stop-color="#9F6FFF"/><stop offset="0.327869" stop-color="#9E70FF"/><stop offset="0.336066" stop-color="#9E71FF"/><stop offset="0.344262" stop-color="#9D72FF"/><stop offset="0.352459" stop-color="#9C72FF"/><stop offset="0.360656" stop-color="#9B73FF"/><stop offset="0.368852" stop-color="#9B74FF"/><stop offset="0.377049" stop-color="#9A75FF"/><stop offset="0.385246" stop-color="#9976FF"/><stop offset="0.393443" stop-color="#9877FF"/><stop offset="0.401639" stop-color="#9778FF"/><stop offset="0.409836" stop-color="#9679FF"/><stop offset="0.418033" stop-color="#9679FF"/><stop offset="0.42623" stop-color="#957AFF"/><stop offset="0.434426" stop-color="#947BFF"/><stop offset="0.442623" stop-color="#937CFF"/><stop offset="0.45082" stop-color="#927DFF"/><stop offset="0.459016" stop-color="#917DFF"/><stop offset="0.467213" stop-color="#907EFF"/><stop offset="0.47541" stop-color="#8F7FFF"/><stop offset="0.483607" stop-color="#8E80FF"/><stop offset="0.491803" stop-color="#8D80FF"/><stop offset="0.5" stop-color="#8C81FF"/><stop offset="0.508197" stop-color="#8B82FF"/><stop offset="0.516393" stop-color="#8A82FF"/><stop offset="0.52459" stop-color="#8983FF"/><stop offset="0.532787" stop-color="#8884FF"/><stop offset="0.540984" stop-color="#8785FF"/><stop offset="0.54918" stop-color="#8685FF"/><stop offset="0.557377" stop-color="#8486FF"/><stop offset="0.565574" stop-color="#8386FF"/><stop offset="0.57377" stop-color="#8287FF"/><stop offset="0.581967" stop-color="#8188FF"/><stop offset="0.590164" stop-color="#8088FF"/><stop offset="0.598361" stop-color="#7F89FF"/><stop offset="0.606557" stop-color="#7D8AFF"/><stop offset="0.614754" stop-color="#7C8AFF"/><stop offset="0.622951" stop-color="#7B8BFF"/><stop offset="0.631148" stop-color="#7A8BFF"/><stop offset="0.639344" stop-color="#788CFF"/><stop offset="0.647541" stop-color="#778CFF"/><stop offset="0.655738" stop-color="#768DFF"/><stop offset="0.663934" stop-color="#748DFF"/><stop offset="0.672131" stop-color="#738EFF"/><stop offset="0.680328" stop-color="#728EFF"/><stop offset="0.688525" stop-color="#708FFF"/><stop offset="0.696721" stop-color="#6F8FFF"/><stop offset="0.704918" stop-color="#6E90FF"/><stop offset="0.713115" stop-color="#6C90FF"/><stop offset="0.721311" stop-color="#6B91FF"/><stop offset="0.729508" stop-color="#6991FF"/><stop offset="0.737705" stop-color="#6892FF"/><stop offset="0.745902" stop-color="#6792FF"/><stop offset="0.754098" stop-color="#6592FF"/><stop offset="0.762295" stop-color="#6493FF"/><stop offset="0.770492" stop-color="#6293FF"/><stop offset="0.778689" stop-color="#6193FF"/><stop offset="0.786885" stop-color="#5F94FF"/><stop offset="0.795082" stop-color="#5D94FF"/><stop offset="0.803279" stop-color="#5C94FF"/><stop offset="0.811475" stop-color="#5A95FF"/><stop offset="0.819672" stop-color="#5995FF"/><stop offset="0.827869" stop-color="#5795FF"/><stop offset="0.836066" stop-color="#5696FF"/><stop offset="0.844262" stop-color="#5496FF"/><stop offset="0.852459" stop-color="#5296FF"/><stop offset="0.860656" stop-color="#5196FF"/><stop offset="0.868852" stop-color="#4F97FF"/><stop offset="0.877049" stop-color="#4D97FF"/><stop offset="0.885246" stop-color="#4C97FF"/><stop offset="0.893443" stop-color="#4A97FF"/><stop offset="0.901639" stop-color="#4897FF"/><stop offset="0.909836" stop-color="#4698FF"/><stop offset="0.918033" stop-color="#4598FF"/><stop offset="0.92623" stop-color="#4398FF"/><stop offset="0.934426" stop-color="#4198FF"/><stop offset="0.942623" stop-color="#3F98FF"/><stop offset="0.95082" stop-color="#3E98FF"/><stop offset="0.959016" stop-color="#3C98FF"/><stop offset="0.967213" stop-color="#3A98FF"/><stop offset="0.97541" stop-color="#3898FF"/><stop offset="0.983607" stop-color="#3698FF"/><stop offset="0.991803" stop-color="#3498FF"/><stop offset="1" stop-color="#3399FF"/></linearGradient><linearGradient x1="551" y1="975" x2="551" y2="1501" gradientUnits="userSpaceOnUse" spreadMethod="reflect" id="fill2"><stop offset="0" stop-color="#AE43FF"/><stop offset="0.00819672" stop-color="#AD44FF"/><stop offset="0.0163934" stop-color="#AD45FF"/><stop offset="0.0245902" stop-color="#AD46FF"/><stop offset="0.0327869" stop-color="#AD48FF"/><stop offset="0.0409836" stop-color="#AD49FF"/><stop offset="0.0491803" stop-color="#AD4AFF"/><stop offset="0.057377" stop-color="#AD4CFF"/><stop offset="0.0655738" stop-color="#AD4DFF"/><stop offset="0.0737705" stop-color="#AD4EFF"/><stop offset="0.0819672" stop-color="#AC4FFF"/><stop offset="0.0901639" stop-color="#AC50FF"/><stop offset="0.0983607" stop-color="#AC52FF"/><stop offset="0.106557" stop-color="#AC53FF"/><stop offset="0.114754" stop-color="#AB54FF"/><stop offset="0.122951" stop-color="#AB55FF"/><stop offset="0.131148" stop-color="#AB56FF"/><stop offset="0.139344" stop-color="#AA58FF"/><stop offset="0.147541" stop-color="#AA59FF"/><stop offset="0.155738" stop-color="#AA5AFF"/><stop offset="0.163934" stop-color="#A95BFF"/><stop offset="0.172131" stop-color="#A95CFF"/><stop offset="0.180328" stop-color="#A95DFF"/><stop offset="0.188525" stop-color="#A85EFF"/><stop offset="0.196721" stop-color="#A85FFF"/><stop offset="0.204918" stop-color="#A761FF"/><stop offset="0.213115" stop-color="#A762FF"/><stop offset="0.221311" stop-color="#A663FF"/><stop offset="0.229508" stop-color="#A664FF"/><stop offset="0.237705" stop-color="#A565FF"/><stop offset="0.245902" stop-color="#A566FF"/><stop offset="0.254098" stop-color="#A467FF"/><stop offset="0.262295" stop-color="#A368FF"/><stop offset="0.270492" stop-color="#A369FF"/><stop offset="0.278689" stop-color="#A26AFF"/><stop offset="0.286885" stop-color="#A26BFF"/><stop offset="0.295082" stop-color="#A16CFF"/><stop offset="0.303279" stop-color="#A06DFF"/><stop offset="0.311475" stop-color="#A06EFF"/><stop offset="0.319672" stop-color="#9F6FFF"/><stop offset="0.327869" stop-color="#9E70FF"/><stop offset="0.336066" stop-color="#9E71FF"/><stop offset="0.344262" stop-color="#9D72FF"/><stop offset="0.352459" stop-color="#9C72FF"/><stop offset="0.360656" stop-color="#9B73FF"/><stop offset="0.368852" stop-color="#9B74FF"/><stop offset="0.377049" stop-color="#9A75FF"/><stop offset="0.385246" stop-color="#9976FF"/><stop offset="0.393443" stop-color="#9877FF"/><stop offset="0.401639" stop-color="#9778FF"/><stop offset="0.409836" stop-color="#9679FF"/><stop offset="0.418033" stop-color="#9679FF"/><stop offset="0.42623" stop-color="#957AFF"/><stop offset="0.434426" stop-color="#947BFF"/><stop offset="0.442623" stop-color="#937CFF"/><stop offset="0.45082" stop-color="#927DFF"/><stop offset="0.459016" stop-color="#917DFF"/><stop offset="0.467213" stop-color="#907EFF"/><stop offset="0.47541" stop-color="#8F7FFF"/><stop offset="0.483607" stop-color="#8E80FF"/><stop offset="0.491803" stop-color="#8D80FF"/><stop offset="0.5" stop-color="#8C81FF"/><stop offset="0.508197" stop-color="#8B82FF"/><stop offset="0.516393" stop-color="#8A82FF"/><stop offset="0.52459" stop-color="#8983FF"/><stop offset="0.532787" stop-color="#8884FF"/><stop offset="0.540984" stop-color="#8785FF"/><stop offset="0.54918" stop-color="#8685FF"/><stop offset="0.557377" stop-color="#8486FF"/><stop offset="0.565574" stop-color="#8386FF"/><stop offset="0.57377" stop-color="#8287FF"/><stop offset="0.581967" stop-color="#8188FF"/><stop offset="0.590164" stop-color="#8088FF"/><stop offset="0.598361" stop-color="#7F89FF"/><stop offset="0.606557" stop-color="#7D8AFF"/><stop offset="0.614754" stop-color="#7C8AFF"/><stop offset="0.622951" stop-color="#7B8BFF"/><stop offset="0.631148" stop-color="#7A8BFF"/><stop offset="0.639344" stop-color="#788CFF"/><stop offset="0.647541" stop-color="#778CFF"/><stop offset="0.655738" stop-color="#768DFF"/><stop offset="0.663934" stop-color="#748DFF"/><stop offset="0.672131" stop-color="#738EFF"/><stop offset="0.680328" stop-color="#728EFF"/><stop offset="0.688525" stop-color="#708FFF"/><stop offset="0.696721" stop-color="#6F8FFF"/><stop offset="0.704918" stop-color="#6E90FF"/><stop offset="0.713115" stop-color="#6C90FF"/><stop offset="0.721311" stop-color="#6B91FF"/><stop offset="0.729508" stop-color="#6991FF"/><stop offset="0.737705" stop-color="#6892FF"/><stop offset="0.745902" stop-color="#6792FF"/><stop offset="0.754098" stop-color="#6592FF"/><stop offset="0.762295" stop-color="#6493FF"/><stop offset="0.770492" stop-color="#6293FF"/><stop offset="0.778689" stop-color="#6193FF"/><stop offset="0.786885" stop-color="#5F94FF"/><stop offset="0.795082" stop-color="#5D94FF"/><stop offset="0.803279" stop-color="#5C94FF"/><stop offset="0.811475" stop-color="#5A95FF"/><stop offset="0.819672" stop-color="#5995FF"/><stop offset="0.827869" stop-color="#5795FF"/><stop offset="0.836066" stop-color="#5696FF"/><stop offset="0.844262" stop-color="#5496FF"/><stop offset="0.852459" stop-color="#5296FF"/><stop offset="0.860656" stop-color="#5196FF"/><stop offset="0.868852" stop-color="#4F97FF"/><stop offset="0.877049" stop-color="#4D97FF"/><stop offset="0.885246" stop-color="#4C97FF"/><stop offset="0.893443" stop-color="#4A97FF"/><stop offset="0.901639" stop-color="#4897FF"/><stop offset="0.909836" stop-color="#4698FF"/><stop offset="0.918033" stop-color="#4598FF"/><stop offset="0.92623" stop-color="#4398FF"/><stop offset="0.934426" stop-color="#4198FF"/><stop offset="0.942623" stop-color="#3F98FF"/><stop offset="0.95082" stop-color="#3E98FF"/><stop offset="0.959016" stop-color="#3C98FF"/><stop offset="0.967213" stop-color="#3A98FF"/><stop offset="0.97541" stop-color="#3898FF"/><stop offset="0.983607" stop-color="#3698FF"/><stop offset="0.991803" stop-color="#3498FF"/><stop offset="1" stop-color="#3399FF"/></linearGradient></defs><g clip-path="url(#clip0)" transform="translate(-225 -974)"><path d="M3090.84 1111.98C3056.09 1111.98 3026.38 1124.29 3001.71 1148.92 2976.86 1173.55 2964.44 1203.22 2964.44 1237.92 2964.44 1244.08 2964.81 1250.14 2965.56 1256.11 2966.68 1264.51 2968.83 1272.81 2972.01 1281.02 2997.42 1269.45 3035.82 1252.1 3087.2 1228.96 3137.84 1206.2 3176.23 1188.94 3202.39 1177.19 3197.54 1169.35 3192.49 1162.54 3187.26 1156.76 3161.85 1126.9 3129.71 1111.98 3090.84 1111.98ZM2021.88 1111.98C1987.13 1111.98 1957.42 1124.29 1932.76 1148.92 1907.91 1173.55 1895.48 1203.22 1895.48 1237.92 1895.48 1244.08 1895.85 1250.14 1896.6 1256.11 1897.72 1264.51 1899.87 1272.81 1903.05 1281.02 1928.46 1269.45 1966.86 1252.1 2018.24 1228.96 2068.88 1206.2 2107.28 1188.94 2133.43 1177.19 2128.58 1169.35 2123.53 1162.54 2118.3 1156.76 2092.89 1126.9 2060.75 1111.98 2021.88 1111.98ZM1080.1 1111.98C1045.35 1111.98 1015.64 1124.29 990.973 1148.92 966.121 1173.55 953.696 1203.22 953.696 1237.92 953.696 1244.08 954.069 1250.14 954.817 1256.11 955.938 1264.51 958.087 1272.81 961.263 1281.02 986.675 1269.45 1025.07 1252.1 1076.46 1228.96 1127.09 1206.2 1165.49 1188.94 1191.65 1177.19 1186.79 1169.35 1181.75 1162.54 1176.52 1156.76 1151.1 1126.9 1118.97 1111.98 1080.1 1111.98ZM1694.08 1110.86C1659.33 1110.86 1629.62 1123.17 1604.96 1147.8 1580.11 1172.43 1567.68 1202.1 1567.68 1236.8 1567.68 1271.69 1580.11 1301.45 1604.96 1326.08 1629.62 1350.71 1659.33 1363.02 1694.08 1363.02 1728.84 1363.02 1758.55 1350.71 1783.21 1326.08 1807.88 1301.45 1820.21 1271.69 1820.21 1236.8 1820.21 1202.1 1807.88 1172.43 1783.21 1147.8 1758.55 1123.17 1728.84 1110.86 1694.08 1110.86ZM1694.08 1095.74C1733.32 1095.74 1766.77 1109.55 1794.42 1137.17 1822.26 1164.97 1836.19 1198.46 1836.19 1237.64 1836.19 1276.64 1822.26 1310.03 1794.42 1337.83 1766.77 1365.64 1733.32 1379.54 1694.08 1379.54 1658.02 1379.54 1626.63 1367.69 1599.91 1343.99 1589.07 1334.29 1578.33 1320.48 1567.68 1302.57L1567.68 1493.16C1567.68 1498.39 1565.16 1501 1560.11 1501L1559.55 1501C1554.51 1501 1551.98 1498.39 1551.98 1493.16L1551.98 1237.64C1552.17 1198.27 1566.09 1164.78 1593.75 1137.17 1621.59 1109.55 1655.03 1095.74 1694.08 1095.74ZM3773.44 1095.18 3828.09 1095.18C3833.14 1095.18 3835.66 1097.8 3835.66 1103.02 3835.66 1108.62 3833.14 1111.42 3828.09 1111.42L3773.44 1111.42C3757.18 1111.42 3743.36 1117.11 3731.96 1128.49 3720.75 1140.06 3715.14 1153.96 3715.14 1170.19 3715.14 1190.34 3722.99 1205.64 3738.69 1216.09 3747.47 1222.06 3763.16 1228.12 3785.77 1234.28 3810.81 1240.81 3827.72 1247.81 3836.5 1255.27 3848.83 1265.72 3855 1282.05 3855 1304.25 3855 1324.77 3847.71 1342.31 3833.14 1356.87 3818.38 1371.61 3800.63 1378.98 3779.89 1378.98L3703.09 1378.98C3697.86 1378.98 3695.24 1376.46 3695.24 1371.42 3695.24 1365.82 3697.86 1363.02 3703.09 1363.02L3779.89 1363.02C3796.14 1363.02 3810.06 1357.33 3821.65 1345.95 3833.23 1334.38 3839.02 1320.48 3839.02 1304.25 3839.02 1285.03 3832.39 1271.32 3819.12 1263.11 3813.33 1259.38 3798.94 1254.43 3775.96 1248.28 3750.55 1241.37 3732.15 1233.16 3720.75 1223.65 3705.99 1210.96 3698.61 1193.14 3698.61 1170.19 3698.61 1149.48 3705.89 1131.85 3720.47 1117.29 3735.04 1102.55 3752.7 1095.18 3773.44 1095.18ZM3392.36 1095.18C3423.93 1095.18 3450.93 1106.38 3473.35 1128.77 3495.78 1151.16 3506.99 1178.21 3506.99 1209.93L3506.99 1371.42C3506.99 1376.46 3504.56 1378.98 3499.7 1378.98L3498.58 1378.98C3493.72 1378.98 3491.29 1376.46 3491.29 1371.42L3491.29 1209.93C3491.29 1182.69 3481.58 1159.46 3462.14 1140.24 3442.9 1121.03 3419.64 1111.42 3392.36 1111.42 3365.08 1111.42 3341.72 1121.03 3322.29 1140.24 3302.85 1159.46 3293.14 1182.69 3293.14 1209.93L3293.14 1371.42C3293.14 1376.46 3290.71 1378.98 3285.85 1378.98 3280.24 1378.98 3277.44 1376.46 3277.44 1371.42L3277.44 1209.93C3277.44 1178.21 3288.65 1151.16 3311.08 1128.77 3333.68 1106.38 3360.78 1095.18 3392.36 1095.18ZM3090.84 1095.18C3118.5 1095.18 3144 1102.74 3167.36 1117.85 3190.72 1132.78 3208.19 1152.84 3219.77 1178.03 3220.7 1180.08 3220.89 1181.95 3220.33 1183.62 3219.58 1185.86 3218.37 1187.36 3216.69 1188.1 3190.9 1199.48 3154.47 1215.81 3107.38 1237.08 3059.55 1258.72 3023.3 1275.05 2998.63 1286.06 2996.02 1287.18 2992.65 1288.76 2988.54 1290.82 2984.24 1292.68 2980.79 1294.17 2978.17 1295.29 2981.54 1302.76 2985.93 1309.57 2991.35 1315.72 3016.76 1347.82 3049.92 1363.86 3090.84 1363.86 3117.56 1363.86 3141.85 1356.03 3163.71 1340.35 3185.58 1324.87 3200.99 1304.53 3209.96 1279.34 3211.08 1275.8 3213.7 1274.02 3217.81 1274.02 3220.42 1274.02 3222.39 1275.05 3223.69 1277.1 3225.38 1279.34 3225.75 1281.77 3224.82 1284.38 3214.91 1312.55 3197.63 1335.41 3172.96 1352.95 3148.3 1370.3 3120.93 1378.98 3090.84 1378.98 3051.6 1378.98 3018.16 1365.08 2990.5 1337.27 2962.66 1309.66 2948.74 1276.26 2948.74 1237.08 2948.74 1197.9 2962.66 1164.5 2990.5 1136.89 3018.16 1109.09 3051.6 1095.18 3090.84 1095.18ZM2573.47 1095.18C2611.03 1095.18 2641.2 1110.11 2664 1139.96 2670.73 1148.92 2675.77 1157.88 2679.13 1166.83 2683.06 1157.5 2688.29 1148.64 2694.83 1140.24 2717.81 1110.2 2748.08 1095.18 2785.64 1095.18 2817.03 1095.18 2843.84 1106.29 2866.08 1128.49 2888.31 1150.69 2899.43 1177.56 2899.43 1209.09L2899.43 1371.42C2899.43 1376.46 2896.91 1378.98 2891.86 1378.98L2891.3 1378.98C2886.26 1378.98 2883.74 1376.46 2883.74 1371.42L2883.74 1209.09C2883.74 1182.04 2874.11 1159 2854.87 1139.96 2835.81 1120.93 2812.73 1111.42 2785.64 1111.42 2758.54 1111.42 2735.38 1120.93 2716.13 1139.96 2696.88 1159 2687.26 1182.04 2687.26 1209.09L2687.26 1371.42C2687.26 1376.46 2684.74 1378.98 2679.69 1378.98 2674.27 1378.98 2671.57 1376.46 2671.57 1371.42L2671.57 1209.09C2671.57 1182.04 2661.94 1159 2642.7 1139.96 2623.64 1120.93 2600.56 1111.42 2573.47 1111.42 2546.38 1111.42 2523.21 1120.93 2503.96 1139.96 2484.71 1159 2475.09 1182.04 2475.09 1209.09L2475.09 1371.42C2475.09 1376.46 2472.57 1378.98 2467.52 1378.98 2462.11 1378.98 2459.4 1376.46 2459.4 1371.42L2459.4 1209.09C2459.4 1177.56 2470.51 1150.69 2492.75 1128.49 2515.17 1106.29 2542.08 1095.18 2573.47 1095.18ZM2386.01 1095.18C2391.42 1095.18 2394.13 1097.8 2394.13 1103.02L2394.13 1371.42C2394.13 1376.46 2391.7 1378.98 2386.85 1378.98L2386.01 1378.98C2380.96 1378.98 2378.44 1376.46 2378.44 1371.42L2378.44 1103.02C2378.44 1097.8 2380.96 1095.18 2386.01 1095.18ZM2310.5 1095.18 2327.6 1095.18C2332.65 1095.18 2335.17 1097.8 2335.17 1103.02 2335.17 1108.62 2332.65 1111.42 2327.6 1111.42L2310.5 1111.42C2286.59 1111.42 2266.31 1119.63 2249.68 1136.05 2233.05 1152.65 2224.55 1173.08 2224.18 1197.34L2224.18 1371.42C2224.18 1376.46 2221.66 1378.98 2216.61 1378.98L2215.77 1378.98C2210.91 1378.98 2208.48 1376.46 2208.48 1371.42L2208.48 1197.34C2208.67 1168.79 2218.67 1144.63 2238.47 1124.85 2258.09 1105.07 2282.1 1095.18 2310.5 1095.18ZM2021.88 1095.18C2049.54 1095.18 2075.04 1102.74 2098.4 1117.85 2121.76 1132.78 2139.23 1152.84 2150.81 1178.03 2151.75 1180.08 2151.93 1181.95 2151.37 1183.62 2150.62 1185.86 2149.41 1187.36 2147.73 1188.1 2121.94 1199.48 2085.51 1215.81 2038.42 1237.08 1990.59 1258.72 1954.34 1275.05 1929.67 1286.06 1927.06 1287.18 1923.69 1288.76 1919.58 1290.82 1915.29 1292.68 1911.83 1294.17 1909.21 1295.29 1912.58 1302.76 1916.97 1309.57 1922.39 1315.72 1947.8 1347.82 1980.96 1363.86 2021.88 1363.86 2048.6 1363.86 2072.89 1356.03 2094.76 1340.35 2116.62 1324.87 2132.03 1304.53 2141 1279.34 2142.12 1275.8 2144.74 1274.02 2148.85 1274.02 2151.47 1274.02 2153.43 1275.05 2154.74 1277.1 2156.42 1279.34 2156.79 1281.77 2155.86 1284.38 2145.95 1312.55 2128.67 1335.41 2104.01 1352.95 2079.34 1370.3 2051.97 1378.98 2021.88 1378.98 1982.65 1378.98 1949.2 1365.08 1921.55 1337.27 1893.7 1309.66 1879.78 1276.26 1879.78 1237.08 1879.78 1197.9 1893.7 1164.5 1921.55 1136.89 1949.2 1109.09 1982.65 1095.18 2021.88 1095.18ZM1274.55 1095.18C1279.78 1095.18 1282.39 1097.8 1282.39 1103.02L1282.39 1129.05C1282.39 1156.29 1292.11 1179.52 1311.54 1198.74 1330.79 1217.96 1354.05 1227.56 1381.33 1227.56 1408.61 1227.56 1431.97 1217.96 1451.4 1198.74 1470.83 1179.52 1480.55 1156.29 1480.55 1129.05L1480.55 1103.02C1480.55 1097.8 1482.98 1095.18 1487.84 1095.18 1493.44 1095.18 1496.25 1097.8 1496.25 1103.02L1496.25 1129.05C1496.25 1166.74 1481.11 1197.15 1450.84 1220.29 1443.74 1225.89 1432.9 1231.02 1418.33 1235.68 1433.09 1240.72 1443.93 1245.85 1450.84 1251.07 1481.11 1274.21 1496.25 1304.72 1496.25 1342.59L1496.25 1371.42C1496.25 1376.46 1493.72 1378.98 1488.68 1378.98L1487.84 1378.98C1482.98 1378.98 1480.55 1376.46 1480.55 1371.42L1480.55 1342.59C1480.55 1315.16 1470.83 1291.84 1451.4 1272.62 1431.97 1253.22 1408.61 1243.52 1381.33 1243.52 1354.05 1243.52 1330.79 1253.22 1311.54 1272.62 1292.11 1291.84 1282.39 1315.16 1282.39 1342.59L1282.39 1371.42C1282.39 1376.46 1279.97 1378.98 1275.11 1378.98 1269.5 1378.98 1266.7 1376.46 1266.7 1371.42L1266.7 1342.59C1266.7 1304.53 1281.83 1274.02 1312.1 1251.07 1320.7 1244.54 1331.72 1239.41 1345.18 1235.68 1329.86 1230.46 1318.83 1225.33 1312.1 1220.29 1281.83 1197.34 1266.7 1166.93 1266.7 1129.05L1266.7 1103.02C1266.7 1097.8 1269.32 1095.18 1274.55 1095.18ZM1080.1 1095.18C1107.75 1095.18 1133.26 1102.74 1156.62 1117.85 1179.97 1132.78 1197.44 1152.84 1209.03 1178.03 1209.96 1180.08 1210.15 1181.95 1209.59 1183.62 1208.84 1185.86 1207.63 1187.36 1205.95 1188.1 1180.16 1199.48 1143.72 1215.81 1096.64 1237.08 1048.8 1258.72 1012.55 1275.05 987.889 1286.06 985.274 1287.18 981.91 1288.76 977.799 1290.82 973.502 1292.68 970.045 1294.17 967.429 1295.29 970.793 1302.76 975.184 1309.57 980.602 1315.72 1006.01 1347.82 1039.18 1363.86 1080.1 1363.86 1106.82 1363.86 1131.11 1356.03 1152.97 1340.35 1174.83 1324.87 1190.25 1304.53 1199.22 1279.34 1200.34 1275.8 1202.96 1274.02 1207.07 1274.02 1209.68 1274.02 1211.64 1275.05 1212.95 1277.1 1214.63 1279.34 1215.01 1281.77 1214.07 1284.38 1204.17 1312.55 1186.89 1335.41 1162.22 1352.95 1137.56 1370.3 1110.18 1378.98 1080.1 1378.98 1040.86 1378.98 1007.42 1365.08 979.761 1337.27 951.921 1309.66 938 1276.26 938 1237.08 938 1197.9 951.921 1164.5 979.761 1136.89 1007.42 1109.09 1040.86 1095.18 1080.1 1095.18ZM3576.18 974C3581.41 974 3584.03 976.519 3584.03 981.556L3584.03 1095.18 3656.9 1095.18C3661.94 1095.18 3664.47 1097.8 3664.47 1103.02 3664.47 1108.62 3661.94 1111.42 3656.9 1111.42L3584.03 1111.42 3584.03 1314.32C3584.03 1327.76 3588.89 1339.23 3598.6 1348.75 3608.13 1358.27 3619.72 1363.02 3633.36 1363.02L3656.9 1363.02C3661.94 1363.02 3664.47 1365.64 3664.47 1370.86 3664.47 1376.27 3661.94 1378.98 3656.9 1378.98L3633.36 1378.98C3615.42 1378.98 3600.1 1372.63 3587.39 1359.94 3574.69 1347.44 3568.33 1332.24 3568.33 1314.32L3568.33 981.556C3568.33 976.519 3570.95 974 3576.18 974ZM2386.85 974C2390.21 974 2393.01 975.213 2395.25 977.638 2397.68 980.064 2398.9 982.956 2398.9 986.314 2398.9 989.673 2397.68 992.565 2395.25 994.99 2392.83 997.416 2390.02 998.628 2386.85 998.628 2383.3 998.628 2380.31 997.416 2377.88 994.99 2375.45 992.565 2374.23 989.673 2374.23 986.314 2374.23 982.956 2375.45 980.064 2377.88 977.638 2380.31 975.213 2383.3 974 2386.85 974Z" fill="#FFFFFF" fill-rule="evenodd"/><path d="M4103.23 1389.63C4093.45 1389.63 4085.53 1397.56 4085.53 1407.33 4085.53 1417.1 4093.45 1425.03 4103.23 1425.03 4113 1425.03 4120.93 1417.1 4120.93 1407.33 4120.93 1397.56 4113 1389.63 4103.23 1389.63ZM3912.36 1164.3C3953.07 1164.3 3986.08 1197.31 3986.08 1238.02 3986.08 1278.74 3953.07 1311.74 3912.36 1311.74L3912.01 1311.71 3912.01 1311.6 3912 1311.6 3912 1283.1 3912.01 1283.1 3912.01 1192.9 3912 1192.9 3912 1164.4 3912.01 1164.4 3912.01 1164.34ZM3912 1072.29C3969.2 1072.29 4019.63 1101.27 4049.41 1145.35L4051.34 1148.89 4055.33 1148.09C4067.71 1148.09 4077.75 1158.12 4077.75 1170.51 4077.75 1176.7 4075.24 1182.3 4071.18 1186.36L4069.12 1187.75 4074.35 1204.6C4076.56 1215.39 4077.71 1226.56 4077.71 1238 4077.71 1329.52 4003.52 1403.71 3912 1403.71L3912 1389.08C3995.44 1389.08 4063.08 1321.44 4063.08 1238 4063.08 1227.57 4062.02 1217.39 4060.01 1207.55L4055.46 1192.9 4055.33 1192.92C4042.95 1192.92 4032.92 1182.89 4032.92 1170.51 4032.92 1167.41 4033.54 1164.46 4034.68 1161.78L4038.6 1155.96 4037.28 1153.53C4010.13 1113.34 3964.15 1086.92 3912 1086.92ZM3912 975C4057.25 975 4175 1092.75 4175 1238 4175 1292.47 4158.44 1343.07 4130.08 1385.05L4127.81 1388.08 4132.47 1394.98C4134.07 1398.77 4134.96 1402.95 4134.96 1407.33 4134.96 1424.85 4120.75 1439.06 4103.23 1439.06 4098.85 1439.06 4094.67 1438.17 4090.88 1436.57L4086.99 1433.95 4079.29 1440.94C4033.83 1478.46 3975.55 1501 3912 1501L3912 1485.34C3963.22 1485.34 4010.81 1469.76 4050.29 1443.09L4075.66 1422.16 4073.99 1419.68C4072.39 1415.88 4071.5 1411.71 4071.5 1407.33 4071.5 1389.81 4085.7 1375.6 4103.23 1375.6 4107.61 1375.6 4111.78 1376.49 4115.58 1378.09L4115.6 1378.1 4117.09 1376.29C4143.76 1336.81 4159.33 1289.22 4159.33 1238 4159.33 1101.4 4048.6 990.665 3912 990.665Z" fill="#FFFFFF" fill-rule="evenodd"/><path d="M421.026 1412.7C411.916 1412.7 404.493 1420.12 404.493 1429.23 404.505 1438.36 411.916 1445.78 421.026 1445.78 430.142 1445.78 437.571 1438.36 437.571 1429.23 437.571 1420.12 430.154 1412.7 421.026 1412.7ZM359.823 1278.91C350.704 1278.91 343.284 1286.33 343.284 1295.46 343.284 1304.57 350.704 1311.99 359.823 1311.99 368.959 1311.99 376.373 1304.58 376.373 1295.46 376.373 1286.34 368.954 1278.91 359.823 1278.91ZM426.832 1206.06C417.713 1206.06 410.294 1213.47 410.294 1222.6 410.294 1231.73 417.719 1239.14 426.832 1239.14 435.952 1239.14 443.383 1231.72 443.383 1222.6 443.383 1213.49 435.963 1206.06 426.832 1206.06ZM327.554 1094.44C318.421 1094.46 311.009 1101.87 311.009 1110.98 311.009 1120.09 318.426 1127.52 327.554 1127.52 336.67 1127.52 344.087 1120.1 344.087 1110.98 344.087 1101.87 336.67 1094.44 327.554 1094.44ZM421.026 1027.44C411.916 1027.44 404.505 1034.85 404.493 1043.98 404.493 1053.1 411.916 1060.51 421.026 1060.51 430.154 1060.51 437.571 1053.1 437.571 1043.98 437.571 1034.85 430.142 1027.44 421.026 1027.44ZM412.804 992.274 409.974 992.568C384.745 997.882 365.713 1020.86 365.713 1048.29 365.713 1049.22 365.787 1050.15 365.845 1051.06 365.919 1052.16 365.724 1053.28 365.386 1054.36 369.217 1080.77 391.397 1101.11 418.181 1101.11 422.723 1101.11 426.404 1104.79 426.404 1109.33 426.404 1113.88 422.717 1117.56 418.181 1117.56 383.763 1117.56 355.139 1092.01 349.41 1058.56 344.789 1057.29 340.115 1056.44 335.419 1056.44 308.681 1056.44 286.307 1075.98 281.131 1101.87L281.044 1102.75 295.712 1102.75C299.392 1088.55 312.211 1077.99 327.555 1077.99 345.753 1077.99 360.546 1092.78 360.546 1110.97 360.546 1129.17 345.747 1143.97 327.555 1143.97 312.221 1143.97 299.409 1133.42 295.724 1119.21L280.374 1119.21 280.473 1120.8C282.652 1137.98 292.297 1153.1 307.194 1162.19 307.372 1162.3 307.481 1162.46 307.653 1162.59 340.092 1168.74 364.743 1197.78 364.743 1232.62 364.743 1237.16 361.056 1240.84 356.521 1240.84 351.979 1240.84 348.298 1237.16 348.298 1232.62 348.298 1202.38 324.329 1177.78 294.867 1177.78 287.82 1177.78 281.111 1179.21 274.947 1181.77 255.256 1190.51 241.43 1210.62 241.43 1234 241.43 1265.35 266.289 1290.87 296.846 1290.87 298.331 1290.87 299.793 1290.77 301.238 1290.64 305.029 1290.22 308.515 1292.61 309.731 1296.2 310.946 1299.78 309.553 1303.74 306.353 1305.77 290.303 1315.96 280.618 1333.37 280.107 1352.55 280.279 1353.21 280.52 1353.86 280.52 1354.57 280.52 1384.82 304.489 1409.43 333.951 1409.43 363.413 1409.43 387.382 1384.82 387.382 1354.57 387.382 1350.03 391.069 1346.35 395.605 1346.35 400.146 1346.35 403.828 1350.03 403.828 1354.57 403.828 1381.24 389.383 1404.51 368.086 1416.73 367.673 1418.07 367.3 1419.21 366.973 1420.18 365.987 1423.11 365.723 1423.9 365.723 1427.67 365.723 1455.12 384.751 1478.08 409.983 1483.4L412.804 1483.69 412.804 1461.07C398.602 1457.39 388.034 1444.57 388.034 1429.23 388.034 1411.04 402.833 1396.24 421.025 1396.24 439.223 1396.24 454.027 1411.04 454.027 1429.23 454.027 1444.56 443.47 1457.37 429.262 1461.06L429.262 1483.71 432.295 1483.4C457.528 1478.08 476.56 1455.11 476.56 1427.67L476.555 1427.67 476.553 1303.68 391.676 1303.68C387.989 1317.89 375.177 1328.45 359.834 1328.45 341.629 1328.45 326.832 1313.65 326.832 1295.45 326.832 1277.25 341.635 1262.44 359.834 1262.44 375.178 1262.44 387.995 1273.02 391.676 1287.22L418.602 1287.22 418.602 1254.44C404.395 1250.76 393.824 1237.95 393.824 1222.61 393.824 1204.4 408.627 1189.6 426.826 1189.6 445.03 1189.6 459.84 1204.4 459.84 1222.61 459.84 1237.94 449.267 1250.76 435.066 1254.44L435.066 1287.22 476.553 1287.22 476.55 1053.09C476.55 1024.35 456.718 998.68 431.985 992.712L429.262 992.386 429.262 1012.15C443.47 1015.84 454.027 1028.65 454.027 1043.98 454.027 1062.17 439.223 1076.97 421.025 1076.97 402.833 1076.97 388.034 1062.18 388.034 1043.98 388.034 1028.64 398.602 1015.82 412.804 1012.14ZM418.191 975C418.392 975 418.57 975.109 418.765 975.115 419.562 975.092 420.336 975 421.139 975L421.139 975.004C459.42 975.004 493 1011.51 492.994 1053.13L492.998 1287.22 492.999 1287.22 492.999 1303.68 492.998 1303.68 493 1427.68C493 1468.11 460.756 1501 421.133 1501 381.51 1501 349.278 1468.11 349.278 1427.68 349.278 1427.12 349.289 1426.58 349.295 1426.07 344.748 1426.98 340.115 1427.44 335.418 1427.44 295.795 1427.44 263.563 1394.55 263.563 1354.13 263.563 1335.94 270.066 1318.84 281.54 1305.65 249.251 1298.47 225 1269.09 225 1234.02 225 1233.64 225.052 1233.26 225.052 1232.88 225.052 1232.81 225 1232.73 225 1232.64 225 1202.68 243.235 1177.02 268.964 1166.5 273.11 1164.7 277.433 1163.26 281.929 1162.29 270.208 1149.06 263.574 1131.83 263.574 1113.34 263.574 1072.91 295.806 1040.02 335.429 1040.02 339.827 1040.02 344.208 1040.48 348.554 1041.33 351.078 1004.33 381.303 975 418.191 975Z" fill="url(#fill1)" fill-rule="evenodd"/><path d="M668.831 990.635C638.79 990.635 613.133 1001.24 591.861 1022.46 570.403 1043.87 559.674 1069.56 559.674 1099.52L559.674 1196.13 777.428 1196.13 777.428 1099.52C777.428 1069.56 766.792 1043.87 745.521 1022.46 724.249 1001.24 698.686 990.635 668.831 990.635ZM869.163 975C874.388 975 877 977.513 877 982.538L877 1371.46C877 1376.49 874.574 1379 869.723 1379 864.125 1379 861.326 1376.49 861.326 1371.46L861.326 982.538C861.326 977.513 863.938 975 869.163 975ZM668.831 975C703.164 975 732.459 987.098 756.716 1011.3 781.16 1035.68 793.381 1065.09 793.381 1099.52L793.381 1371.46C793.381 1376.49 790.676 1379 785.265 1379 780.04 1379 777.428 1376.49 777.428 1371.46L777.428 1212.04 559.674 1212.04 559.674 1371.46C559.674 1376.49 557.248 1379 552.397 1379 546.799 1379 544 1376.49 544 1371.46L544 1099.52C544 1065.09 556.222 1035.68 580.666 1011.3 605.109 987.098 634.498 975 668.831 975Z" fill="url(#fill2)" fill-rule="evenodd"/></g></svg>