<svg width="4339" height="877" xmlns="http://www.w3.org/2000/svg" xmlns:xlink="http://www.w3.org/1999/xlink" xml:space="preserve" overflow="hidden"><defs><clipPath id="clip0"><rect x="14" y="799" width="4339" height="877"/></clipPath></defs><g clip-path="url(#clip0)" transform="translate(-14 -799)"><path d="M3068.82 1125.19C3039.65 1125.19 3014.71 1135.55 2994 1156.28 2973.48 1177.01 2963.21 1201.98 2963.21 1231.18 2963.21 1236.4 2964.11 1245.14 2965.91 1257.4L3156.33 1171.15C3130.76 1140.51 3101.59 1125.19 3068.82 1125.19ZM2008.61 1125.19C1979.44 1125.19 1954.5 1135.55 1933.79 1156.28 1913.26 1177.01 1903 1201.98 1903 1231.18 1903 1236.4 1903.9 1245.14 1905.7 1257.4L2096.12 1171.15C2070.55 1140.51 2041.38 1125.19 2008.61 1125.19ZM1094.37 1125.19C1065.2 1125.19 1040.26 1135.55 1019.55 1156.28 999.025 1177.01 988.762 1201.98 988.762 1231.18 988.762 1236.4 989.662 1245.14 991.462 1257.4L1181.88 1171.15C1156.31 1140.51 1127.14 1125.19 1094.37 1125.19ZM1694.04 1124.11C1664.87 1124.11 1639.93 1134.38 1619.22 1154.93 1598.69 1175.66 1588.43 1200.62 1588.43 1229.82 1588.43 1258.84 1598.69 1283.72 1619.22 1304.45 1639.93 1325.18 1664.87 1335.54 1694.04 1335.54 1723.39 1335.54 1748.24 1325.18 1768.58 1304.45 1789.29 1283.72 1799.65 1258.84 1799.65 1229.82 1799.65 1200.62 1789.29 1175.66 1768.58 1154.93 1748.06 1134.38 1723.21 1124.11 1694.04 1124.11ZM3753 1090.85 3802.7 1090.85C3807.38 1090.85 3811.34 1092.47 3814.58 1095.72 3817.82 1098.96 3819.44 1102.93 3819.44 1107.62L3819.44 1108.16C3819.44 1112.66 3817.82 1116.54 3814.58 1119.78 3811.34 1123.03 3807.38 1124.65 3802.7 1124.65L3750.3 1124.65C3738.05 1124.65 3727.61 1128.98 3718.97 1137.63 3710.33 1146.46 3706 1156.91 3706 1168.99 3706 1186.29 3714.11 1199.27 3730.31 1207.92 3734.99 1210.27 3751.11 1215.13 3778.66 1222.52 3797.57 1227.93 3811.16 1234.69 3819.44 1242.8 3831.15 1253.8 3837 1270.11 3837 1291.74 3837 1313.37 3829.44 1331.84 3814.31 1347.17 3799.01 1362.31 3780.55 1369.88 3758.94 1369.88L3688.45 1369.88C3683.95 1369.88 3680.07 1368.25 3676.83 1365.01 3673.59 1361.77 3671.97 1357.89 3671.97 1353.38L3671.97 1352.84C3671.97 1348.16 3673.59 1344.19 3676.83 1340.95 3680.07 1337.7 3683.95 1336.08 3688.45 1336.08L3761.64 1336.08C3773.89 1336.08 3784.33 1331.75 3792.97 1323.1 3801.62 1314.45 3805.94 1304 3805.94 1291.74 3805.94 1274.98 3797.75 1262.63 3781.36 1254.7 3777.94 1253.08 3761.91 1248.21 3733.28 1240.1 3714.74 1234.51 3701.14 1227.66 3692.5 1219.55 3680.8 1207.83 3674.94 1190.98 3674.94 1168.99 3674.94 1147.36 3682.51 1128.98 3697.63 1113.83 3712.94 1098.51 3731.39 1090.85 3753 1090.85ZM3367.07 1090.85C3398.58 1090.85 3425.5 1102.03 3447.82 1124.38 3470.15 1146.73 3481.32 1173.77 3481.32 1205.49L3481.32 1353.38C3481.32 1357.89 3479.69 1361.77 3476.45 1365.01 3473.21 1368.25 3469.34 1369.88 3464.84 1369.88L3464.3 1369.88C3459.62 1369.88 3455.66 1368.25 3452.41 1365.01 3449.17 1361.77 3447.55 1357.89 3447.55 1353.38L3447.55 1205.49C3447.55 1183.32 3439.72 1164.3 3424.05 1148.44 3408.21 1132.58 3389.21 1124.65 3367.07 1124.65 3344.74 1124.65 3325.65 1132.58 3309.81 1148.44 3294.14 1164.3 3286.31 1183.32 3286.31 1205.49L3286.31 1353.38C3286.31 1357.89 3284.69 1361.77 3281.45 1365.01 3278.2 1368.25 3274.33 1369.88 3269.83 1369.88L3269.02 1369.88C3264.52 1369.88 3260.65 1368.25 3257.41 1365.01 3254.17 1361.77 3252.54 1357.89 3252.54 1353.38L3252.54 1205.49C3252.54 1173.77 3263.71 1146.73 3286.04 1124.38 3308.36 1102.03 3335.37 1090.85 3367.07 1090.85ZM3068.82 1090.85C3096.55 1090.85 3121.94 1098.42 3144.99 1113.56 3167.49 1128.34 3184.33 1147.99 3195.49 1172.51 3197.48 1176.65 3197.66 1180.89 3196.04 1185.21 3194.41 1189.36 3191.53 1192.42 3187.39 1194.41 3162.18 1205.76 3129.05 1220.72 3088 1239.29 3037.04 1262.36 3000.85 1278.67 2979.42 1288.22 3004.63 1320.67 3034.43 1336.89 3068.82 1336.89 3091.69 1336.89 3112.4 1330.13 3130.94 1316.61 3148.77 1303.64 3161.28 1286.69 3168.49 1265.78 3171.19 1258.21 3176.59 1254.43 3184.69 1254.43 3190.45 1254.43 3195.04 1256.77 3198.47 1261.46 3201.71 1266.14 3202.34 1271.19 3200.36 1276.6 3190.81 1304.18 3174.16 1326.53 3150.39 1343.65 3125.9 1361.14 3098.71 1369.88 3068.82 1369.88 3030.29 1369.88 2997.43 1356.27 2970.24 1329.05 2943.05 1301.83 2929.45 1268.94 2929.45 1230.37 2929.45 1191.79 2943.05 1158.9 2970.24 1131.68 2997.43 1104.46 3030.29 1090.85 3068.82 1090.85ZM2574.94 1090.85C2612.39 1090.85 2644.71 1108.7 2671.9 1144.39 2698.91 1108.7 2731.14 1090.85 2768.6 1090.85 2800.11 1090.85 2826.94 1101.94 2849.08 1124.11 2871.23 1146.46 2882.3 1173.32 2882.3 1204.68L2882.3 1353.38C2882.3 1358.07 2880.77 1361.95 2877.71 1365.01 2874.47 1368.25 2870.51 1369.88 2865.83 1369.88L2865.29 1369.88C2860.79 1369.88 2856.92 1368.25 2853.67 1365.01 2850.43 1361.77 2848.81 1357.89 2848.81 1353.38L2848.81 1204.68C2848.81 1182.69 2840.98 1163.85 2825.31 1148.17 2809.65 1132.49 2790.74 1124.65 2768.6 1124.65 2746.63 1124.65 2727.81 1132.49 2712.15 1148.17 2696.48 1163.85 2688.65 1182.69 2688.65 1204.68L2688.65 1353.38C2688.65 1357.89 2687.03 1361.77 2683.79 1365.01 2680.54 1368.25 2676.67 1369.88 2672.17 1369.88L2671.63 1369.88C2666.95 1369.88 2662.99 1368.25 2659.75 1365.01 2656.51 1361.77 2654.88 1357.89 2654.88 1353.38L2654.88 1204.68C2654.88 1182.69 2647.05 1163.85 2631.39 1148.17 2615.72 1132.49 2596.9 1124.65 2574.94 1124.65 2552.97 1124.65 2534.15 1132.49 2518.49 1148.17 2502.82 1163.85 2494.99 1182.69 2494.99 1204.68L2494.99 1353.38C2494.99 1357.89 2493.37 1361.77 2490.13 1365.01 2486.89 1368.25 2483.02 1369.88 2478.51 1369.88L2477.7 1369.88C2473.2 1369.88 2469.33 1368.25 2466.09 1365.01 2462.85 1361.77 2461.23 1357.89 2461.23 1353.38L2461.23 1204.68C2461.23 1173.32 2472.3 1146.46 2494.45 1124.11 2516.6 1101.94 2543.43 1090.85 2574.94 1090.85ZM2380.41 1090.85 2380.95 1090.85C2385.45 1090.85 2389.32 1092.47 2392.56 1095.72 2395.8 1098.96 2397.42 1102.93 2397.42 1107.62L2397.42 1353.38C2397.42 1357.89 2395.8 1361.77 2392.56 1365.01 2389.32 1368.25 2385.45 1369.88 2380.95 1369.88L2380.41 1369.88C2375.73 1369.88 2371.77 1368.25 2368.53 1365.01 2365.28 1361.77 2363.66 1357.89 2363.66 1353.38L2363.66 1107.62C2363.66 1102.93 2365.28 1098.96 2368.53 1095.72 2371.77 1092.47 2375.73 1090.85 2380.41 1090.85ZM2295.24 1090.85 2310.64 1090.85C2315.32 1090.85 2319.28 1092.47 2322.52 1095.72 2325.58 1098.96 2327.11 1102.93 2327.11 1107.62L2327.11 1108.16C2327.11 1112.84 2325.58 1116.72 2322.52 1119.78 2319.28 1123.03 2315.32 1124.65 2310.64 1124.65L2295.24 1124.65C2276.15 1124.65 2259.86 1131.41 2246.35 1144.93 2233.03 1158.45 2226.28 1174.76 2226.09 1193.86L2226.09 1353.38C2226.09 1357.89 2224.47 1361.77 2221.23 1365.01 2217.99 1368.25 2214.12 1369.88 2209.62 1369.88L2208.81 1369.88C2204.31 1369.88 2200.44 1368.25 2197.19 1365.01 2193.95 1361.77 2192.33 1357.89 2192.33 1353.38L2192.33 1193.86C2192.69 1165.21 2202.69 1140.87 2222.31 1120.86 2242.3 1100.86 2266.61 1090.85 2295.24 1090.85ZM2008.61 1090.85C2036.34 1090.85 2061.73 1098.42 2084.78 1113.56 2107.28 1128.34 2124.12 1147.99 2135.28 1172.51 2137.26 1176.65 2137.44 1180.89 2135.82 1185.21 2134.2 1189.36 2131.32 1192.42 2127.18 1194.41 2101.97 1205.76 2068.84 1220.72 2027.79 1239.29 1976.83 1262.36 1940.63 1278.67 1919.21 1288.22 1944.42 1320.67 1974.22 1336.89 2008.61 1336.89 2031.48 1336.89 2052.18 1330.13 2070.73 1316.61 2088.56 1303.64 2101.07 1286.69 2108.27 1265.78 2110.97 1258.21 2116.38 1254.43 2124.48 1254.43 2130.24 1254.43 2134.83 1256.77 2138.25 1261.46 2141.5 1266.14 2142.13 1271.19 2140.14 1276.6 2130.6 1304.18 2113.95 1326.53 2090.18 1343.65 2065.69 1361.14 2038.5 1369.88 2008.61 1369.88 1970.07 1369.88 1937.21 1356.27 1910.02 1329.05 1882.83 1301.83 1869.24 1268.94 1869.24 1230.37 1869.24 1191.79 1882.83 1158.9 1910.02 1131.68 1937.21 1104.46 1970.07 1090.85 2008.61 1090.85ZM1694.04 1090.85C1732.57 1090.85 1765.43 1104.46 1792.62 1131.68 1819.81 1158.9 1833.41 1191.79 1833.41 1230.37 1833.41 1268.94 1819.81 1301.83 1792.62 1329.05 1765.43 1356.27 1732.57 1369.88 1694.04 1369.88 1658.75 1369.88 1623.54 1354.2 1588.43 1322.83L1588.43 1464.51C1588.43 1469.01 1586.81 1472.89 1583.57 1476.13 1580.33 1479.38 1576.46 1481 1571.96 1481L1571.15 1481C1566.64 1481 1562.77 1479.38 1559.53 1476.13 1556.29 1472.89 1554.67 1469.01 1554.67 1464.51L1554.67 1229.82C1554.85 1191.43 1568.53 1158.63 1595.72 1131.41 1622.73 1104.37 1655.5 1090.85 1694.04 1090.85ZM1290.52 1090.85 1291.33 1090.85C1295.83 1090.85 1299.7 1092.47 1302.94 1095.72 1306.18 1098.96 1307.8 1102.93 1307.8 1107.62L1307.8 1131.41C1307.8 1153.58 1315.64 1172.59 1331.3 1188.46 1347.15 1204.32 1366.23 1212.25 1388.56 1212.25 1410.71 1212.25 1429.71 1204.32 1445.55 1188.46 1461.22 1172.59 1469.05 1153.58 1469.05 1131.41L1469.05 1107.62C1469.05 1102.93 1470.67 1098.96 1473.91 1095.72 1477.15 1092.47 1481.11 1090.85 1485.8 1090.85L1486.34 1090.85C1490.84 1090.85 1494.71 1092.47 1497.95 1095.72 1501.19 1098.96 1502.81 1102.84 1502.81 1107.35L1502.81 1131.41C1502.81 1169.26 1484.99 1201.8 1449.33 1229.01 1484.99 1256.41 1502.81 1288.95 1502.81 1326.62L1502.81 1353.38C1502.81 1357.89 1501.19 1361.77 1497.95 1365.01 1494.71 1368.25 1490.84 1369.88 1486.34 1369.88L1485.8 1369.88C1481.11 1369.88 1477.15 1368.25 1473.91 1365.01 1470.67 1361.77 1469.05 1357.89 1469.05 1353.38L1469.05 1326.62C1469.05 1304.45 1461.22 1285.43 1445.55 1269.57 1429.71 1253.89 1410.71 1246.05 1388.56 1246.05 1366.23 1246.05 1347.15 1253.89 1331.3 1269.57 1315.64 1285.43 1307.8 1304.45 1307.8 1326.62L1307.8 1353.38C1307.8 1357.89 1306.18 1361.77 1302.94 1365.01 1299.7 1368.25 1295.83 1369.88 1291.33 1369.88L1290.52 1369.88C1286.02 1369.88 1282.14 1368.25 1278.9 1365.01 1275.66 1361.77 1274.04 1357.89 1274.04 1353.38L1274.04 1326.62C1274.04 1288.95 1291.87 1256.41 1327.52 1229.01 1291.87 1201.8 1274.04 1169.26 1274.04 1131.41L1274.04 1107.62C1274.04 1102.93 1275.66 1098.96 1278.9 1095.72 1282.14 1092.47 1286.02 1090.85 1290.52 1090.85ZM1094.37 1090.85C1122.1 1090.85 1147.49 1098.42 1170.54 1113.56 1193.04 1128.34 1209.88 1147.99 1221.04 1172.51 1223.02 1176.65 1223.2 1180.89 1221.58 1185.21 1219.96 1189.36 1217.08 1192.42 1212.94 1194.41 1187.73 1205.76 1154.6 1220.72 1113.54 1239.29 1062.59 1262.36 1026.39 1278.67 1004.97 1288.22 1030.18 1320.67 1059.98 1336.89 1094.37 1336.89 1117.24 1336.89 1137.94 1330.13 1156.49 1316.61 1174.32 1303.64 1186.83 1286.69 1194.03 1265.78 1196.73 1258.21 1202.14 1254.43 1210.24 1254.43 1216 1254.43 1220.59 1256.77 1224.01 1261.46 1227.25 1266.14 1227.89 1271.19 1225.91 1276.6 1216.36 1304.18 1199.71 1326.53 1175.94 1343.65 1151.45 1361.14 1124.26 1369.88 1094.37 1369.88 1055.83 1369.88 1022.97 1356.27 995.784 1329.05 968.594 1301.83 955 1268.94 955 1230.37 955 1191.79 968.594 1158.9 995.784 1131.68 1022.97 1104.46 1055.83 1090.85 1094.37 1090.85ZM2380.68 980.271C2386.62 980.271 2391.66 982.343 2395.8 986.489 2400.13 990.815 2402.29 995.863 2402.29 1001.63 2402.29 1007.58 2400.13 1012.72 2395.8 1017.04 2391.66 1021.19 2386.62 1023.26 2380.68 1023.26 2374.56 1023.26 2369.43 1021.19 2365.28 1017.04 2361.14 1012.9 2359.07 1007.76 2359.07 1001.63 2359.07 995.682 2361.14 990.635 2365.28 986.489 2369.43 982.343 2374.56 980.271 2380.68 980.271ZM3553.28 980 3554.09 980C3558.59 980 3562.46 981.532 3565.7 984.597 3568.95 987.841 3570.57 991.807 3570.57 996.493L3570.57 1090.85 3627.29 1090.85C3631.79 1090.85 3635.66 1092.47 3638.9 1095.72 3642.14 1098.96 3643.76 1102.93 3643.76 1107.62L3643.76 1108.16C3643.76 1112.66 3642.14 1116.54 3638.9 1119.78 3635.66 1123.03 3631.79 1124.65 3627.29 1124.65L3570.57 1124.65 3570.57 1301.2C3570.57 1310.76 3573.99 1318.96 3580.83 1325.81 3587.67 1332.66 3595.96 1336.08 3605.68 1336.08L3627.29 1336.08C3631.79 1336.08 3635.66 1337.7 3638.9 1340.95 3642.14 1344.19 3643.76 1348.16 3643.76 1352.84L3643.76 1353.38C3643.76 1357.89 3642.14 1361.77 3638.9 1365.01 3635.66 1368.25 3631.79 1369.88 3627.29 1369.88L3605.68 1369.88C3586.59 1369.88 3570.3 1363.21 3556.79 1349.87 3543.47 1336.35 3536.8 1320.13 3536.8 1301.2L3536.8 996.493C3536.8 991.807 3538.43 987.841 3541.67 984.597 3544.91 981.532 3548.78 980 3553.28 980Z" fill="#6400AC" fill-rule="evenodd"/><path d="M4236.75 1482.82C4220.92 1482.82 4208.08 1495.64 4208.08 1511.45 4208.08 1527.27 4220.92 1540.08 4236.75 1540.08 4252.58 1540.08 4265.41 1527.27 4265.41 1511.45 4265.41 1495.64 4252.58 1482.82 4236.75 1482.82ZM3927.58 1118.26C3993.53 1118.26 4046.99 1171.66 4046.99 1237.53 4046.99 1303.41 3993.53 1356.81 3927.58 1356.81L3927.01 1356.75 3927.01 1356.58 3927 1356.58 3927 1310.46 3927.01 1310.46 3927.01 1164.54 3927 1164.54 3927 1118.42 3927.01 1118.42 3927.01 1118.32ZM3927 969.395C4019.65 969.395 4101.34 1016.28 4149.58 1087.6L4152.7 1093.34 4159.17 1092.04C4179.22 1092.04 4195.48 1108.27 4195.48 1128.3 4195.48 1138.32 4191.41 1147.38 4184.84 1153.95L4181.49 1156.2 4189.97 1183.47C4193.54 1200.92 4195.42 1218.99 4195.42 1237.5 4195.42 1385.57 4075.24 1505.6 3927 1505.6L3927 1481.93C4062.15 1481.93 4171.72 1372.49 4171.72 1237.5 4171.72 1220.63 4170 1204.15 4166.74 1188.24L4159.38 1164.53 4159.17 1164.57C4139.11 1164.57 4122.86 1148.33 4122.86 1128.3 4122.86 1123.29 4123.87 1118.52 4125.71 1114.19L4132.06 1104.77 4129.92 1100.84C4085.95 1035.82 4011.47 993.071 3927 993.071ZM3927 812C4162.27 812 4353 1002.5 4353 1237.5 4353 1325.62 4326.18 1407.49 4280.25 1475.4L4276.57 1480.31 4284.1 1491.47C4286.71 1497.61 4288.14 1504.36 4288.14 1511.45 4288.14 1539.81 4265.13 1562.79 4236.75 1562.79 4229.65 1562.79 4222.89 1561.35 4216.74 1558.75L4210.45 1554.52 4197.98 1565.84C4124.34 1626.54 4029.93 1663 3927 1663L3927 1637.66C4009.97 1637.66 4087.05 1612.46 4150.99 1569.32L4192.1 1535.44 4189.39 1531.44C4186.79 1525.29 4185.35 1518.54 4185.35 1511.45 4185.35 1483.1 4208.36 1460.12 4236.75 1460.12 4243.84 1460.12 4250.6 1461.55 4256.75 1464.15L4256.78 1464.17 4259.21 1461.23C4302.4 1397.37 4327.63 1320.38 4327.63 1237.5 4327.63 1016.5 4148.26 837.343 3927 837.343Z" fill="#6400AC" fill-rule="evenodd"/><path d="M445.998 429.556C445.998 379.607 415.653 336.826 372.837 319.276 365.938 316.284 358.743 313.875 351.262 312.26 370.786 290.205 381.807 261.469 381.807 230.648 381.807 163.232 328.17 108.398 262.233 108.398 254.322 108.398 246.45 109.22 238.663 110.855 233.024 48.7744 181.782 0 119.594 0 55.8898 0 0 60.8666 0 130.252L0 754.751C0 822.167 53.6375 877.001 119.594 877.001 185.531 877.001 239.169 822.167 239.169 754.751 239.169 753.824 239.159 752.916 239.14 752.074 246.708 753.585 254.417 754.35 262.233 754.35 328.17 754.35 381.807 699.516 381.807 632.129 381.807 601.778 370.996 573.28 351.892 551.283 405.625 539.315 445.981 490.321 445.981 431.863 445.981 431.222 445.914 430.601 445.895 429.961 445.914 429.817 446 429.693 446 429.559ZM119.61 754.238C104.457 754.238 92.1083 741.887 92.1083 726.706 92.1083 711.525 104.437 699.154 119.61 699.154 134.763 699.154 147.092 711.506 147.092 726.706 147.092 741.896 134.754 754.238 119.61 754.238ZM262.782 652.103C247.629 652.103 235.281 639.752 235.281 624.571 235.281 609.39 247.61 597.019 262.782 597.019 277.936 597.019 290.264 609.37 290.264 624.571 290.284 639.742 277.945 652.103 262.782 652.103ZM326.421 526.66C323.959 526.66 321.535 526.478 319.112 526.287 312.833 525.665 307.002 529.566 304.979 535.55 302.956 541.535 305.285 548.131 310.599 551.505 338.052 568.961 354.446 599.113 354.446 632.131 354.446 679.413 320.561 718.619 276.456 725.691L276.456 677.558C300.064 671.43 317.623 650.092 317.623 624.56 317.623 594.255 293.023 569.601 262.783 569.601 232.534 569.601 207.925 594.255 207.925 624.56 207.925 650.094 225.492 671.43 249.098 677.558L249.098 725.853C241.274 724.706 233.611 722.65 226.254 719.457 221.368 717.364 215.691 718.253 211.731 721.799 207.752 725.346 206.187 730.881 207.733 735.986 208.486 738.491 209.154 740.479 209.727 742.238 211.368 747.133 211.807 748.462 211.807 754.733 211.807 802.235 177.636 841.582 133.274 848.408L133.274 779.693C156.882 773.565 174.449 752.237 174.449 726.694 174.449 696.389 149.849 671.735 119.609 671.735 89.3595 671.735 64.7505 696.389 64.7505 726.694 64.7505 752.229 82.3179 773.565 105.917 779.693L105.917 848.408C61.5357 841.582 27.3651 802.235 27.3651 754.733L27.3745 472.928 66.6898 472.928C72.8065 496.578 94.1155 514.177 119.621 514.177 149.871 514.177 174.461 489.532 174.461 459.237 174.461 428.933 149.861 404.279 119.621 404.279 94.1327 404.279 72.8359 421.859 66.7093 445.52L27.3745 445.52 27.3745 258.99 196.007 258.99C202.133 282.641 223.422 300.232 248.918 300.232 279.168 300.232 303.758 275.588 303.758 245.293 303.758 214.988 279.158 190.334 248.918 190.334 223.42 190.334 202.123 207.934 196.007 231.583L151.264 231.583 151.264 177.006C174.871 170.879 192.437 149.55 192.437 124.008 192.437 93.703 167.838 69.0489 137.598 69.0489 107.348 69.0489 82.7393 93.703 82.7393 124.008 82.7393 149.543 100.307 170.878 123.906 177.006L123.906 231.583 27.3843 231.583 27.3843 130.241C27.3843 75.4634 70.4786 27.3986 119.612 27.3986 170.462 27.3986 211.829 69.9399 211.829 122.241 211.829 123.789 211.705 125.338 211.514 128.177 211.208 132.833 213.289 137.336 217.039 140.098 220.789 142.871 225.675 143.55 230.035 141.876 240.57 137.852 251.401 135.816 262.242 135.816 313.092 135.816 354.459 178.357 354.459 230.658 354.459 264.374 337.55 294.843 309.21 312.135 308.924 312.327 308.733 312.604 308.447 312.804 254.465 323.053 213.442 371.473 213.442 429.567 213.442 437.148 219.569 443.276 227.126 443.276 234.674 443.276 240.81 437.148 240.81 429.567 240.81 379.148 280.697 338.129 329.725 338.129 341.452 338.129 352.607 340.529 362.874 344.773 395.633 359.342 418.649 392.887 418.649 431.852 418.639 484.134 377.272 526.665 326.422 526.665ZM92.118 459.234C92.118 444.054 104.447 431.683 119.619 431.683 134.773 431.683 147.101 444.034 147.101 459.234 147.101 474.406 134.773 486.767 119.619 486.767 104.438 486.747 92.118 474.406 92.118 459.234ZM137.587 151.537C122.434 151.537 110.085 139.186 110.085 124.005 110.085 108.824 122.414 96.4533 137.587 96.4533 152.74 96.4533 165.069 108.804 165.069 124.005 165.069 139.195 152.73 151.537 137.587 151.537ZM221.435 245.297C221.435 230.117 233.764 217.746 248.936 217.746 264.09 217.746 276.418 230.097 276.418 245.297 276.418 260.469 264.09 272.829 248.936 272.829 233.755 272.829 221.435 260.478 221.435 245.297Z" fill="#00BBFF" fill-rule="evenodd" transform="matrix(-1 0 0 1 460 799)"/><path d="M674.373 1020.54C649.717 1020.54 628.569 1029.37 610.932 1047.04 593.474 1064.71 584.745 1085.9 584.745 1110.6L584.745 1190.11 764.269 1190.11 764.269 1110.6C764.269 1085.9 755.541 1064.71 738.083 1047.04 720.446 1029.37 699.209 1020.54 674.373 1020.54ZM882.723 987 883.532 987C888.032 987 891.901 988.533 895.141 991.598 898.38 994.843 900 998.81 900 1003.5L900 1360.5C900 1365.01 898.38 1368.89 895.141 1372.13 891.901 1375.38 888.032 1377 883.532 1377L882.723 1377C878.223 1377 874.354 1375.38 871.115 1372.13 867.875 1368.89 866.255 1365.01 866.255 1360.5L866.255 1003.5C866.255 998.81 867.875 994.843 871.115 991.598 874.354 988.533 878.223 987 882.723 987ZM674.373 987C708.568 987 737.724 998.991 761.84 1022.97 785.957 1047.13 798.015 1076.34 798.015 1110.6L798.015 1360.5C798.015 1365.01 796.395 1368.89 793.156 1372.13 789.916 1375.38 786.047 1377 781.547 1377L780.737 1377C776.238 1377 772.369 1375.38 769.129 1372.13 765.889 1368.89 764.269 1365.01 764.269 1360.5L764.269 1223.65 584.745 1223.65 584.745 1360.5C584.745 1365.01 583.126 1368.89 579.886 1372.13 576.646 1375.38 572.777 1377 568.277 1377L567.468 1377C562.969 1377 559.099 1375.38 555.86 1372.13 552.62 1368.89 551 1365.01 551 1360.5L551 1110.6C551 1076.34 563.058 1047.13 587.175 1022.97 611.291 998.991 640.358 987 674.373 987Z" fill="#00BBFF" fill-rule="evenodd"/></g></svg>