<svg width="2902" height="420" xmlns="http://www.w3.org/2000/svg" xmlns:xlink="http://www.w3.org/1999/xlink" xml:space="preserve" overflow="hidden"><defs><clipPath id="clip0"><rect x="749" y="251" width="2902" height="420"/></clipPath></defs><g clip-path="url(#clip0)" transform="translate(-749 -251)"><path d="M3598.88 557.333C3591.78 557.333 3586.03 563.072 3586.03 570.151 3586.03 577.231 3591.78 582.97 3598.88 582.97 3605.98 582.97 3611.73 577.231 3611.73 570.151 3611.73 563.072 3605.98 557.333 3598.88 557.333ZM3460.26 394.117C3489.83 394.117 3513.8 418.024 3513.8 447.516 3513.8 477.007 3489.83 500.915 3460.26 500.915L3460 500.889 3460 500.813 3460 500.814 3460 480.166 3460 480.165 3460 414.835 3460 414.834 3460 394.186 3460 394.186 3460 394.142ZM3460 327.467C3501.54 327.467 3538.17 348.46 3559.79 380.389L3561.19 382.958 3564.09 382.374C3573.08 382.374 3580.37 389.644 3580.37 398.611 3580.37 403.095 3578.55 407.154 3575.6 410.093L3574.1 411.102 3577.9 423.309C3579.51 431.123 3580.35 439.214 3580.35 447.5 3580.35 513.792 3526.47 567.533 3460 567.533L3460 556.933C3520.6 556.933 3569.72 507.938 3569.72 447.5 3569.72 439.945 3568.95 432.569 3567.49 425.446L3564.19 414.829 3564.09 414.848C3555.1 414.848 3547.81 407.579 3547.81 398.611 3547.81 396.369 3548.27 394.234 3549.09 392.291L3551.94 388.078 3550.98 386.315C3531.26 357.206 3497.87 338.067 3460 338.067ZM3460 257C3565.49 257 3651 342.29 3651 447.5 3651 486.954 3638.97 523.606 3618.38 554.01L3616.73 556.208 3620.11 561.205C3621.28 563.955 3621.92 566.978 3621.92 570.151 3621.92 582.845 3611.6 593.135 3598.88 593.135 3595.7 593.135 3592.66 592.492 3589.91 591.329L3587.08 589.431 3581.49 594.499C3548.48 621.675 3506.15 638 3460 638L3460 626.654C3497.2 626.654 3531.76 615.374 3560.43 596.057L3578.86 580.892 3577.64 579.097C3576.48 576.348 3575.83 573.325 3575.83 570.151 3575.83 557.458 3586.15 547.167 3598.88 547.167 3602.06 547.167 3605.09 547.811 3607.85 548.974L3607.86 548.982 3608.95 547.667C3628.31 519.073 3639.62 484.604 3639.62 447.5 3639.62 348.556 3559.2 268.347 3460 268.347Z" fill="#002060" fill-rule="evenodd"/><path d="M199.999 192.002C199.999 169.676 186.392 150.554 167.192 142.71 164.098 141.372 160.872 140.296 157.517 139.573 166.272 129.716 171.214 116.871 171.214 103.094 171.214 72.9612 147.161 48.4516 117.593 48.4516 114.046 48.4516 110.516 48.819 107.024 49.5497 104.495 21.8011 81.5165 0 53.6298 0 25.0627 0 0 27.206 0 58.2198L0 337.357C0 367.491 24.0527 392 53.6298 392 83.198 392 107.251 367.491 107.251 337.357 107.251 336.943 107.246 336.537 107.238 336.161 110.631 336.836 114.089 337.178 117.593 337.178 147.161 337.178 171.214 312.668 171.214 282.548 171.214 268.982 166.366 256.244 157.799 246.412 181.895 241.062 199.992 219.163 199.992 193.033 199.992 192.747 199.962 192.469 199.953 192.183 199.962 192.119 200 192.063 200 192.004ZM53.6367 337.128C46.8416 337.128 41.3042 331.607 41.3042 324.822 41.3042 318.036 46.8328 312.507 53.6367 312.507 60.4319 312.507 65.9605 318.028 65.9605 324.822 65.9605 331.612 60.4276 337.128 53.6367 337.128ZM117.84 291.476C111.045 291.476 105.507 285.955 105.507 279.17 105.507 272.384 111.036 266.855 117.84 266.855 124.635 266.855 130.163 272.375 130.163 279.17 130.172 285.951 124.639 291.476 117.84 291.476ZM146.377 235.406C145.273 235.406 144.186 235.324 143.099 235.239 140.284 234.961 137.669 236.705 136.762 239.38 135.855 242.054 136.899 245.003 139.282 246.511 151.593 254.313 158.945 267.79 158.945 282.549 158.945 303.683 143.75 321.207 123.971 324.368L123.971 302.854C134.558 300.115 142.432 290.577 142.432 279.165 142.432 265.619 131.401 254.599 117.84 254.599 104.275 254.599 93.2398 265.619 93.2398 279.165 93.2398 290.578 101.118 300.115 111.703 302.854L111.703 324.441C108.195 323.928 104.758 323.009 101.459 321.582 99.2684 320.646 96.7224 321.043 94.9466 322.629 93.1622 324.214 92.4604 326.688 93.1537 328.97 93.4917 330.089 93.7912 330.978 94.048 331.764 94.784 333.952 94.9808 334.546 94.9808 337.349 94.9808 358.582 79.6577 376.169 59.7644 379.22L59.7644 348.506C70.3509 345.767 78.2281 336.234 78.2281 324.817 78.2281 311.271 67.197 300.251 53.6365 300.251 40.0716 300.251 29.0361 311.271 29.0361 324.817 29.0361 336.23 36.9139 345.767 47.4965 348.506L47.4965 379.22C27.5945 376.169 12.2713 358.582 12.2713 337.349L12.2756 211.388 29.9058 211.388C32.6487 221.96 42.2043 229.826 53.6418 229.826 67.2067 229.826 78.2335 218.81 78.2335 205.269 78.2335 191.724 67.2024 180.704 53.6418 180.704 42.212 180.704 32.6619 188.562 29.9145 199.138L12.2756 199.138 12.2756 115.763 87.8954 115.763C90.6425 126.335 100.189 134.197 111.623 134.197 125.188 134.197 136.214 123.182 136.214 109.641 136.214 96.095 125.183 85.0753 111.623 85.0753 100.188 85.0753 90.6383 92.9418 87.8954 103.513L67.8312 103.513 67.8312 79.118C78.4177 76.379 86.2949 66.8457 86.2949 55.4288 86.2949 41.8832 75.2637 30.8634 61.7032 30.8634 48.1383 30.8634 37.1028 41.8832 37.1028 55.4288 37.1028 66.8424 44.9806 76.3789 55.5632 79.118L55.5632 103.513 12.28 103.513 12.28 58.2149C12.28 33.7305 31.6048 12.2466 53.6375 12.2466 76.4402 12.2466 94.9905 31.2616 94.9905 54.639 94.9905 55.3312 94.935 56.0235 94.8493 57.2925 94.7123 59.3734 95.6452 61.3861 97.3269 62.621 99.0087 63.8601 101.2 64.1636 103.155 63.4157 107.879 61.6169 112.736 60.7067 117.597 60.7067 140.4 60.7067 158.95 79.7216 158.95 103.099 158.95 118.169 151.368 131.788 138.659 139.518 138.531 139.603 138.446 139.727 138.317 139.817 114.11 144.398 95.7142 166.041 95.7142 192.007 95.7142 195.396 98.4613 198.135 101.85 198.135 105.235 198.135 107.987 195.396 107.987 192.007 107.987 169.471 125.873 151.136 147.859 151.136 153.118 151.136 158.12 152.209 162.724 154.106 177.414 160.618 187.735 175.612 187.735 193.029 187.731 216.397 169.181 235.408 146.378 235.408ZM41.3086 205.268C41.3086 198.482 46.8371 192.953 53.6411 192.953 60.4363 192.953 65.9648 198.474 65.9648 205.268 65.9648 212.049 60.4363 217.574 53.6411 217.574 46.8331 217.566 41.3086 212.049 41.3086 205.268ZM61.6982 67.7337C54.903 67.7337 49.3656 62.213 49.3656 55.4275 49.3656 48.6421 54.8943 43.1125 61.6982 43.1125 68.4933 43.1125 74.0218 48.6332 74.0218 55.4275 74.0218 62.2172 68.489 67.7337 61.6982 67.7337ZM99.2982 109.643C99.2982 102.857 104.827 97.3277 111.631 97.3277 118.426 97.3277 123.955 102.848 123.955 109.643 123.955 116.424 118.426 121.949 111.631 121.949 104.823 121.949 99.2982 116.428 99.2982 109.643Z" fill="#002060" fill-rule="evenodd" transform="matrix(-1 0 0 1 949 251)"/><path d="M2953.09 406.096C2931.34 406.096 2912.74 413.812 2897.29 429.245 2881.98 444.677 2874.32 463.263 2874.32 485.003 2874.32 488.895 2875 495.404 2876.34 504.529L3018.37 440.316C2999.3 417.502 2977.54 406.096 2953.09 406.096ZM2107.29 406.096C2085.54 406.096 2066.93 413.812 2051.49 429.245 2036.18 444.677 2028.52 463.263 2028.52 485.003 2028.52 488.895 2029.19 495.404 2030.54 504.529L2172.57 440.316C2153.49 417.502 2131.74 406.096 2107.29 406.096ZM1858.91 405.291C1837.15 405.291 1818.55 412.94 1803.1 428.238 1787.79 443.671 1780.14 462.257 1780.14 483.997 1780.14 505.602 1787.79 524.122 1803.1 539.554 1818.55 554.987 1837.15 562.703 1858.91 562.703 1880.8 562.703 1899.33 554.987 1914.51 539.554 1929.96 524.122 1937.68 505.602 1937.68 483.997 1937.68 462.257 1929.96 443.671 1914.51 428.238 1899.2 412.94 1880.67 405.291 1858.91 405.291ZM3188.16 380.531C3211.66 380.531 3231.74 388.851 3248.39 405.492 3265.05 422.132 3273.37 442.262 3273.37 465.88L3273.37 575.989C3273.37 579.344 3272.16 582.229 3269.75 584.645 3267.33 587.06 3264.44 588.268 3261.08 588.268L3260.68 588.268C3257.19 588.268 3254.23 587.06 3251.82 584.645 3249.4 582.229 3248.19 579.344 3248.19 575.989L3248.19 465.88C3248.19 449.374 3242.35 435.216 3230.66 423.407 3218.85 411.598 3204.68 405.693 3188.16 405.693 3171.5 405.693 3157.27 411.598 3145.45 423.407 3133.76 435.216 3127.92 449.374 3127.92 465.88L3127.92 575.989C3127.92 579.344 3126.71 582.229 3124.29 584.645 3121.88 587.06 3118.99 588.268 3115.63 588.268L3115.03 588.268C3111.67 588.268 3108.78 587.06 3106.36 584.645 3103.95 582.229 3102.74 579.344 3102.74 575.989L3102.74 465.88C3102.74 442.262 3111.06 422.132 3127.72 405.492 3144.37 388.851 3164.52 380.531 3188.16 380.531ZM2953.09 380.531C2973.78 380.531 2992.71 386.168 3009.91 397.44 3026.69 408.444 3039.25 423.072 3047.58 441.322 3049.06 444.409 3049.19 447.562 3047.98 450.783 3046.77 453.87 3044.62 456.151 3041.54 457.627 3022.73 466.082 2998.02 477.22 2967.4 491.042 2929.39 508.219 2902.39 520.364 2886.41 527.477 2905.21 551.632 2927.44 563.71 2953.09 563.71 2970.15 563.71 2985.6 558.677 2999.43 548.613 3012.73 538.951 3022.06 526.336 3027.43 510.769 3029.45 505.133 3033.48 502.315 3039.52 502.315 3043.82 502.315 3047.24 504.059 3049.79 507.548 3052.21 511.037 3052.68 514.795 3051.21 518.821 3044.09 539.353 3031.66 555.994 3013.94 568.742 2995.67 581.759 2975.39 588.268 2953.09 588.268 2924.35 588.268 2899.84 578.136 2879.56 557.872 2859.28 537.608 2849.14 513.117 2849.14 484.399 2849.14 455.681 2859.28 431.19 2879.56 410.927 2899.84 390.663 2924.35 380.531 2953.09 380.531ZM2572.11 380.531C2600.05 380.531 2624.15 393.817 2644.43 420.388 2664.58 393.817 2688.62 380.531 2716.56 380.531 2740.06 380.531 2760.07 388.784 2776.59 405.291 2793.11 421.931 2801.37 441.926 2801.37 465.276L2801.37 575.989C2801.37 579.478 2800.23 582.363 2797.95 584.645 2795.53 587.06 2792.57 588.268 2789.08 588.268L2788.68 588.268C2785.32 588.268 2782.43 587.06 2780.02 584.645 2777.6 582.229 2776.39 579.344 2776.39 575.989L2776.39 465.276C2776.39 448.905 2770.55 434.881 2758.86 423.206 2747.18 411.531 2733.08 405.693 2716.56 405.693 2700.17 405.693 2686.14 411.531 2674.45 423.206 2662.77 434.881 2656.92 448.905 2656.92 465.276L2656.92 575.989C2656.92 579.344 2655.72 582.229 2653.3 584.645 2650.88 587.06 2647.99 588.268 2644.64 588.268L2644.23 588.268C2640.74 588.268 2637.79 587.06 2635.37 584.645 2632.95 582.229 2631.74 579.344 2631.74 575.989L2631.74 465.276C2631.74 448.905 2625.9 434.881 2614.22 423.206 2602.53 411.531 2588.5 405.693 2572.11 405.693 2555.73 405.693 2541.69 411.531 2530.01 423.206 2518.32 434.881 2512.48 448.905 2512.48 465.276L2512.48 575.989C2512.48 579.344 2511.27 582.229 2508.85 584.645 2506.44 587.06 2503.55 588.268 2500.19 588.268L2499.59 588.268C2496.23 588.268 2493.34 587.06 2490.92 584.645 2488.51 582.229 2487.3 579.344 2487.3 575.989L2487.3 465.276C2487.3 441.926 2495.56 421.931 2512.08 405.291 2528.6 388.784 2548.61 380.531 2572.11 380.531ZM2414.41 380.531 2414.81 380.531C2418.17 380.531 2421.06 381.739 2423.47 384.155 2425.89 386.57 2427.1 389.522 2427.1 393.011L2427.1 575.989C2427.1 579.344 2425.89 582.229 2423.47 584.645 2421.06 587.06 2418.17 588.268 2414.81 588.268L2414.41 588.268C2410.92 588.268 2407.96 587.06 2405.54 584.645 2403.13 582.229 2401.92 579.344 2401.92 575.989L2401.92 393.011C2401.92 389.522 2403.13 386.57 2405.54 384.155 2407.96 381.739 2410.92 380.531 2414.41 380.531ZM2333.69 380.531 2345.17 380.531C2348.67 380.531 2351.62 381.739 2354.04 384.155 2356.32 386.57 2357.46 389.522 2357.46 393.011L2357.46 393.414C2357.46 396.903 2356.32 399.788 2354.04 402.07 2351.62 404.485 2348.67 405.693 2345.17 405.693L2333.69 405.693C2319.46 405.693 2307.3 410.726 2297.23 420.79 2287.29 430.855 2282.25 443 2282.12 457.225L2282.12 575.989C2282.12 579.344 2280.91 582.229 2278.49 584.645 2276.07 587.06 2273.19 588.268 2269.83 588.268L2269.23 588.268C2265.87 588.268 2262.98 587.06 2260.56 584.645 2258.14 582.229 2256.94 579.344 2256.94 575.989L2256.94 457.225C2257.2 435.887 2264.66 417.771 2279.3 402.875 2294.21 387.979 2312.34 380.531 2333.69 380.531ZM2107.29 380.531C2127.98 380.531 2146.91 386.168 2164.1 397.44 2180.89 408.444 2193.45 423.072 2201.78 441.322 2203.25 444.409 2203.39 447.562 2202.18 450.783 2200.97 453.87 2198.82 456.151 2195.73 457.627 2176.93 466.082 2152.22 477.22 2121.6 491.042 2083.59 508.219 2056.59 520.364 2040.61 527.477 2059.41 551.632 2081.64 563.71 2107.29 563.71 2124.35 563.71 2139.79 558.677 2153.63 548.613 2166.92 538.951 2176.26 526.336 2181.63 510.769 2183.65 505.133 2187.67 502.315 2193.72 502.315 2198.02 502.315 2201.44 504.059 2203.99 507.548 2206.41 511.037 2206.88 514.795 2205.4 518.821 2198.28 539.353 2185.86 555.994 2168.13 568.742 2149.87 581.759 2129.59 588.268 2107.29 588.268 2078.55 588.268 2054.04 578.136 2033.76 557.872 2013.48 537.608 2003.34 513.117 2003.34 484.399 2003.34 455.681 2013.48 431.19 2033.76 410.927 2054.04 390.663 2078.55 380.531 2107.29 380.531ZM1858.91 380.531C1887.65 380.531 1912.16 390.663 1932.44 410.927 1952.72 431.19 1962.86 455.681 1962.86 484.399 1962.86 513.117 1952.72 537.608 1932.44 557.872 1912.16 578.136 1887.65 588.268 1858.91 588.268 1832.58 588.268 1806.33 576.592 1780.14 553.242L1780.14 658.721C1780.14 662.076 1778.93 664.961 1776.51 667.377 1774.09 669.792 1771.21 671 1767.85 671L1767.24 671C1763.89 671 1761 669.792 1758.58 667.377 1756.16 664.961 1754.96 662.076 1754.96 658.721L1754.96 483.997C1755.09 455.413 1765.3 430.989 1785.58 410.726 1805.72 390.596 1830.17 380.531 1858.91 380.531ZM1544.18 380.531 1544.78 380.531C1548.14 380.531 1551.03 381.739 1553.44 384.155 1555.86 386.57 1557.07 389.522 1557.07 393.011L1557.07 410.726C1557.07 427.232 1562.91 441.39 1574.6 453.199 1586.42 465.008 1600.65 470.913 1617.31 470.913 1633.83 470.913 1648 465.008 1659.81 453.199 1671.5 441.39 1677.34 427.232 1677.34 410.726L1677.34 393.011C1677.34 389.522 1678.55 386.57 1680.97 384.155 1683.38 381.739 1686.34 380.531 1689.83 380.531L1690.23 380.531C1693.59 380.531 1696.48 381.739 1698.9 384.155 1701.31 386.57 1702.52 389.455 1702.52 392.81L1702.52 410.726C1702.52 438.907 1689.23 463.129 1662.63 483.393 1689.23 503.791 1702.52 528.013 1702.52 556.061L1702.52 575.989C1702.52 579.344 1701.31 582.229 1698.9 584.645 1696.48 587.06 1693.59 588.268 1690.23 588.268L1689.83 588.268C1686.34 588.268 1683.38 587.06 1680.97 584.645 1678.55 582.229 1677.34 579.344 1677.34 575.989L1677.34 556.061C1677.34 539.554 1671.5 525.397 1659.81 513.587 1648 501.912 1633.83 496.074 1617.31 496.074 1600.65 496.074 1586.42 501.912 1574.6 513.587 1562.91 525.397 1557.07 539.554 1557.07 556.061L1557.07 575.989C1557.07 579.344 1555.86 582.229 1553.44 584.645 1551.03 587.06 1548.14 588.268 1544.78 588.268L1544.18 588.268C1540.82 588.268 1537.93 587.06 1535.51 584.645 1533.1 582.229 1531.89 579.344 1531.89 575.989L1531.89 556.061C1531.89 528.013 1545.18 503.791 1571.78 483.393 1545.18 463.129 1531.89 438.907 1531.89 410.726L1531.89 393.011C1531.89 389.522 1533.1 386.57 1535.51 384.155 1537.93 381.739 1540.82 380.531 1544.18 380.531ZM1096.07 322.961C1077.67 322.961 1061.89 329.536 1048.72 342.688 1035.7 355.839 1029.18 371.607 1029.18 389.992L1029.18 449.173 1163.15 449.173 1163.15 389.992C1163.15 371.607 1156.64 355.839 1143.61 342.688 1130.45 329.536 1114.6 322.961 1096.07 322.961ZM2414.61 298.202C2419.04 298.202 2422.8 299.745 2425.89 302.831 2429.12 306.052 2430.73 309.81 2430.73 314.104 2430.73 318.532 2429.12 322.357 2425.89 325.578 2422.8 328.664 2419.04 330.207 2414.61 330.207 2410.04 330.207 2406.22 328.664 2403.13 325.578 2400.04 322.491 2398.49 318.666 2398.49 314.104 2398.49 309.675 2400.04 305.918 2403.13 302.831 2406.22 299.745 2410.04 298.202 2414.61 298.202ZM3338.51 298 3339.12 298C3342.47 298 3345.36 299.141 3347.78 301.422 3350.2 303.838 3351.4 306.79 3351.4 310.279L3351.4 380.531 3393.71 380.531C3397.07 380.531 3399.96 381.739 3402.37 384.155 3404.79 386.57 3406 389.522 3406 393.011L3406 393.414C3406 396.769 3404.79 399.654 3402.37 402.07 3399.96 404.485 3397.07 405.693 3393.71 405.693L3351.4 405.693 3351.4 537.139C3351.4 544.251 3353.96 550.357 3359.06 555.456 3364.16 560.556 3370.34 563.106 3377.59 563.106L3393.71 563.106C3397.07 563.106 3399.96 564.314 3402.37 566.729 3404.79 569.145 3406 572.097 3406 575.586L3406 575.989C3406 579.344 3404.79 582.229 3402.37 584.645 3399.96 587.06 3397.07 588.268 3393.71 588.268L3377.59 588.268C3363.36 588.268 3351.2 583.302 3341.13 573.372 3331.19 563.307 3326.22 551.229 3326.22 537.139L3326.22 310.279C3326.22 306.79 3327.43 303.838 3329.85 301.422 3332.27 299.141 3335.15 298 3338.51 298ZM1405.83 298 1477.75 298C1481.11 298 1483.99 299.208 1486.41 301.623 1488.83 304.039 1490.04 306.924 1490.04 310.279L1490.04 310.682C1490.04 314.171 1488.83 317.123 1486.41 319.539 1483.99 321.954 1481.11 323.162 1477.75 323.162L1405.83 323.162C1395.89 323.162 1387.36 326.718 1380.24 333.831 1373.13 340.943 1369.57 349.464 1369.57 359.395L1369.57 430.654 1477.75 430.654C1481.11 430.654 1483.99 431.794 1486.41 434.076 1488.83 436.491 1490.04 439.444 1490.04 442.932L1490.04 443.335C1490.04 446.824 1488.83 449.777 1486.41 452.192 1483.99 454.473 1481.11 455.614 1477.75 455.614L1369.57 455.614 1369.57 526.873C1369.57 536.803 1373.13 545.325 1380.24 552.437 1387.36 559.55 1395.89 563.106 1405.83 563.106L1477.75 563.106C1481.11 563.106 1483.99 564.314 1486.41 566.729 1488.83 569.145 1490.04 572.097 1490.04 575.586L1490.04 575.989C1490.04 579.344 1488.83 582.229 1486.41 584.645 1483.99 587.06 1481.11 588.268 1477.75 588.268L1405.83 588.268C1388.77 588.268 1374.27 582.296 1362.31 570.352 1350.36 558.409 1344.38 543.916 1344.38 526.873L1344.38 359.395C1344.38 342.352 1350.36 327.859 1362.31 315.916 1374.27 303.972 1388.77 298 1405.83 298ZM1266.45 298 1267.05 298C1270.41 298 1273.3 299.141 1275.71 301.422 1278.13 303.838 1279.34 306.79 1279.34 310.279L1279.34 575.989C1279.34 579.344 1278.13 582.229 1275.71 584.645 1273.3 587.06 1270.41 588.268 1267.05 588.268L1266.45 588.268C1263.09 588.268 1260.2 587.06 1257.78 584.645 1255.37 582.229 1254.16 579.344 1254.16 575.989L1254.16 310.279C1254.16 306.79 1255.37 303.838 1257.78 301.422 1260.2 299.141 1263.09 298 1266.45 298ZM1096.07 298C1121.58 298 1143.34 306.924 1161.34 324.773 1179.34 342.755 1188.33 364.495 1188.33 389.992L1188.33 575.989C1188.33 579.344 1187.13 582.229 1184.71 584.645 1182.29 587.06 1179.4 588.268 1176.05 588.268L1175.44 588.268C1172.08 588.268 1169.2 587.06 1166.78 584.645 1164.36 582.229 1163.15 579.344 1163.15 575.989L1163.15 474.133 1029.18 474.133 1029.18 575.989C1029.18 579.344 1027.97 582.229 1025.56 584.645 1023.14 587.06 1020.25 588.268 1016.89 588.268L1016.29 588.268C1012.93 588.268 1010.04 587.06 1007.63 584.645 1005.21 582.229 1004 579.344 1004 575.989L1004 389.992C1004 364.495 1013 342.755 1031 324.773 1048.99 306.924 1070.68 298 1096.07 298Z" fill="#002060" fill-rule="evenodd"/></g></svg>