<svg width="4183" height="737" xmlns="http://www.w3.org/2000/svg" xmlns:xlink="http://www.w3.org/1999/xlink" xml:space="preserve" overflow="hidden"><defs><clipPath id="clip0"><rect x="109" y="869" width="4183" height="737"/></clipPath><linearGradient x1="565" y1="869" x2="565" y2="1606" gradientUnits="userSpaceOnUse" spreadMethod="reflect" id="fill1"><stop offset="0" stop-color="#8A00F2"/><stop offset="0.00714286" stop-color="#8901F2"/><stop offset="0.0142857" stop-color="#8903F2"/><stop offset="0.0214286" stop-color="#8905F2"/><stop offset="0.0285714" stop-color="#8907F2"/><stop offset="0.0357143" stop-color="#8909F2"/><stop offset="0.0428571" stop-color="#890BF2"/><stop offset="0.05" stop-color="#890CF2"/><stop offset="0.0571429" stop-color="#890EF2"/><stop offset="0.0642857" stop-color="#8910F2"/><stop offset="0.0714286" stop-color="#8912F2"/><stop offset="0.0785714" stop-color="#8814F2"/><stop offset="0.0857143" stop-color="#8815F2"/><stop offset="0.0928571" stop-color="#8817F2"/><stop offset="0.1" stop-color="#8819F2"/><stop offset="0.107143" stop-color="#871AF2"/><stop offset="0.114286" stop-color="#871CF2"/><stop offset="0.121429" stop-color="#871EF2"/><stop offset="0.128571" stop-color="#8720F2"/><stop offset="0.135714" stop-color="#8621F2"/><stop offset="0.142857" stop-color="#8623F3"/><stop offset="0.15" stop-color="#8625F3"/><stop offset="0.157143" stop-color="#8526F3"/><stop offset="0.164286" stop-color="#8528F3"/><stop offset="0.171429" stop-color="#8429F3"/><stop offset="0.178571" stop-color="#842BF3"/><stop offset="0.185714" stop-color="#842DF3"/><stop offset="0.192857" stop-color="#832EF3"/><stop offset="0.2" stop-color="#8330F3"/><stop offset="0.207143" stop-color="#8231F3"/><stop offset="0.214286" stop-color="#8233F3"/><stop offset="0.221429" stop-color="#8134F3"/><stop offset="0.228571" stop-color="#8136F3"/><stop offset="0.235714" stop-color="#8037F3"/><stop offset="0.242857" stop-color="#8039F3"/><stop offset="0.25" stop-color="#7F3AF3"/><stop offset="0.257143" stop-color="#7F3CF3"/><stop offset="0.264286" stop-color="#7E3DF3"/><stop offset="0.271429" stop-color="#7E3FF3"/><stop offset="0.278571" stop-color="#7D40F3"/><stop offset="0.285714" stop-color="#7C41F3"/><stop offset="0.292857" stop-color="#7C43F3"/><stop offset="0.3" stop-color="#7B44F3"/><stop offset="0.307143" stop-color="#7A46F3"/><stop offset="0.314286" stop-color="#7A47F4"/><stop offset="0.321429" stop-color="#7948F4"/><stop offset="0.328571" stop-color="#784AF4"/><stop offset="0.335714" stop-color="#784BF4"/><stop offset="0.342857" stop-color="#774CF4"/><stop offset="0.35" stop-color="#764EF4"/><stop offset="0.357143" stop-color="#754FF4"/><stop offset="0.364286" stop-color="#7550F4"/><stop offset="0.371429" stop-color="#7451F4"/><stop offset="0.378571" stop-color="#7353F4"/><stop offset="0.385714" stop-color="#7254F4"/><stop offset="0.392857" stop-color="#7255F4"/><stop offset="0.4" stop-color="#7156F4"/><stop offset="0.407143" stop-color="#7058F4"/><stop offset="0.414286" stop-color="#6F59F4"/><stop offset="0.421429" stop-color="#6E5AF4"/><stop offset="0.428571" stop-color="#6D5BF4"/><stop offset="0.435714" stop-color="#6C5CF4"/><stop offset="0.442857" stop-color="#6C5DF4"/><stop offset="0.45" stop-color="#6B5FF4"/><stop offset="0.457143" stop-color="#6A60F4"/><stop offset="0.464286" stop-color="#6961F4"/><stop offset="0.471429" stop-color="#6862F4"/><stop offset="0.478571" stop-color="#6763F4"/><stop offset="0.485714" stop-color="#6664F4"/><stop offset="0.492857" stop-color="#6565F4"/><stop offset="0.5" stop-color="#6466F4"/><stop offset="0.507143" stop-color="#6367F4"/><stop offset="0.514286" stop-color="#6268F4"/><stop offset="0.521429" stop-color="#6169F4"/><stop offset="0.528571" stop-color="#606AF5"/><stop offset="0.535714" stop-color="#5F6BF5"/><stop offset="0.542857" stop-color="#5E6CF5"/><stop offset="0.55" stop-color="#5D6DF5"/><stop offset="0.557143" stop-color="#5B6EF5"/><stop offset="0.564286" stop-color="#5A6FF5"/><stop offset="0.571429" stop-color="#5970F5"/><stop offset="0.578571" stop-color="#5871F5"/><stop offset="0.585714" stop-color="#5771F5"/><stop offset="0.592857" stop-color="#5672F5"/><stop offset="0.6" stop-color="#5573F5"/><stop offset="0.607143" stop-color="#5374F5"/><stop offset="0.614286" stop-color="#5275F5"/><stop offset="0.621429" stop-color="#5176F5"/><stop offset="0.628571" stop-color="#5076F5"/><stop offset="0.635714" stop-color="#4E77F5"/><stop offset="0.642857" stop-color="#4D78F5"/><stop offset="0.65" stop-color="#4C79F5"/><stop offset="0.657143" stop-color="#4B7AF5"/><stop offset="0.664286" stop-color="#497AF5"/><stop offset="0.671429" stop-color="#487BF5"/><stop offset="0.678571" stop-color="#477CF5"/><stop offset="0.685714" stop-color="#457CF5"/><stop offset="0.692857" stop-color="#447DF5"/><stop offset="0.7" stop-color="#437EF5"/><stop offset="0.707143" stop-color="#417EF5"/><stop offset="0.714286" stop-color="#407FF5"/><stop offset="0.721429" stop-color="#3F80F5"/><stop offset="0.728571" stop-color="#3D80F5"/><stop offset="0.735714" stop-color="#3C81F5"/><stop offset="0.742857" stop-color="#3A81F5"/><stop offset="0.75" stop-color="#3982F5"/><stop offset="0.757143" stop-color="#3883F5"/><stop offset="0.764286" stop-color="#3683F5"/><stop offset="0.771429" stop-color="#3584F5"/><stop offset="0.778571" stop-color="#3384F5"/><stop offset="0.785714" stop-color="#3285F5"/><stop offset="0.792857" stop-color="#3085F5"/><stop offset="0.8" stop-color="#2F86F5"/><stop offset="0.807143" stop-color="#2D86F5"/><stop offset="0.814286" stop-color="#2C86F5"/><stop offset="0.821429" stop-color="#2A87F5"/><stop offset="0.828571" stop-color="#2987F5"/><stop offset="0.835714" stop-color="#2788F5"/><stop offset="0.842857" stop-color="#2588F5"/><stop offset="0.85" stop-color="#2488F5"/><stop offset="0.857143" stop-color="#2289F5"/><stop offset="0.864286" stop-color="#2189F5"/><stop offset="0.871429" stop-color="#1F89F5"/><stop offset="0.878571" stop-color="#1D8AF5"/><stop offset="0.885714" stop-color="#1C8AF5"/><stop offset="0.892857" stop-color="#1A8AF5"/><stop offset="0.9" stop-color="#188BF5"/><stop offset="0.907143" stop-color="#178BF5"/><stop offset="0.914286" stop-color="#158BF5"/><stop offset="0.921429" stop-color="#138BF5"/><stop offset="0.928571" stop-color="#118BF5"/><stop offset="0.935714" stop-color="#108CF5"/><stop offset="0.942857" stop-color="#0E8CF5"/><stop offset="0.95" stop-color="#0C8CF5"/><stop offset="0.957143" stop-color="#0A8CF5"/><stop offset="0.964286" stop-color="#098CF5"/><stop offset="0.971429" stop-color="#078CF5"/><stop offset="0.978571" stop-color="#058CF5"/><stop offset="0.985714" stop-color="#038CF5"/><stop offset="0.992857" stop-color="#018CF5"/><stop offset="1" stop-color="#008DF6"/></linearGradient><linearGradient x1="565" y1="869" x2="565" y2="1606" gradientUnits="userSpaceOnUse" spreadMethod="reflect" id="fill2"><stop offset="0" stop-color="#8A00F2"/><stop offset="0.00714286" stop-color="#8901F2"/><stop offset="0.0142857" stop-color="#8903F2"/><stop offset="0.0214286" stop-color="#8905F2"/><stop offset="0.0285714" stop-color="#8907F2"/><stop offset="0.0357143" stop-color="#8909F2"/><stop offset="0.0428571" stop-color="#890BF2"/><stop offset="0.05" stop-color="#890CF2"/><stop offset="0.0571429" stop-color="#890EF2"/><stop offset="0.0642857" stop-color="#8910F2"/><stop offset="0.0714286" stop-color="#8912F2"/><stop offset="0.0785714" stop-color="#8814F2"/><stop offset="0.0857143" stop-color="#8815F2"/><stop offset="0.0928571" stop-color="#8817F2"/><stop offset="0.1" stop-color="#8819F2"/><stop offset="0.107143" stop-color="#871AF2"/><stop offset="0.114286" stop-color="#871CF2"/><stop offset="0.121429" stop-color="#871EF2"/><stop offset="0.128571" stop-color="#8720F2"/><stop offset="0.135714" stop-color="#8621F2"/><stop offset="0.142857" stop-color="#8623F3"/><stop offset="0.15" stop-color="#8625F3"/><stop offset="0.157143" stop-color="#8526F3"/><stop offset="0.164286" stop-color="#8528F3"/><stop offset="0.171429" stop-color="#8429F3"/><stop offset="0.178571" stop-color="#842BF3"/><stop offset="0.185714" stop-color="#842DF3"/><stop offset="0.192857" stop-color="#832EF3"/><stop offset="0.2" stop-color="#8330F3"/><stop offset="0.207143" stop-color="#8231F3"/><stop offset="0.214286" stop-color="#8233F3"/><stop offset="0.221429" stop-color="#8134F3"/><stop offset="0.228571" stop-color="#8136F3"/><stop offset="0.235714" stop-color="#8037F3"/><stop offset="0.242857" stop-color="#8039F3"/><stop offset="0.25" stop-color="#7F3AF3"/><stop offset="0.257143" stop-color="#7F3CF3"/><stop offset="0.264286" stop-color="#7E3DF3"/><stop offset="0.271429" stop-color="#7E3FF3"/><stop offset="0.278571" stop-color="#7D40F3"/><stop offset="0.285714" stop-color="#7C41F3"/><stop offset="0.292857" stop-color="#7C43F3"/><stop offset="0.3" stop-color="#7B44F3"/><stop offset="0.307143" stop-color="#7A46F3"/><stop offset="0.314286" stop-color="#7A47F4"/><stop offset="0.321429" stop-color="#7948F4"/><stop offset="0.328571" stop-color="#784AF4"/><stop offset="0.335714" stop-color="#784BF4"/><stop offset="0.342857" stop-color="#774CF4"/><stop offset="0.35" stop-color="#764EF4"/><stop offset="0.357143" stop-color="#754FF4"/><stop offset="0.364286" stop-color="#7550F4"/><stop offset="0.371429" stop-color="#7451F4"/><stop offset="0.378571" stop-color="#7353F4"/><stop offset="0.385714" stop-color="#7254F4"/><stop offset="0.392857" stop-color="#7255F4"/><stop offset="0.4" stop-color="#7156F4"/><stop offset="0.407143" stop-color="#7058F4"/><stop offset="0.414286" stop-color="#6F59F4"/><stop offset="0.421429" stop-color="#6E5AF4"/><stop offset="0.428571" stop-color="#6D5BF4"/><stop offset="0.435714" stop-color="#6C5CF4"/><stop offset="0.442857" stop-color="#6C5DF4"/><stop offset="0.45" stop-color="#6B5FF4"/><stop offset="0.457143" stop-color="#6A60F4"/><stop offset="0.464286" stop-color="#6961F4"/><stop offset="0.471429" stop-color="#6862F4"/><stop offset="0.478571" stop-color="#6763F4"/><stop offset="0.485714" stop-color="#6664F4"/><stop offset="0.492857" stop-color="#6565F4"/><stop offset="0.5" stop-color="#6466F4"/><stop offset="0.507143" stop-color="#6367F4"/><stop offset="0.514286" stop-color="#6268F4"/><stop offset="0.521429" stop-color="#6169F4"/><stop offset="0.528571" stop-color="#606AF5"/><stop offset="0.535714" stop-color="#5F6BF5"/><stop offset="0.542857" stop-color="#5E6CF5"/><stop offset="0.55" stop-color="#5D6DF5"/><stop offset="0.557143" stop-color="#5B6EF5"/><stop offset="0.564286" stop-color="#5A6FF5"/><stop offset="0.571429" stop-color="#5970F5"/><stop offset="0.578571" stop-color="#5871F5"/><stop offset="0.585714" stop-color="#5771F5"/><stop offset="0.592857" stop-color="#5672F5"/><stop offset="0.6" stop-color="#5573F5"/><stop offset="0.607143" stop-color="#5374F5"/><stop offset="0.614286" stop-color="#5275F5"/><stop offset="0.621429" stop-color="#5176F5"/><stop offset="0.628571" stop-color="#5076F5"/><stop offset="0.635714" stop-color="#4E77F5"/><stop offset="0.642857" stop-color="#4D78F5"/><stop offset="0.65" stop-color="#4C79F5"/><stop offset="0.657143" stop-color="#4B7AF5"/><stop offset="0.664286" stop-color="#497AF5"/><stop offset="0.671429" stop-color="#487BF5"/><stop offset="0.678571" stop-color="#477CF5"/><stop offset="0.685714" stop-color="#457CF5"/><stop offset="0.692857" stop-color="#447DF5"/><stop offset="0.7" stop-color="#437EF5"/><stop offset="0.707143" stop-color="#417EF5"/><stop offset="0.714286" stop-color="#407FF5"/><stop offset="0.721429" stop-color="#3F80F5"/><stop offset="0.728571" stop-color="#3D80F5"/><stop offset="0.735714" stop-color="#3C81F5"/><stop offset="0.742857" stop-color="#3A81F5"/><stop offset="0.75" stop-color="#3982F5"/><stop offset="0.757143" stop-color="#3883F5"/><stop offset="0.764286" stop-color="#3683F5"/><stop offset="0.771429" stop-color="#3584F5"/><stop offset="0.778571" stop-color="#3384F5"/><stop offset="0.785714" stop-color="#3285F5"/><stop offset="0.792857" stop-color="#3085F5"/><stop offset="0.8" stop-color="#2F86F5"/><stop offset="0.807143" stop-color="#2D86F5"/><stop offset="0.814286" stop-color="#2C86F5"/><stop offset="0.821429" stop-color="#2A87F5"/><stop offset="0.828571" stop-color="#2987F5"/><stop offset="0.835714" stop-color="#2788F5"/><stop offset="0.842857" stop-color="#2588F5"/><stop offset="0.85" stop-color="#2488F5"/><stop offset="0.857143" stop-color="#2289F5"/><stop offset="0.864286" stop-color="#2189F5"/><stop offset="0.871429" stop-color="#1F89F5"/><stop offset="0.878571" stop-color="#1D8AF5"/><stop offset="0.885714" stop-color="#1C8AF5"/><stop offset="0.892857" stop-color="#1A8AF5"/><stop offset="0.9" stop-color="#188BF5"/><stop offset="0.907143" stop-color="#178BF5"/><stop offset="0.914286" stop-color="#158BF5"/><stop offset="0.921429" stop-color="#138BF5"/><stop offset="0.928571" stop-color="#118BF5"/><stop offset="0.935714" stop-color="#108CF5"/><stop offset="0.942857" stop-color="#0E8CF5"/><stop offset="0.95" stop-color="#0C8CF5"/><stop offset="0.957143" stop-color="#0A8CF5"/><stop offset="0.964286" stop-color="#098CF5"/><stop offset="0.971429" stop-color="#078CF5"/><stop offset="0.978571" stop-color="#058CF5"/><stop offset="0.985714" stop-color="#038CF5"/><stop offset="0.992857" stop-color="#018CF5"/><stop offset="1" stop-color="#008DF6"/></linearGradient></defs><g clip-path="url(#clip0)" transform="translate(-109 -869)"><path d="M4191.3 1449.96C4177.59 1449.96 4166.47 1461.06 4166.47 1474.75 4166.47 1488.45 4177.59 1499.55 4191.3 1499.55 4205.02 1499.55 4216.13 1488.45 4216.13 1474.75 4216.13 1461.06 4205.02 1449.96 4191.3 1449.96ZM3923.5 1134.24C3980.63 1134.24 4026.94 1180.48 4026.94 1237.53 4026.94 1294.58 3980.63 1340.82 3923.5 1340.82L3923.01 1340.78 3923.01 1340.63 3923 1340.63 3923 1300.69 3923.01 1300.69 3923.01 1174.31 3923 1174.31 3923 1134.37 3923.01 1134.37 3923.01 1134.29ZM3923 1005.31C4003.26 1005.31 4074.01 1045.92 4115.8 1107.68L4118.5 1112.65 4124.1 1111.52C4141.47 1111.52 4155.55 1125.58 4155.55 1142.93 4155.55 1151.6 4152.03 1159.46 4146.34 1165.14L4143.44 1167.09 4150.78 1190.71C4153.88 1205.82 4155.5 1221.47 4155.5 1237.5 4155.5 1365.73 4051.41 1469.69 3923 1469.69L3923 1449.19C4040.07 1449.19 4134.97 1354.41 4134.97 1237.5 4134.97 1222.89 4133.49 1208.62 4130.67 1194.84L4124.28 1174.3 4124.1 1174.34C4106.73 1174.34 4092.65 1160.28 4092.65 1142.93 4092.65 1138.59 4093.53 1134.46 4095.12 1130.7L4100.62 1122.55 4098.77 1119.15C4060.68 1062.84 3996.17 1025.81 3923 1025.81ZM3923 869C4126.79 869 4292 1033.98 4292 1237.5 4292 1313.82 4268.77 1384.72 4228.98 1443.53L4225.8 1447.78 4232.32 1457.45C4234.58 1462.77 4235.82 1468.62 4235.82 1474.75 4235.82 1499.31 4215.89 1519.21 4191.3 1519.21 4185.16 1519.21 4179.3 1517.97 4173.97 1515.72L4168.52 1512.05 4157.72 1521.85C4093.93 1574.42 4012.16 1606 3923 1606L3923 1584.05C3994.87 1584.05 4061.64 1562.23 4117.02 1524.87L4152.63 1495.53 4150.28 1492.06C4148.03 1486.74 4146.78 1480.89 4146.78 1474.75 4146.78 1450.2 4166.71 1430.3 4191.3 1430.3 4197.45 1430.3 4203.3 1431.54 4208.63 1433.79L4208.65 1433.8 4210.76 1431.26C4248.17 1375.95 4270.02 1309.27 4270.02 1237.5 4270.02 1046.1 4114.65 890.948 3923 890.948Z" fill="#002060" fill-rule="evenodd"/><path d="M3424.84 1061.96C3376.32 1061.96 3334.83 1079.18 3300.4 1113.62 3265.7 1148.07 3248.35 1189.55 3248.35 1238.09 3248.35 1246.7 3248.87 1255.18 3249.92 1263.53 3251.48 1275.27 3254.48 1286.88 3258.92 1298.36 3294.4 1282.18 3348.01 1257.92 3419.75 1225.56 3490.45 1193.73 3544.07 1169.59 3580.59 1153.15 3573.81 1142.19 3566.76 1132.67 3559.46 1124.58 3523.98 1082.83 3479.1 1061.96 3424.84 1061.96ZM2743.96 1061.96C2695.43 1061.96 2653.95 1079.18 2619.52 1113.62 2584.82 1148.07 2567.47 1189.55 2567.47 1238.09 2567.47 1286.62 2584.82 1328.11 2619.52 1362.55 2653.95 1396.99 2695.43 1414.22 2743.96 1414.22 2792.48 1414.22 2833.97 1396.99 2868.4 1362.55 2903.1 1328.11 2920.45 1286.62 2920.45 1238.09 2920.45 1189.55 2903.1 1148.07 2868.4 1113.62 2833.97 1079.18 2792.48 1061.96 2743.96 1061.96ZM1304.4 1061.96C1255.88 1061.96 1214.4 1079.18 1179.96 1113.62 1145.26 1148.07 1127.91 1189.55 1127.91 1238.09 1127.91 1246.7 1128.44 1255.18 1129.48 1263.53 1131.04 1275.27 1134.04 1286.88 1138.48 1298.36 1173.96 1282.18 1227.57 1257.92 1299.32 1225.56 1370.02 1193.73 1423.63 1169.59 1460.15 1153.15 1453.37 1142.19 1446.33 1132.67 1439.02 1124.58 1403.54 1082.83 1358.67 1061.96 1304.4 1061.96ZM2161.72 1060.39C2113.19 1060.39 2071.71 1077.61 2037.27 1112.06 2002.57 1146.5 1985.23 1187.99 1985.23 1236.52 1985.23 1285.32 2002.57 1326.93 2037.27 1361.38 2071.71 1395.82 2113.19 1413.04 2161.72 1413.04 2210.24 1413.04 2251.72 1395.82 2286.16 1361.38 2320.59 1326.93 2337.81 1285.32 2337.81 1236.52 2337.81 1187.99 2320.59 1146.5 2286.16 1112.06 2251.72 1077.61 2210.24 1060.39 2161.72 1060.39ZM2161.72 1039.26C2216.5 1039.26 2263.2 1058.57 2301.81 1097.18 2340.68 1136.06 2360.12 1182.9 2360.12 1237.7 2360.12 1292.23 2340.68 1338.94 2301.81 1377.82 2263.2 1416.69 2216.5 1436.13 2161.72 1436.13 2111.36 1436.13 2067.54 1419.56 2030.23 1386.43 2015.1 1372.86 2000.1 1353.55 1985.23 1328.5L1985.23 1595.04C1985.23 1602.35 1981.7 1606 1974.66 1606L1973.88 1606C1966.83 1606 1963.31 1602.35 1963.31 1595.04L1963.31 1237.7C1963.57 1182.64 1983.01 1135.8 2021.62 1097.18 2060.49 1058.57 2107.19 1039.26 2161.72 1039.26ZM3826.56 1038.47 3850.43 1038.47C3857.48 1038.47 3861 1042.13 3861 1049.43 3861 1057.26 3857.48 1061.18 3850.43 1061.18L3826.56 1061.18C3793.17 1061.18 3764.86 1072.66 3741.64 1095.62 3718.43 1118.84 3706.56 1147.41 3706.03 1181.33L3706.03 1424.78C3706.03 1431.83 3702.51 1435.35 3695.47 1435.35L3694.29 1435.35C3687.51 1435.35 3684.12 1431.83 3684.12 1424.78L3684.12 1181.33C3684.38 1141.41 3698.34 1107.62 3725.99 1079.96 3753.38 1052.3 3786.91 1038.47 3826.56 1038.47ZM3424.84 1038.47C3463.45 1038.47 3499.06 1049.04 3531.67 1070.18 3564.28 1091.05 3588.68 1119.1 3604.85 1154.33 3606.16 1157.2 3606.42 1159.81 3605.63 1162.16 3604.59 1165.29 3602.9 1167.37 3600.55 1168.42 3564.54 1184.34 3513.67 1207.17 3447.93 1236.91 3381.14 1267.18 3330.53 1290.01 3296.09 1305.41 3292.44 1306.97 3287.75 1309.19 3282.01 1312.06 3276.01 1314.67 3271.18 1316.76 3267.53 1318.32 3272.22 1328.76 3278.35 1338.28 3285.92 1346.9 3321.4 1391.78 3367.71 1414.22 3424.84 1414.22 3462.15 1414.22 3496.06 1403.26 3526.59 1381.34 3557.11 1359.68 3578.63 1331.24 3591.16 1296.01 3592.72 1291.06 3596.37 1288.58 3602.11 1288.58 3605.76 1288.58 3608.5 1290.01 3610.33 1292.88 3612.68 1296.01 3613.2 1299.41 3611.9 1303.06 3598.07 1342.46 3573.94 1374.42 3539.5 1398.95 3505.06 1423.22 3466.84 1435.35 3424.84 1435.35 3370.05 1435.35 3323.36 1415.91 3284.74 1377.03 3245.87 1338.42 3226.44 1291.71 3226.44 1236.91 3226.44 1182.12 3245.87 1135.41 3284.74 1096.79 3323.36 1057.91 3370.05 1038.47 3424.84 1038.47ZM3151.78 1038.47 3175.65 1038.47C3182.69 1038.47 3186.22 1042.13 3186.22 1049.43 3186.22 1057.26 3182.69 1061.18 3175.65 1061.18L3151.78 1061.18C3118.39 1061.18 3090.08 1072.66 3066.86 1095.62 3043.64 1118.84 3031.77 1147.41 3031.25 1181.33L3031.25 1424.78C3031.25 1431.83 3027.73 1435.35 3020.68 1435.35L3019.51 1435.35C3012.73 1435.35 3009.34 1431.83 3009.34 1424.78L3009.34 1181.33C3009.6 1141.41 3023.55 1107.62 3051.21 1079.96 3078.6 1052.3 3112.12 1038.47 3151.78 1038.47ZM2743.96 1038.47C2798.75 1038.47 2845.44 1057.91 2884.06 1096.79 2922.93 1135.41 2942.36 1182.12 2942.36 1236.91 2942.36 1291.71 2922.93 1338.42 2884.06 1377.03 2845.44 1415.91 2798.75 1435.35 2743.96 1435.35 2689.17 1435.35 2642.48 1415.91 2603.86 1377.03 2564.99 1338.42 2545.56 1291.71 2545.56 1236.91 2545.56 1182.12 2564.99 1135.41 2603.86 1096.79 2642.48 1057.91 2689.17 1038.47 2743.96 1038.47ZM1574.64 1038.47C1581.94 1038.47 1585.6 1042.13 1585.6 1049.43L1585.6 1085.83C1585.6 1123.93 1599.16 1156.42 1626.3 1183.29 1653.17 1210.17 1685.65 1223.61 1723.74 1223.61 1761.83 1223.61 1794.44 1210.17 1821.57 1183.29 1848.7 1156.42 1862.27 1123.93 1862.27 1085.83L1862.27 1049.43C1862.27 1042.13 1865.66 1038.47 1872.44 1038.47 1880.27 1038.47 1884.18 1042.13 1884.18 1049.43L1884.18 1085.83C1884.18 1138.54 1863.05 1181.07 1820.79 1213.43 1810.87 1221.26 1795.74 1228.43 1775.39 1234.96 1796 1242 1811.13 1249.18 1820.79 1256.48 1863.05 1288.84 1884.18 1331.5 1884.18 1384.47L1884.18 1424.78C1884.18 1431.83 1880.66 1435.35 1873.61 1435.35L1872.44 1435.35C1865.66 1435.35 1862.27 1431.83 1862.27 1424.78L1862.27 1384.47C1862.27 1346.11 1848.7 1313.5 1821.57 1286.62 1794.44 1259.48 1761.83 1245.92 1723.74 1245.92 1685.65 1245.92 1653.17 1259.48 1626.3 1286.62 1599.16 1313.5 1585.6 1346.11 1585.6 1384.47L1585.6 1424.78C1585.6 1431.83 1582.2 1435.35 1575.42 1435.35 1567.6 1435.35 1563.68 1431.83 1563.68 1424.78L1563.68 1384.47C1563.68 1331.24 1584.81 1288.58 1627.08 1256.48 1639.08 1247.35 1654.47 1240.17 1673.25 1234.96 1651.86 1227.65 1636.47 1220.47 1627.08 1213.43 1584.81 1181.33 1563.68 1138.8 1563.68 1085.83L1563.68 1049.43C1563.68 1042.13 1567.33 1038.47 1574.64 1038.47ZM1304.4 1038.47C1343.01 1038.47 1378.63 1049.04 1411.24 1070.18 1443.85 1091.05 1468.24 1119.1 1484.42 1154.33 1485.72 1157.2 1485.98 1159.81 1485.2 1162.16 1484.15 1165.29 1482.46 1167.37 1480.11 1168.42 1444.11 1184.34 1393.24 1207.17 1327.49 1236.91 1260.71 1267.18 1210.09 1290.01 1175.66 1305.41 1172 1306.97 1167.31 1309.19 1161.57 1312.06 1155.57 1314.67 1150.74 1316.76 1147.09 1318.32 1151.79 1328.76 1157.92 1338.28 1165.48 1346.9 1200.96 1391.78 1247.27 1414.22 1304.4 1414.22 1341.71 1414.22 1375.63 1403.26 1406.15 1381.34 1436.67 1359.68 1458.2 1331.24 1470.72 1296.01 1472.28 1291.06 1475.94 1288.58 1481.68 1288.58 1485.33 1288.58 1488.07 1290.01 1489.89 1292.88 1492.24 1296.01 1492.76 1299.41 1491.46 1303.06 1477.63 1342.46 1453.5 1374.42 1419.06 1398.95 1384.63 1423.22 1346.41 1435.35 1304.4 1435.35 1249.62 1435.35 1202.92 1415.91 1164.31 1377.03 1125.44 1338.42 1106 1291.71 1106 1236.91 1106 1182.12 1125.44 1135.41 1164.31 1096.79 1202.92 1057.91 1249.62 1038.47 1304.4 1038.47ZM2452.88 869C2460.19 869 2463.84 872.522 2463.84 879.568L2463.84 1424.78C2463.84 1431.83 2460.45 1435.35 2453.66 1435.35 2445.84 1435.35 2441.92 1431.83 2441.92 1424.78L2441.92 879.568C2441.92 872.522 2445.58 869 2452.88 869Z" fill="#002060" fill-rule="evenodd"/><path d="M383.291 1482.28C370.543 1482.28 360.157 1492.67 360.157 1505.44 360.173 1518.24 370.543 1528.62 383.291 1528.62 396.047 1528.62 406.441 1518.23 406.441 1505.44 406.441 1492.67 396.063 1482.28 383.291 1482.28ZM297.651 1294.82C284.891 1294.82 274.51 1305.21 274.51 1318.01 274.51 1330.77 284.891 1341.18 297.651 1341.18 310.435 1341.18 320.809 1330.78 320.809 1318.01 320.809 1305.23 310.428 1294.82 297.651 1294.82ZM391.415 1192.74C378.655 1192.74 368.274 1203.14 368.274 1215.93 368.274 1228.71 378.663 1239.1 391.415 1239.1 404.175 1239.1 414.573 1228.7 414.573 1215.93 414.573 1203.15 404.191 1192.74 391.415 1192.74ZM252.499 1036.36C239.719 1036.37 229.349 1046.76 229.349 1059.52 229.349 1072.29 239.727 1082.7 252.499 1082.7 265.255 1082.7 275.633 1072.31 275.633 1059.52 275.633 1046.76 265.255 1036.36 252.499 1036.36ZM383.291 942.473C370.543 942.473 360.173 952.856 360.157 965.652 360.157 978.423 370.543 988.814 383.291 988.814 396.063 988.814 406.441 978.423 406.441 965.652 406.441 952.864 396.047 942.473 383.291 942.473ZM371.785 893.203 367.826 893.615C332.524 901.061 305.893 933.25 305.893 971.693 305.893 972.995 305.997 974.296 306.078 975.574 306.182 977.108 305.909 978.682 305.436 980.193 310.797 1017.2 341.831 1045.7 379.31 1045.7 385.664 1045.7 390.815 1050.85 390.815 1057.22 390.815 1063.59 385.656 1068.74 379.31 1068.74 331.15 1068.74 291.097 1032.95 283.082 986.075 276.615 984.3 270.075 983.103 263.504 983.103 226.092 983.103 194.784 1010.49 187.542 1046.77L187.42 1048 207.944 1048C213.093 1028.1 231.03 1013.3 252.5 1013.3 277.964 1013.3 298.663 1034.03 298.663 1059.52 298.663 1085.01 277.956 1105.75 252.5 1105.75 231.045 1105.75 213.118 1090.96 207.96 1071.06L186.482 1071.06 186.621 1073.28C189.67 1097.36 203.166 1118.54 224.011 1131.27 224.26 1131.43 224.412 1131.66 224.653 1131.84 270.043 1140.46 304.537 1181.15 304.537 1229.96 304.537 1236.33 299.377 1241.48 293.031 1241.48 286.676 1241.48 281.525 1236.33 281.525 1229.96 281.525 1187.59 247.986 1153.12 206.762 1153.12 196.901 1153.12 187.513 1155.13 178.888 1158.72 151.335 1170.96 131.99 1199.14 131.99 1231.9 131.99 1275.82 166.773 1311.57 209.53 1311.57 211.609 1311.57 213.655 1311.44 215.677 1311.26 220.98 1310.67 225.859 1314.02 227.56 1319.04 229.261 1324.06 227.311 1329.62 222.834 1332.45 200.375 1346.73 186.823 1371.13 186.109 1398 186.35 1398.93 186.687 1399.83 186.687 1400.83 186.687 1443.22 220.225 1477.7 261.45 1477.7 302.675 1477.7 336.214 1443.22 336.214 1400.83 336.214 1394.46 341.373 1389.31 347.719 1389.31 354.074 1389.31 359.225 1394.46 359.225 1400.83 359.225 1438.21 339.014 1470.8 309.214 1487.93 308.636 1489.8 308.114 1491.4 307.657 1492.75 306.277 1496.86 305.908 1497.98 305.908 1503.25 305.908 1541.71 332.532 1573.89 367.838 1581.33L371.785 1581.74 371.785 1550.05C351.913 1544.9 337.126 1526.94 337.126 1505.44 337.126 1479.95 357.833 1459.22 383.288 1459.22 408.752 1459.22 429.468 1479.95 429.468 1505.44 429.468 1526.92 414.695 1544.87 394.814 1550.04L394.814 1581.77 399.058 1581.33C434.365 1573.89 460.996 1541.7 460.996 1503.25L460.99 1503.26 460.987 1329.53 342.222 1329.53C337.063 1349.43 319.136 1364.24 297.666 1364.24 272.194 1364.24 251.488 1343.5 251.488 1318 251.488 1292.5 272.202 1271.75 297.666 1271.75 319.138 1271.75 337.071 1286.56 342.222 1306.46L379.898 1306.46 379.898 1260.53C360.019 1255.38 345.227 1237.43 345.227 1215.93 345.227 1190.43 365.941 1169.68 391.406 1169.68 416.878 1169.68 437.6 1190.43 437.6 1215.93 437.6 1237.42 422.807 1255.38 402.935 1260.53L402.935 1306.46 460.987 1306.46 460.982 978.416C460.982 938.139 433.233 902.179 398.625 893.818L394.814 893.36 394.814 921.058C414.695 926.222 429.468 944.171 429.468 965.653 429.468 991.14 408.752 1011.87 383.288 1011.87 357.833 1011.87 337.126 991.148 337.126 965.653 337.126 944.157 351.913 926.197 371.785 921.042ZM379.324 869C379.605 869 379.854 869.153 380.126 869.16 381.242 869.128 382.325 869 383.448 869L383.448 869.006C437.014 869.006 484 920.156 483.992 978.465L483.997 1306.46 483.999 1306.46 483.999 1329.53 483.998 1329.53 484 1503.27C484 1559.92 438.883 1606 383.44 1606 327.997 1606 282.897 1559.92 282.897 1503.27 282.897 1502.48 282.912 1501.73 282.921 1501.02 276.558 1502.29 270.075 1502.93 263.503 1502.93 208.061 1502.93 162.96 1456.85 162.96 1400.22 162.96 1374.72 172.058 1350.77 188.114 1332.28 142.933 1322.23 109 1281.06 109 1231.93 109 1231.39 109.072 1230.86 109.072 1230.33 109.072 1230.22 109 1230.12 109 1229.99 109 1188.01 134.516 1152.06 170.517 1137.31 176.318 1134.8 182.368 1132.78 188.658 1131.42 172.258 1112.88 162.974 1088.74 162.974 1062.83 162.974 1006.18 208.075 960.102 263.518 960.102 269.672 960.102 275.802 960.744 281.884 961.933 285.415 910.091 327.708 869 379.324 869Z" fill="url(#fill1)" fill-rule="evenodd"/><path d="M729.688 890.904C687.648 890.904 651.744 905.768 621.977 935.496 591.948 965.485 576.934 1001.47 576.934 1043.45L576.934 1178.79 881.659 1178.79 881.659 1043.45C881.659 1001.47 866.775 965.485 837.008 935.496 807.24 905.768 771.467 890.904 729.688 890.904ZM1010.03 869C1017.34 869 1021 872.52 1021 879.561L1021 1424.44C1021 1431.48 1017.61 1435 1010.82 1435 1002.98 1435 999.066 1431.48 999.066 1424.44L999.066 879.561C999.066 872.52 1002.72 869 1010.03 869ZM729.688 869C777.734 869 818.729 885.95 852.675 919.85 886.881 954.011 903.984 995.212 903.984 1043.45L903.984 1424.44C903.984 1431.48 900.198 1435 892.626 1435 885.314 1435 881.659 1431.48 881.659 1424.44L881.659 1201.09 576.934 1201.09 576.934 1424.44C576.934 1431.48 573.54 1435 566.75 1435 558.917 1435 555 1431.48 555 1424.44L555 1043.45C555 995.212 572.103 954.011 606.31 919.85 640.516 885.95 681.643 869 729.688 869Z" fill="url(#fill2)" fill-rule="evenodd"/></g></svg>