<svg width="816" height="728" xmlns="http://www.w3.org/2000/svg" xmlns:xlink="http://www.w3.org/1999/xlink" xml:space="preserve" overflow="hidden"><defs><clipPath id="clip0"><rect x="1792" y="1685" width="816" height="728"/></clipPath><linearGradient x1="1792" y1="2049" x2="2608" y2="2049" gradientUnits="userSpaceOnUse" spreadMethod="reflect" id="fill1"><stop offset="0" stop-color="#00BBFF"/><stop offset="0.00537634" stop-color="#01BAFE"/><stop offset="0.0107527" stop-color="#02BAFE"/><stop offset="0.016129" stop-color="#03BAFE"/><stop offset="0.0215054" stop-color="#03BAFE"/><stop offset="0.0268817" stop-color="#04BAFE"/><stop offset="0.0322581" stop-color="#05BAFE"/><stop offset="0.0376344" stop-color="#06BAFE"/><stop offset="0.0430108" stop-color="#07BAFE"/><stop offset="0.0483871" stop-color="#08BAFE"/><stop offset="0.0537634" stop-color="#09BAFE"/><stop offset="0.0591398" stop-color="#0ABAFE"/><stop offset="0.0645161" stop-color="#0BB9FE"/><stop offset="0.0698925" stop-color="#0CB9FE"/><stop offset="0.0752688" stop-color="#0DB9FE"/><stop offset="0.0806452" stop-color="#0EB9FE"/><stop offset="0.0860215" stop-color="#0FB9FE"/><stop offset="0.0913979" stop-color="#10B8FE"/><stop offset="0.0967742" stop-color="#11B8FD"/><stop offset="0.102151" stop-color="#12B8FD"/><stop offset="0.107527" stop-color="#13B8FD"/><stop offset="0.112903" stop-color="#14B7FD"/><stop offset="0.11828" stop-color="#15B7FD"/><stop offset="0.123656" stop-color="#15B7FD"/><stop offset="0.129032" stop-color="#16B6FD"/><stop offset="0.134409" stop-color="#17B6FD"/><stop offset="0.139785" stop-color="#18B6FC"/><stop offset="0.145161" stop-color="#19B5FC"/><stop offset="0.150538" stop-color="#1AB5FC"/><stop offset="0.155914" stop-color="#1BB5FC"/><stop offset="0.16129" stop-color="#1CB4FC"/><stop offset="0.166667" stop-color="#1CB4FC"/><stop offset="0.172043" stop-color="#1DB4FB"/><stop offset="0.177419" stop-color="#1EB3FB"/><stop offset="0.182796" stop-color="#1FB3FB"/><stop offset="0.188172" stop-color="#20B2FB"/><stop offset="0.193548" stop-color="#21B2FB"/><stop offset="0.198925" stop-color="#22B1FA"/><stop offset="0.204301" stop-color="#22B1FA"/><stop offset="0.209677" stop-color="#23B1FA"/><stop offset="0.215054" stop-color="#24B0FA"/><stop offset="0.22043" stop-color="#25B0FA"/><stop offset="0.225806" stop-color="#26AFF9"/><stop offset="0.231183" stop-color="#26AEF9"/><stop offset="0.236559" stop-color="#27AEF9"/><stop offset="0.241935" stop-color="#28ADF9"/><stop offset="0.247312" stop-color="#29ADF8"/><stop offset="0.252688" stop-color="#2AACF8"/><stop offset="0.258065" stop-color="#2AACF8"/><stop offset="0.263441" stop-color="#2BABF8"/><stop offset="0.268817" stop-color="#2CABF7"/><stop offset="0.274194" stop-color="#2DAAF7"/><stop offset="0.27957" stop-color="#2DA9F7"/><stop offset="0.284946" stop-color="#2EA9F7"/><stop offset="0.290323" stop-color="#2FA8F6"/><stop offset="0.295699" stop-color="#30A7F6"/><stop offset="0.301075" stop-color="#30A7F6"/><stop offset="0.306452" stop-color="#31A6F5"/><stop offset="0.311828" stop-color="#32A5F5"/><stop offset="0.317204" stop-color="#33A5F5"/><stop offset="0.322581" stop-color="#33A4F5"/><stop offset="0.327957" stop-color="#34A3F4"/><stop offset="0.333333" stop-color="#35A3F4"/><stop offset="0.33871" stop-color="#35A2F4"/><stop offset="0.344086" stop-color="#36A1F3"/><stop offset="0.349462" stop-color="#37A0F3"/><stop offset="0.354839" stop-color="#38A0F3"/><stop offset="0.360215" stop-color="#389FF2"/><stop offset="0.365591" stop-color="#399EF2"/><stop offset="0.370968" stop-color="#3A9DF2"/><stop offset="0.376344" stop-color="#3A9DF1"/><stop offset="0.38172" stop-color="#3B9CF1"/><stop offset="0.387097" stop-color="#3C9BF0"/><stop offset="0.392473" stop-color="#3C9AF0"/><stop offset="0.397849" stop-color="#3D99F0"/><stop offset="0.403226" stop-color="#3E98EF"/><stop offset="0.408602" stop-color="#3E98EF"/><stop offset="0.413978" stop-color="#3F97EF"/><stop offset="0.419355" stop-color="#3F96EE"/><stop offset="0.424731" stop-color="#4095EE"/><stop offset="0.430108" stop-color="#4194ED"/><stop offset="0.435484" stop-color="#4193ED"/><stop offset="0.44086" stop-color="#4292ED"/><stop offset="0.446237" stop-color="#4291EC"/><stop offset="0.451613" stop-color="#4390EC"/><stop offset="0.456989" stop-color="#448FEB"/><stop offset="0.462366" stop-color="#448EEB"/><stop offset="0.467742" stop-color="#458EEB"/><stop offset="0.473118" stop-color="#458DEA"/><stop offset="0.478495" stop-color="#468CEA"/><stop offset="0.483871" stop-color="#478BE9"/><stop offset="0.489247" stop-color="#478AE9"/><stop offset="0.494624" stop-color="#4889E8"/><stop offset="0.5" stop-color="#4888E8"/><stop offset="0.505376" stop-color="#4986E7"/><stop offset="0.510753" stop-color="#4985E7"/><stop offset="0.516129" stop-color="#4A84E6"/><stop offset="0.521505" stop-color="#4A83E6"/><stop offset="0.526882" stop-color="#4B82E6"/><stop offset="0.532258" stop-color="#4B81E5"/><stop offset="0.537634" stop-color="#4C80E5"/><stop offset="0.543011" stop-color="#4C7FE4"/><stop offset="0.548387" stop-color="#4D7EE4"/><stop offset="0.553763" stop-color="#4D7DE3"/><stop offset="0.55914" stop-color="#4E7CE3"/><stop offset="0.564516" stop-color="#4E7AE2"/><stop offset="0.569892" stop-color="#4F79E2"/><stop offset="0.575269" stop-color="#4F78E1"/><stop offset="0.580645" stop-color="#5077E1"/><stop offset="0.586021" stop-color="#5076E0"/><stop offset="0.591398" stop-color="#5175E0"/><stop offset="0.596774" stop-color="#5173DF"/><stop offset="0.602151" stop-color="#5272DE"/><stop offset="0.607527" stop-color="#5271DE"/><stop offset="0.612903" stop-color="#5370DD"/><stop offset="0.61828" stop-color="#536FDD"/><stop offset="0.623656" stop-color="#536DDC"/><stop offset="0.629032" stop-color="#546CDC"/><stop offset="0.634409" stop-color="#546BDB"/><stop offset="0.639785" stop-color="#556ADB"/><stop offset="0.645161" stop-color="#5568DA"/><stop offset="0.650538" stop-color="#5667D9"/><stop offset="0.655914" stop-color="#5666D9"/><stop offset="0.66129" stop-color="#5664D8"/><stop offset="0.666667" stop-color="#5763D8"/><stop offset="0.672043" stop-color="#5762D7"/><stop offset="0.677419" stop-color="#5860D7"/><stop offset="0.682796" stop-color="#585FD6"/><stop offset="0.688172" stop-color="#585ED5"/><stop offset="0.693548" stop-color="#595CD5"/><stop offset="0.698925" stop-color="#595BD4"/><stop offset="0.704301" stop-color="#595AD3"/><stop offset="0.709677" stop-color="#5A58D3"/><stop offset="0.715054" stop-color="#5A57D2"/><stop offset="0.72043" stop-color="#5A55D2"/><stop offset="0.725806" stop-color="#5B54D1"/><stop offset="0.731183" stop-color="#5B53D0"/><stop offset="0.736559" stop-color="#5B51D0"/><stop offset="0.741935" stop-color="#5C50CF"/><stop offset="0.747312" stop-color="#5C4ECE"/><stop offset="0.752688" stop-color="#5C4DCE"/><stop offset="0.758065" stop-color="#5D4BCD"/><stop offset="0.763441" stop-color="#5D4ACC"/><stop offset="0.768817" stop-color="#5D48CC"/><stop offset="0.774194" stop-color="#5D47CB"/><stop offset="0.77957" stop-color="#5E45CA"/><stop offset="0.784946" stop-color="#5E44CA"/><stop offset="0.790323" stop-color="#5E42C9"/><stop offset="0.795699" stop-color="#5E41C8"/><stop offset="0.801075" stop-color="#5F3FC8"/><stop offset="0.806452" stop-color="#5F3EC7"/><stop offset="0.811828" stop-color="#5F3CC6"/><stop offset="0.817204" stop-color="#5F3AC6"/><stop offset="0.822581" stop-color="#6039C5"/><stop offset="0.827957" stop-color="#6037C4"/><stop offset="0.833333" stop-color="#6036C4"/><stop offset="0.83871" stop-color="#6034C3"/><stop offset="0.844086" stop-color="#6032C2"/><stop offset="0.849462" stop-color="#6131C1"/><stop offset="0.854839" stop-color="#612FC1"/><stop offset="0.860215" stop-color="#612DC0"/><stop offset="0.865591" stop-color="#612CBF"/><stop offset="0.870968" stop-color="#612ABE"/><stop offset="0.876344" stop-color="#6228BE"/><stop offset="0.88172" stop-color="#6227BD"/><stop offset="0.887097" stop-color="#6225BC"/><stop offset="0.892473" stop-color="#6223BB"/><stop offset="0.897849" stop-color="#6222BB"/><stop offset="0.903226" stop-color="#6220BA"/><stop offset="0.908602" stop-color="#621EB9"/><stop offset="0.913979" stop-color="#621DB8"/><stop offset="0.919355" stop-color="#631BB8"/><stop offset="0.924731" stop-color="#6319B7"/><stop offset="0.930108" stop-color="#6317B6"/><stop offset="0.935484" stop-color="#6315B5"/><stop offset="0.94086" stop-color="#6314B4"/><stop offset="0.946237" stop-color="#6312B4"/><stop offset="0.951613" stop-color="#6310B3"/><stop offset="0.956989" stop-color="#630EB2"/><stop offset="0.962366" stop-color="#630CB1"/><stop offset="0.967742" stop-color="#630BB0"/><stop offset="0.973118" stop-color="#6309B0"/><stop offset="0.978495" stop-color="#6307AF"/><stop offset="0.983871" stop-color="#6305AE"/><stop offset="0.989247" stop-color="#6303AD"/><stop offset="0.994624" stop-color="#6301AC"/><stop offset="1" stop-color="#6400AC"/></linearGradient><linearGradient x1="370" y1="364" x2="-446" y2="364" gradientUnits="userSpaceOnUse" spreadMethod="reflect" id="fill2"><stop offset="0" stop-color="#00BBFF"/><stop offset="0.00537634" stop-color="#01BAFE"/><stop offset="0.0107527" stop-color="#02BAFE"/><stop offset="0.016129" stop-color="#03BAFE"/><stop offset="0.0215054" stop-color="#03BAFE"/><stop offset="0.0268817" stop-color="#04BAFE"/><stop offset="0.0322581" stop-color="#05BAFE"/><stop offset="0.0376344" stop-color="#06BAFE"/><stop offset="0.0430108" stop-color="#07BAFE"/><stop offset="0.0483871" stop-color="#08BAFE"/><stop offset="0.0537634" stop-color="#09BAFE"/><stop offset="0.0591398" stop-color="#0ABAFE"/><stop offset="0.0645161" stop-color="#0BB9FE"/><stop offset="0.0698925" stop-color="#0CB9FE"/><stop offset="0.0752688" stop-color="#0DB9FE"/><stop offset="0.0806452" stop-color="#0EB9FE"/><stop offset="0.0860215" stop-color="#0FB9FE"/><stop offset="0.0913979" stop-color="#10B8FE"/><stop offset="0.0967742" stop-color="#11B8FD"/><stop offset="0.102151" stop-color="#12B8FD"/><stop offset="0.107527" stop-color="#13B8FD"/><stop offset="0.112903" stop-color="#14B7FD"/><stop offset="0.11828" stop-color="#15B7FD"/><stop offset="0.123656" stop-color="#15B7FD"/><stop offset="0.129032" stop-color="#16B6FD"/><stop offset="0.134409" stop-color="#17B6FD"/><stop offset="0.139785" stop-color="#18B6FC"/><stop offset="0.145161" stop-color="#19B5FC"/><stop offset="0.150538" stop-color="#1AB5FC"/><stop offset="0.155914" stop-color="#1BB5FC"/><stop offset="0.16129" stop-color="#1CB4FC"/><stop offset="0.166667" stop-color="#1CB4FC"/><stop offset="0.172043" stop-color="#1DB4FB"/><stop offset="0.177419" stop-color="#1EB3FB"/><stop offset="0.182796" stop-color="#1FB3FB"/><stop offset="0.188172" stop-color="#20B2FB"/><stop offset="0.193548" stop-color="#21B2FB"/><stop offset="0.198925" stop-color="#22B1FA"/><stop offset="0.204301" stop-color="#22B1FA"/><stop offset="0.209677" stop-color="#23B1FA"/><stop offset="0.215054" stop-color="#24B0FA"/><stop offset="0.22043" stop-color="#25B0FA"/><stop offset="0.225806" stop-color="#26AFF9"/><stop offset="0.231183" stop-color="#26AEF9"/><stop offset="0.236559" stop-color="#27AEF9"/><stop offset="0.241935" stop-color="#28ADF9"/><stop offset="0.247312" stop-color="#29ADF8"/><stop offset="0.252688" stop-color="#2AACF8"/><stop offset="0.258065" stop-color="#2AACF8"/><stop offset="0.263441" stop-color="#2BABF8"/><stop offset="0.268817" stop-color="#2CABF7"/><stop offset="0.274194" stop-color="#2DAAF7"/><stop offset="0.27957" stop-color="#2DA9F7"/><stop offset="0.284946" stop-color="#2EA9F7"/><stop offset="0.290323" stop-color="#2FA8F6"/><stop offset="0.295699" stop-color="#30A7F6"/><stop offset="0.301075" stop-color="#30A7F6"/><stop offset="0.306452" stop-color="#31A6F5"/><stop offset="0.311828" stop-color="#32A5F5"/><stop offset="0.317204" stop-color="#33A5F5"/><stop offset="0.322581" stop-color="#33A4F5"/><stop offset="0.327957" stop-color="#34A3F4"/><stop offset="0.333333" stop-color="#35A3F4"/><stop offset="0.33871" stop-color="#35A2F4"/><stop offset="0.344086" stop-color="#36A1F3"/><stop offset="0.349462" stop-color="#37A0F3"/><stop offset="0.354839" stop-color="#38A0F3"/><stop offset="0.360215" stop-color="#389FF2"/><stop offset="0.365591" stop-color="#399EF2"/><stop offset="0.370968" stop-color="#3A9DF2"/><stop offset="0.376344" stop-color="#3A9DF1"/><stop offset="0.38172" stop-color="#3B9CF1"/><stop offset="0.387097" stop-color="#3C9BF0"/><stop offset="0.392473" stop-color="#3C9AF0"/><stop offset="0.397849" stop-color="#3D99F0"/><stop offset="0.403226" stop-color="#3E98EF"/><stop offset="0.408602" stop-color="#3E98EF"/><stop offset="0.413978" stop-color="#3F97EF"/><stop offset="0.419355" stop-color="#3F96EE"/><stop offset="0.424731" stop-color="#4095EE"/><stop offset="0.430108" stop-color="#4194ED"/><stop offset="0.435484" stop-color="#4193ED"/><stop offset="0.44086" stop-color="#4292ED"/><stop offset="0.446237" stop-color="#4291EC"/><stop offset="0.451613" stop-color="#4390EC"/><stop offset="0.456989" stop-color="#448FEB"/><stop offset="0.462366" stop-color="#448EEB"/><stop offset="0.467742" stop-color="#458EEB"/><stop offset="0.473118" stop-color="#458DEA"/><stop offset="0.478495" stop-color="#468CEA"/><stop offset="0.483871" stop-color="#478BE9"/><stop offset="0.489247" stop-color="#478AE9"/><stop offset="0.494624" stop-color="#4889E8"/><stop offset="0.5" stop-color="#4888E8"/><stop offset="0.505376" stop-color="#4986E7"/><stop offset="0.510753" stop-color="#4985E7"/><stop offset="0.516129" stop-color="#4A84E6"/><stop offset="0.521505" stop-color="#4A83E6"/><stop offset="0.526882" stop-color="#4B82E6"/><stop offset="0.532258" stop-color="#4B81E5"/><stop offset="0.537634" stop-color="#4C80E5"/><stop offset="0.543011" stop-color="#4C7FE4"/><stop offset="0.548387" stop-color="#4D7EE4"/><stop offset="0.553763" stop-color="#4D7DE3"/><stop offset="0.55914" stop-color="#4E7CE3"/><stop offset="0.564516" stop-color="#4E7AE2"/><stop offset="0.569892" stop-color="#4F79E2"/><stop offset="0.575269" stop-color="#4F78E1"/><stop offset="0.580645" stop-color="#5077E1"/><stop offset="0.586021" stop-color="#5076E0"/><stop offset="0.591398" stop-color="#5175E0"/><stop offset="0.596774" stop-color="#5173DF"/><stop offset="0.602151" stop-color="#5272DE"/><stop offset="0.607527" stop-color="#5271DE"/><stop offset="0.612903" stop-color="#5370DD"/><stop offset="0.61828" stop-color="#536FDD"/><stop offset="0.623656" stop-color="#536DDC"/><stop offset="0.629032" stop-color="#546CDC"/><stop offset="0.634409" stop-color="#546BDB"/><stop offset="0.639785" stop-color="#556ADB"/><stop offset="0.645161" stop-color="#5568DA"/><stop offset="0.650538" stop-color="#5667D9"/><stop offset="0.655914" stop-color="#5666D9"/><stop offset="0.66129" stop-color="#5664D8"/><stop offset="0.666667" stop-color="#5763D8"/><stop offset="0.672043" stop-color="#5762D7"/><stop offset="0.677419" stop-color="#5860D7"/><stop offset="0.682796" stop-color="#585FD6"/><stop offset="0.688172" stop-color="#585ED5"/><stop offset="0.693548" stop-color="#595CD5"/><stop offset="0.698925" stop-color="#595BD4"/><stop offset="0.704301" stop-color="#595AD3"/><stop offset="0.709677" stop-color="#5A58D3"/><stop offset="0.715054" stop-color="#5A57D2"/><stop offset="0.72043" stop-color="#5A55D2"/><stop offset="0.725806" stop-color="#5B54D1"/><stop offset="0.731183" stop-color="#5B53D0"/><stop offset="0.736559" stop-color="#5B51D0"/><stop offset="0.741935" stop-color="#5C50CF"/><stop offset="0.747312" stop-color="#5C4ECE"/><stop offset="0.752688" stop-color="#5C4DCE"/><stop offset="0.758065" stop-color="#5D4BCD"/><stop offset="0.763441" stop-color="#5D4ACC"/><stop offset="0.768817" stop-color="#5D48CC"/><stop offset="0.774194" stop-color="#5D47CB"/><stop offset="0.77957" stop-color="#5E45CA"/><stop offset="0.784946" stop-color="#5E44CA"/><stop offset="0.790323" stop-color="#5E42C9"/><stop offset="0.795699" stop-color="#5E41C8"/><stop offset="0.801075" stop-color="#5F3FC8"/><stop offset="0.806452" stop-color="#5F3EC7"/><stop offset="0.811828" stop-color="#5F3CC6"/><stop offset="0.817204" stop-color="#5F3AC6"/><stop offset="0.822581" stop-color="#6039C5"/><stop offset="0.827957" stop-color="#6037C4"/><stop offset="0.833333" stop-color="#6036C4"/><stop offset="0.83871" stop-color="#6034C3"/><stop offset="0.844086" stop-color="#6032C2"/><stop offset="0.849462" stop-color="#6131C1"/><stop offset="0.854839" stop-color="#612FC1"/><stop offset="0.860215" stop-color="#612DC0"/><stop offset="0.865591" stop-color="#612CBF"/><stop offset="0.870968" stop-color="#612ABE"/><stop offset="0.876344" stop-color="#6228BE"/><stop offset="0.88172" stop-color="#6227BD"/><stop offset="0.887097" stop-color="#6225BC"/><stop offset="0.892473" stop-color="#6223BB"/><stop offset="0.897849" stop-color="#6222BB"/><stop offset="0.903226" stop-color="#6220BA"/><stop offset="0.908602" stop-color="#621EB9"/><stop offset="0.913979" stop-color="#621DB8"/><stop offset="0.919355" stop-color="#631BB8"/><stop offset="0.924731" stop-color="#6319B7"/><stop offset="0.930108" stop-color="#6317B6"/><stop offset="0.935484" stop-color="#6315B5"/><stop offset="0.94086" stop-color="#6314B4"/><stop offset="0.946237" stop-color="#6312B4"/><stop offset="0.951613" stop-color="#6310B3"/><stop offset="0.956989" stop-color="#630EB2"/><stop offset="0.962366" stop-color="#630CB1"/><stop offset="0.967742" stop-color="#630BB0"/><stop offset="0.973118" stop-color="#6309B0"/><stop offset="0.978495" stop-color="#6307AF"/><stop offset="0.983871" stop-color="#6305AE"/><stop offset="0.989247" stop-color="#6303AD"/><stop offset="0.994624" stop-color="#6301AC"/><stop offset="1" stop-color="#6400AC"/></linearGradient></defs><g clip-path="url(#clip0)" transform="translate(-1792 -1685)"><path d="M2511.67 2252.31C2498.55 2252.31 2487.92 2262.96 2487.92 2276.1 2487.92 2289.23 2498.55 2299.88 2511.67 2299.88 2524.79 2299.88 2535.42 2289.23 2535.42 2276.1 2535.42 2262.96 2524.79 2252.31 2511.67 2252.31ZM2255.48 1949.44C2310.13 1949.44 2354.43 1993.8 2354.43 2048.53 2354.43 2103.25 2310.13 2147.62 2255.48 2147.62L2255.01 2147.57 2255.01 2147.43 2255 2147.43 2255 2109.12 2255.01 2109.11 2255.01 1987.88 2255 1987.88 2255 1949.57 2255.01 1949.57 2255.01 1949.49ZM2255 1825.76C2331.78 1825.76 2399.47 1864.72 2439.44 1923.97L2442.02 1928.73 2447.38 1927.65C2464 1927.65 2477.47 1941.14 2477.47 1957.78 2477.47 1966.1 2474.1 1973.63 2468.66 1979.09L2465.88 1980.96 2472.9 2003.61C2475.87 2018.11 2477.42 2033.12 2477.42 2048.5 2477.42 2171.51 2377.84 2271.24 2255 2271.24L2255 2251.57C2366.99 2251.57 2457.78 2160.65 2457.78 2048.5 2457.78 2034.48 2456.36 2020.79 2453.66 2007.57L2447.55 1987.88 2447.38 1987.91C2430.76 1987.91 2417.29 1974.42 2417.29 1957.78 2417.29 1953.62 2418.14 1949.66 2419.66 1946.05L2424.92 1938.23 2423.15 1934.96C2386.71 1880.95 2325 1845.43 2255 1845.43ZM2255 1695C2449.96 1695 2608 1853.27 2608 2048.5 2608 2121.71 2585.78 2189.73 2547.71 2246.15L2544.67 2250.22 2550.91 2259.5C2553.07 2264.6 2554.26 2270.21 2554.26 2276.1 2554.26 2299.65 2535.19 2318.75 2511.67 2318.75 2505.79 2318.75 2500.19 2317.55 2495.09 2315.39L2489.87 2311.87 2479.54 2321.28C2418.52 2371.71 2340.29 2402 2255 2402L2255 2380.95C2323.75 2380.95 2387.63 2360.01 2440.61 2324.17L2474.67 2296.03 2472.43 2292.7C2470.27 2287.6 2469.08 2281.99 2469.08 2276.1 2469.08 2252.54 2488.15 2233.45 2511.67 2233.45 2517.55 2233.45 2523.15 2234.64 2528.25 2236.8L2528.27 2236.81 2530.28 2234.37C2566.07 2181.31 2586.97 2117.35 2586.97 2048.5 2586.97 1864.9 2438.34 1716.06 2255 1716.06Z" fill="url(#fill1)" fill-rule="evenodd"/><path d="M369.998 356.576C369.998 315.113 344.824 279.6 309.305 265.032 303.581 262.548 297.612 260.549 291.406 259.208 307.603 240.9 316.746 217.046 316.746 191.461 316.746 135.499 272.249 89.9815 217.547 89.9815 210.985 89.9815 204.454 90.6639 197.994 92.0208 193.316 40.4878 150.806 0 99.215 0 46.366 0 0 50.5255 0 108.122L0 626.521C0 682.482 44.4975 728 99.215 728 153.916 728 198.414 682.482 198.414 626.521 198.414 625.751 198.406 624.997 198.39 624.299 204.668 625.553 211.064 626.187 217.547 626.187 272.249 626.187 316.746 580.67 316.746 524.732 316.746 499.538 307.777 475.881 291.929 457.622 336.505 447.686 369.984 407.017 369.984 358.491 369.984 357.959 369.929 357.443 369.913 356.911 369.929 356.792 370 356.689 370 356.578ZM99.2278 626.095C86.6569 626.095 76.4127 615.842 76.4127 603.24 76.4127 590.639 86.6406 580.37 99.2278 580.37 111.799 580.37 122.027 590.623 122.027 603.24 122.027 615.85 111.791 626.095 99.2278 626.095ZM218.003 541.312C205.432 541.312 195.188 531.059 195.188 518.458 195.188 505.856 205.416 495.587 218.003 495.587 230.574 495.587 240.802 505.84 240.802 518.458 240.818 531.052 230.582 541.312 218.003 541.312ZM270.797 437.181C268.755 437.181 266.744 437.031 264.734 436.872 259.525 436.356 254.688 439.594 253.01 444.562 251.331 449.529 253.263 455.005 257.672 457.806 280.447 472.296 294.047 497.325 294.047 524.734 294.047 563.982 265.937 596.527 229.347 602.398L229.347 562.443C248.932 557.356 263.499 539.643 263.499 518.448 263.499 493.292 243.091 472.827 218.004 472.827 192.909 472.827 172.493 493.292 172.493 518.448 172.493 539.645 187.067 557.356 206.651 562.443L206.651 602.532C200.16 601.58 193.803 599.874 187.7 597.223 183.646 595.485 178.936 596.223 175.651 599.167 172.35 602.112 171.052 606.706 172.334 610.944 172.96 613.023 173.514 614.673 173.989 616.134 175.35 620.197 175.714 621.3 175.714 626.506 175.714 665.937 147.367 698.599 110.564 704.265L110.564 647.225C130.149 642.138 144.722 624.433 144.722 603.231 144.722 578.075 124.314 557.609 99.2274 557.609 74.1324 557.609 53.7167 578.075 53.7167 603.231 53.7167 624.427 68.2906 642.138 87.8685 647.225L87.8685 704.265C51.0498 698.599 22.702 665.937 22.702 626.506L22.7098 392.578 55.3257 392.578C60.4 412.211 78.0779 426.819 99.2373 426.819 124.332 426.819 144.732 406.362 144.732 381.214 144.732 356.058 124.324 335.593 99.2373 335.593 78.0922 335.593 60.4244 350.186 55.3418 369.827L22.7098 369.827 22.7098 214.989 162.606 214.989C167.688 234.621 185.35 249.224 206.502 249.224 231.597 249.224 251.996 228.766 251.996 203.618 251.996 178.462 231.589 157.997 206.502 157.997 185.349 157.997 167.681 172.606 162.606 192.238L125.488 192.238 125.488 146.933C145.073 141.847 159.645 124.142 159.645 102.939 159.645 77.7831 139.238 57.3177 114.151 57.3177 89.0558 57.3177 68.6402 77.7831 68.6402 102.939 68.6402 124.136 83.2141 141.846 102.792 146.933L102.792 192.238 22.7179 192.238 22.7179 108.113C22.7179 62.6424 58.4688 22.7437 99.2293 22.7437 141.414 22.7437 175.732 58.0573 175.732 101.472 175.732 102.758 175.63 104.044 175.471 106.4 175.218 110.265 176.944 114.003 180.055 116.296 183.166 118.597 187.219 119.161 190.837 117.772 199.576 114.431 208.561 112.741 217.555 112.741 259.74 112.741 294.058 148.054 294.058 191.47 294.058 219.457 280.03 244.75 256.52 259.104 256.282 259.263 256.124 259.493 255.887 259.66 211.104 268.167 177.071 308.361 177.071 356.585 177.071 362.878 182.153 367.964 188.423 367.964 194.685 367.964 199.775 362.878 199.775 356.585 199.775 314.732 232.865 280.682 273.538 280.682 283.268 280.682 292.522 282.674 301.039 286.197 328.215 298.291 347.31 326.136 347.31 358.482 347.302 401.881 312.984 437.186 270.799 437.186ZM76.4208 381.212C76.4208 368.61 86.6487 358.341 99.2359 358.341 111.807 358.341 122.035 368.594 122.035 381.212 122.035 393.805 111.807 404.066 99.2359 404.066 86.6412 404.05 76.4208 393.805 76.4208 381.212ZM114.142 125.791C101.57 125.791 91.3262 115.538 91.3262 102.937 91.3262 90.3352 101.554 80.0661 114.142 80.0661 126.712 80.0661 136.94 90.3188 136.94 102.937 136.94 115.546 126.705 125.791 114.142 125.791ZM183.702 203.622C183.702 191.02 193.929 180.751 206.517 180.751 219.088 180.751 229.316 191.004 229.316 203.622 229.316 216.216 219.088 226.476 206.517 226.476 193.922 226.476 183.702 216.224 183.702 203.622Z" fill="url(#fill2)" fill-rule="evenodd" transform="matrix(-1 0 0 1 2162 1685)"/></g></svg>