<svg width="437" height="392" xmlns="http://www.w3.org/2000/svg" xmlns:xlink="http://www.w3.org/1999/xlink" xml:space="preserve" overflow="hidden"><defs><clipPath id="clip0"><rect x="1981" y="1785" width="437" height="392"/></clipPath></defs><g clip-path="url(#clip0)" transform="translate(-1981 -1785)"><path d="M199.999 192.002C199.999 169.676 186.392 150.554 167.192 142.71 164.098 141.372 160.872 140.295 157.517 139.573 166.272 129.715 171.214 116.871 171.214 103.094 171.214 72.9611 147.161 48.4515 117.593 48.4515 114.046 48.4515 110.516 48.819 107.024 49.5497 104.495 21.8011 81.5165 0 53.6298 0 25.0627 0 0 27.206 0 58.2198L0 337.357C0 367.49 24.0527 392 53.6298 392 83.198 392 107.251 367.49 107.251 337.357 107.251 336.943 107.246 336.537 107.238 336.161 110.631 336.836 114.089 337.178 117.593 337.178 147.161 337.178 171.214 312.668 171.214 282.548 171.214 268.982 166.366 256.243 157.799 246.412 181.895 241.062 199.992 219.163 199.992 193.033 199.992 192.747 199.962 192.469 199.953 192.183 199.962 192.119 200 192.063 200 192.003ZM53.6367 337.128C46.8416 337.128 41.3042 331.607 41.3042 324.822 41.3042 318.036 46.8328 312.507 53.6367 312.507 60.4319 312.507 65.9605 318.027 65.9605 324.822 65.9605 331.611 60.4276 337.128 53.6367 337.128ZM117.84 291.476C111.045 291.476 105.507 285.955 105.507 279.169 105.507 272.384 111.036 266.854 117.84 266.854 124.635 266.854 130.163 272.375 130.163 279.169 130.172 285.951 124.639 291.476 117.84 291.476ZM146.377 235.405C145.273 235.405 144.186 235.324 143.099 235.239 140.284 234.961 137.669 236.704 136.762 239.379 135.855 242.054 136.899 245.002 139.282 246.511 151.593 254.313 158.945 267.79 158.945 282.549 158.945 303.683 143.75 321.207 123.971 324.368L123.971 302.854C134.558 300.114 142.432 290.577 142.432 279.164 142.432 265.619 131.401 254.599 117.84 254.599 104.275 254.599 93.2398 265.619 93.2398 279.164 93.2398 290.578 101.118 300.114 111.703 302.854L111.703 324.44C108.195 323.927 104.758 323.009 101.459 321.582 99.2684 320.646 96.7224 321.043 94.9466 322.629 93.1622 324.214 92.4604 326.688 93.1537 328.97 93.4917 330.089 93.7912 330.978 94.048 331.764 94.784 333.952 94.9808 334.546 94.9808 337.349 94.9808 358.581 79.6577 376.169 59.7644 379.22L59.7644 348.506C70.3509 345.767 78.2281 336.233 78.2281 324.816 78.2281 311.271 67.197 300.251 53.6365 300.251 40.0716 300.251 29.0361 311.271 29.0361 324.816 29.0361 336.23 36.9139 345.766 47.4965 348.506L47.4965 379.22C27.5945 376.169 12.2713 358.581 12.2713 337.349L12.2756 211.388 29.9058 211.388C32.6487 221.96 42.2043 229.826 53.6418 229.826 67.2067 229.826 78.2335 218.81 78.2335 205.269 78.2335 191.723 67.2024 180.704 53.6418 180.704 42.212 180.704 32.6619 188.562 29.9145 199.138L12.2756 199.138 12.2756 115.763 87.8954 115.763C90.6425 126.334 100.189 134.197 111.623 134.197 125.188 134.197 136.214 123.182 136.214 109.641 136.214 96.0949 125.183 85.0752 111.623 85.0752 100.188 85.0752 90.6383 92.9417 87.8954 103.513L67.8312 103.513 67.8312 79.1179C78.4177 76.379 86.2949 66.8457 86.2949 55.4288 86.2949 41.8832 75.2637 30.8633 61.7032 30.8633 48.1383 30.8633 37.1028 41.8832 37.1028 55.4288 37.1028 66.8423 44.9806 76.3788 55.5632 79.1179L55.5632 103.513 12.28 103.513 12.28 58.2149C12.28 33.7305 31.6048 12.2466 53.6375 12.2466 76.4402 12.2466 94.9905 31.2616 94.9905 54.6389 94.9905 55.3312 94.935 56.0234 94.8493 57.2925 94.7123 59.3734 95.6452 61.386 97.3269 62.6209 99.0087 63.86 101.2 64.1635 103.155 63.4157 107.879 61.6168 112.736 60.7066 117.597 60.7066 140.4 60.7066 158.95 79.7215 158.95 103.099 158.95 118.169 151.368 131.788 138.659 139.518 138.531 139.603 138.446 139.727 138.317 139.817 114.11 144.397 95.7142 166.04 95.7142 192.007 95.7142 195.396 98.4613 198.135 101.85 198.135 105.235 198.135 107.987 195.396 107.987 192.007 107.987 169.471 125.873 151.136 147.859 151.136 153.118 151.136 158.12 152.209 162.724 154.106 177.414 160.618 187.735 175.612 187.735 193.029 187.731 216.397 169.181 235.408 146.378 235.408ZM41.3086 205.268C41.3086 198.482 46.8371 192.953 53.6411 192.953 60.4363 192.953 65.9648 198.474 65.9648 205.268 65.9648 212.049 60.4363 217.574 53.6411 217.574 46.8331 217.565 41.3086 212.049 41.3086 205.268ZM61.6982 67.7336C54.903 67.7336 49.3656 62.2129 49.3656 55.4274 49.3656 48.642 54.8943 43.1125 61.6982 43.1125 68.4933 43.1125 74.0218 48.6332 74.0218 55.4274 74.0218 62.2172 68.489 67.7336 61.6982 67.7336ZM99.2982 109.643C99.2982 102.857 104.827 97.3276 111.631 97.3276 118.426 97.3276 123.955 102.848 123.955 109.643 123.955 116.424 118.426 121.949 111.631 121.949 104.823 121.949 99.2982 116.428 99.2982 109.643Z" fill="#002060" fill-rule="evenodd" transform="matrix(-1 0 0 1 2181 1785)"/><path d="M2365.88 2091.33C2358.78 2091.33 2353.03 2097.07 2353.03 2104.15 2353.03 2111.23 2358.78 2116.97 2365.88 2116.97 2372.98 2116.97 2378.73 2111.23 2378.73 2104.15 2378.73 2097.07 2372.98 2091.33 2365.88 2091.33ZM2227.26 1928.12C2256.83 1928.12 2280.8 1952.02 2280.8 1981.52 2280.8 2011.01 2256.83 2034.91 2227.26 2034.91L2227 2034.89 2227 2034.81 2227 2034.81 2227 2014.17 2227 2014.17 2227 1948.83 2227 1948.83 2227 1928.19 2227 1928.19 2227 1928.14ZM2227 1861.47C2268.54 1861.47 2305.17 1882.46 2326.79 1914.39L2328.19 1916.96 2331.09 1916.37C2340.08 1916.37 2347.37 1923.64 2347.37 1932.61 2347.37 1937.09 2345.55 1941.15 2342.6 1944.09L2341.1 1945.1 2344.9 1957.31C2346.51 1965.12 2347.35 1973.21 2347.35 1981.5 2347.35 2047.79 2293.47 2101.53 2227 2101.53L2227 2090.93C2287.6 2090.93 2336.72 2041.94 2336.72 1981.5 2336.72 1973.95 2335.95 1966.57 2334.49 1959.45L2331.19 1948.83 2331.09 1948.85C2322.1 1948.85 2314.81 1941.58 2314.81 1932.61 2314.81 1930.37 2315.27 1928.23 2316.09 1926.29L2318.94 1922.08 2317.98 1920.32C2298.26 1891.21 2264.87 1872.07 2227 1872.07ZM2227 1791C2332.49 1791 2418 1876.29 2418 1981.5 2418 2020.95 2405.97 2057.61 2385.38 2088.01L2383.73 2090.21 2387.11 2095.2C2388.28 2097.95 2388.92 2100.98 2388.92 2104.15 2388.92 2116.84 2378.6 2127.13 2365.88 2127.13 2362.7 2127.13 2359.66 2126.49 2356.91 2125.33L2354.09 2123.43 2348.49 2128.5C2315.48 2155.68 2273.15 2172 2227 2172L2227 2160.65C2264.2 2160.65 2298.76 2149.37 2327.43 2130.06L2345.86 2114.89 2344.64 2113.1C2343.48 2110.35 2342.83 2107.32 2342.83 2104.15 2342.83 2091.46 2353.15 2081.17 2365.88 2081.17 2369.06 2081.17 2372.09 2081.81 2374.85 2082.97L2374.86 2082.98 2375.95 2081.67C2395.31 2053.07 2406.62 2018.6 2406.62 1981.5 2406.62 1882.56 2326.2 1802.35 2227 1802.35Z" fill="#002060" fill-rule="evenodd"/></g></svg>